<?xml version="1.0" encoding="utf-8"?>
<!-- Generator: Adobe Illustrator 27.5.0, SVG Export Plug-In . SVG Version: 6.00 Build 0)  -->
<svg version="1.1" id="Layer_1" xmlns="http://www.w3.org/2000/svg" xmlns:xlink="http://www.w3.org/1999/xlink" x="0px" y="0px"
	 viewBox="0 0 4316.512 3000" style="enable-background:new 0 0 4316.512 3000;" xml:space="preserve">
<rect x="0.083" y="-0.021" style="fill:#FFFFFF;" width="4316.511" height="3000"/>
<g>
	<path style="fill:#4C1E48;" d="M2441.51,1835.112c-7.462,11.315,1.142,30.517,4.121,54.061c6.532,51.628,58.736,38.9,58.736,38.9
		l0.663-10.958c0,0-19.889-2.38-19.368-10.99c0,0,17.007,4.563,30.645-0.112c13.637-4.675,13.135-22.38,13.135-22.38
		s-14.299,15.633-28.222,12.042c-13.924-3.591-15.063-14.658-15.063-14.658s12.512,11.361,23.244,9.261
		c10.731-2.102,12.88-9.827,12.88-9.827s-20.457,5.22-25.684-5.787c-5.228-11.007-16.899-26.387-26.327-37.027
		C2460.843,1826.996,2445.483,1829.087,2441.51,1835.112z"/>
	<path style="fill:#FD5E5A;" d="M2464.043,1964.544l9.73-4.054c0,0,45.408,13.379,68.113,28.785
		c22.704,15.407,19.056,10.542,19.056,10.542s-15.001-7.298-23.516-28.786s-10.136-35.273-10.136-35.273s-4.865-4.865-17.84-4.865
		c-12.974,0-10.136-8.108-5.676-12.568s12.974-10.946,17.028-10.946s10.339,6.689,14.596,10.946s43.898,69.057,51.603,86.896
		c7.703,17.839-2.405,27.607-14.975,27.607c-12.568,0-87.308-21.252-87.308-21.252L2464.043,1964.544z"/>
	<path style="fill:#5CA9FF;" d="M2492.865,2601.612c0,17.926-202.55,32.457-452.409,32.457
		c-249.858,0-452.409-14.531-452.409-32.457s202.55-32.458,452.409-32.458C2290.315,2569.154,2492.865,2583.687,2492.865,2601.612z"
		/>
	<path style="fill:#42210B;" d="M2346.57,2127.78c0,0-0.217,0.961-0.621,2.761c-5.389,24.023-44.047,197.482-44.047,229.863
		c0,0-26.105,215.801-11.022,237.265c0,0,36.547,13.343,40.607,22.045h-69.033c0,0,4.062-16.243,4.062-20.304
		c0-4.062-25.525-103.84-25.525-160.691c0-56.851,16.243-72.514,16.243-76.574s-8.121-157.79-8.121-183.895
		c0-26.105,0.201-67.293,0.201-67.293s-10.863-60.262,15.242-60.262c26.104,0,69.832,19.074,69.832,19.074L2346.57,2127.78z"/>
	<path style="fill:#4F3554;" d="M1843.195,1889.782c0,0,63.11,0.796,74.826,4.136c11.716,3.339,139.06,80.353,164.414,102.509
		c25.354,22.155,147.018,106.906,166.763,142.394c0,0,61.708,7.407,90.717-6.028c15.622-7.235-1.253-26.64-0.547-43.679
		c1.436-34.624-107.044-78.897-144.522-93.436c-37.478-14.538-84.938-28.971-84.938-28.971s-15.791-20.788-39.23-40.137
		c-23.439-19.348-119.077-45.702-145.856-53.335s-70.173-17.287-78.776-12.5C1837.442,1865.521,1843.195,1889.782,1843.195,1889.782
		z"/>
	<path style="fill:#29C1C1;" d="M2474.484,1959.258c0,0-18.708,0-40.462,0c-21.755,0-32.632,0-32.632,0
		s-20.884,89.627-40.463,102.245c-19.578,12.617-34.274-5.717-34.274-5.717s7.734,90.122,22.527,96.214
		c14.793,6.091,96.479-78.424,114.427-96.371s26.105-28.498,26.105-44.596C2489.713,1994.935,2474.484,1959.258,2474.484,1959.258z"
		/>
	<path style="fill:#FD5E5A;" d="M2451.135,2000.751c0,0-3.19-1.339-5.801-0.487s-6.094,11.335-4.207,20.087
		C2443.014,2029.102,2456.646,2009.998,2451.135,2000.751z"/>
	<path style="fill:#FF8888;" d="M2405.307,1972.034l-3.916-12.776c0,0-29.15,2.556-41.332,28.108
		c-12.183,25.553-16.014,119.453,2,130.179c18.014,10.725,71.163-29.016,81.1-48.775c9.938-19.761,13.923-31.394,13.923-31.394
		s13.487-12.411,18.273-16.427s3.59-6.114,0-9.126c-3.589-3.012-5.221-4.745-5.221-6.936s-3.263-0.729-5.221-4.745
		s-6.744-3.104-13.487-2.008c-6.744,1.095-0.653,13.871-6.744,16.427c-6.091,2.555-1.74,8.213-5.004,15.331
		c-3.263,7.118-54.675,53.356-58.011,56.155C2375.959,2090.837,2409.975,1982.187,2405.307,1972.034z"/>
	<path style="fill:#FC7575;" d="M2444.541,1898.522c0,0,21.323,60.965,15.794,79.009c-3.109,10.15-12.628,3.024-19.527,4.182
		c-5.188,0.869-9.917-3.161-10.356-8.558c-1.139-14.007-3.951-40.686-9.441-51.482
		C2413.404,1906.715,2444.541,1898.522,2444.541,1898.522z"/>
	<path style="fill:#FD5E5A;" d="M2444.541,1898.522c0,0,1.856,4.585,4.297,11.482c-1.839,10.536-5.467,22.366-11.528,35.27
		c-2.885,6.141-5.605,10.892-8.143,14.541c-1.541-13.744-4.128-30.22-8.157-38.143
		C2413.404,1906.715,2444.541,1898.522,2444.541,1898.522z"/>
	<g>
		<path style="fill:#FC7575;" d="M2445.996,1863.814c-2.99-4.912-11.196-10.779-20.607-13.52
			c-20.336-5.922-38.546,13.128-34.888,35.91c0.333,2.074,0.855,4.073,1.626,5.894c4.911,11.609-2.086,20.794-2.086,20.794
			s1.274,2.701,4.347,2.677c3.071-0.024,3.158,1.486,2.762,3.623c-0.396,2.136-1.283,2.765-0.146,4.001
			c1.137,1.235,4.127,0.945,4.127,0.945s-1.2,3.476,0.018,4.8c1.219,1.323,2.349,0.87,2.349,0.87s2.912,0.511,2.92,2.555
			s1.783,3.861,3.173,5.131c1.949,1.781,13.239,9.612,29.177-16.327C2454.704,1895.228,2452.767,1874.938,2445.996,1863.814z"/>
	</g>
	<path style="fill:#422549;" d="M2392.015,1889.341c0,0,8.44-3.847,16.655,3.733c0,0-9.049-4.374-15.179-2.117L2392.015,1889.341z"
		/>
	<path style="fill:#18287D;" d="M2397.179,1896.379c0,0-1.799,2.621-1.125,4.086s1.813,1.548,1.813,1.548L2397.179,1896.379z"/>
	<path style="fill:#0F1D5B;" d="M2403.768,1900.435c0,0-4.823-3.193-8.512-4.425c-3.689-1.231-4.496-2.806-4.496-2.806
		s3.754,2.01,7.212,2.917C2401.43,1897.027,2403.768,1900.435,2403.768,1900.435z"/>
	<path style="fill:#0F1D5B;" d="M2406.979,1919.369c-1.41,2.16-3.493,3.84-5.849,4.77c2.469-0.673,4.782-2.082,6.583-4.314
		c0.152-0.188,0.128-0.468-0.054-0.624c-0.183-0.156-0.454-0.13-0.605,0.059c-0.01,0.011-0.019,0.023-0.026,0.035L2406.979,1919.369
		z"/>
	<path style="fill:#5C2C55;" d="M2419.545,1837.923c22.135-4.61,31.07,13.649,40.573,30.448c9.503,16.8-11.319,38.656-13.209,36.315
		c0,0-13.588-19.711-21.772-17.687s-34.953-9.94-34.953-9.94c0.097-0.513,0.378-6.783,0.606-10.359
		c0.174-2.729-1.315-4.36,0.179-7.111C2396.057,1850.223,2406.361,1840.669,2419.545,1837.923z"/>
	<path style="fill:#2ADCDF;" d="M2430.956,1873.352c6.811,4.009,20.002,15.787,25.34,20.574c1.491,1.337,0.686,3.642-0.468,5.279
		c-4.364,6.196-8.037,6.573-8.919,5.481c0,0-13.271-16.421-21.169-19.368c-7.918-2.955-29.567-6.046-35.681-6.415
		c-2.351-0.143-0.97-19.787,0.909-19.314C2399.729,1861.789,2418.408,1865.964,2430.956,1873.352z"/>
	<path style="fill:#FC7575;" d="M2425.137,1887c0,0-5.515-5.149,2.333-9.892c7.848-4.743,12.059,9.513,8.5,15.025
		C2432.41,1897.646,2425.137,1887,2425.137,1887z"/>
	<path style="fill:#FD5E5A;" d="M2428.085,1887.063c0,0-4.449-6.251-0.513-6.897s8.746,6.071,6.406,8.448
		S2428.085,1887.063,2428.085,1887.063z"/>
	<path style="fill:#FC7575;" d="M2460.335,1959.258c0,0,21.694,36.895,11.712,38.959c-9.982,2.065-49.084,7.951-49.084,0
		s0-38.959,0-38.959H2460.335z"/>
	<g>
		<g>
			<path style="fill:#ED5454;" d="M1675.905,1751.237c-1.234-0.522-8.71-3.659-11.184-3.659s-8.167,7.722-6.682,9.206
				C1659.523,1758.27,1675.905,1751.237,1675.905,1751.237z"/>
			<path style="fill:#FC7575;" d="M1660.923,1753.458c0,0-14.268,8.523-14.268,15.204c0,6.682,2.884,17.322,7.134,16.085
				s1.28-17.569,1.28-17.569l7.918,0.247L1660.923,1753.458z"/>
			<path style="fill:#FC7575;" d="M1667.689,1753.458c0,0-10.585-3.77-12.868-1.486c-2.283,2.282-6.31,12.607-4.455,14.464
				C1652.223,1768.291,1667.689,1753.458,1667.689,1753.458z"/>
			<path style="fill:#6E1D6B;" d="M1613.944,2155.655l15.472,24.993c0,0,31.539,160.073,31.539,176.14
				c0,16.067,11.307,211.845,11.307,211.845l-2.976,14.281l0.595,7.736c0,0,20.827-3.57,38.085,0c17.257,3.57,22.612,0,22.612,0
				s-26.778-12.496-38.084-16.066c-11.306-3.57-4.166-1.785-4.166-1.785l8.331-238.623l-13.091-251.119L1613.944,2155.655z"/>
			<path style="fill:#93278F;" d="M1572.289,2059.254c0-0.86-0.252-3.008-0.691-6.097c38.934-0.845,77.815-1.194,117.791,2.972
				c-1.927,37.759-3.453,57.924-3.453,57.924s-49.083,59.157-56.521,66.596c-7.438,7.438-52.487,165.744-52.487,165.744
				s-67.717,200.817-62.956,216.29c4.761,15.472,16.067,42.845,16.067,42.845h-36.09v-43.264l34.305-254.271
				C1528.254,2307.992,1572.289,2069.965,1572.289,2059.254z"/>
			<path style="fill:#7C1C7C;" d="M1571.598,2053.157c0.438,3.089,0.691,5.236,0.691,6.097c0,1.915-1.408,11.098-3.72,24.886
				c20.636-8.754,71.62-28.011,120.82-28.011C1649.413,2051.963,1610.532,2052.313,1571.598,2053.157z"/>
			<path style="fill:#ED5454;" d="M1648.829,1792.827c0,0-32.044,27.329-3.447,88.079c28.597,60.749,127.556,71.17,138.342,58.618
				c10.787-12.552,1.815-150.38-11.001-179.302s-30.68-11.661-30.68,0s5.721,20.548,13.015,29.035
				c7.293,8.486,10.91,118.559-8.283,108.003C1727.582,1886.706,1679.808,1783.085,1648.829,1792.827z"/>
			<path style="fill:#ED5454;" d="M1760.991,1745.343c-1.234-0.522-8.711-3.659-11.185-3.659c-2.474,0-8.166,7.722-6.681,9.206
				C1744.609,1752.375,1760.991,1745.343,1760.991,1745.343z"/>
			<path style="fill:#ED5454;" d="M1746.009,1747.564c0,0-14.268,8.522-14.268,15.204c0,6.681,2.884,17.322,7.134,16.085
				c4.25-1.237,1.28-17.57,1.28-17.57l7.919,0.248L1746.009,1747.564z"/>
			<path style="fill:#ED5454;" d="M1752.775,1747.564c0,0-10.585-3.77-12.868-1.487c-2.283,2.283-6.31,12.608-4.454,14.464
				C1737.309,1762.397,1752.775,1747.564,1752.775,1747.564z"/>
			<path style="fill:#5C2C55;" d="M1579.954,1661.153c-0.521-12.24-20.221-19.214-29.359-3.273l2.846,2.156
				C1561.23,1647.664,1576.159,1650.851,1579.954,1661.153z"/>
			<path style="fill:#C5C6FC;" d="M1560.636,2064.12c-4.627-32.613-20.568-189.109-24.707-211.449
				c-0.347-1.874-0.534-2.881-0.534-2.881s8.926-49.985,10.711-51.771c1.785-1.786,42.845-8.332,71.408-8.332
				c28.564,0,55.341,3.571,55.341,3.571s12.497,39.274,12.497,80.334c0,23.241,7.425,116.149,4.037,182.536
				C1649.413,2051.963,1599.569,2063.275,1560.636,2064.12z"/>
			<path style="fill:#A3A7E2;" d="M1689.219,1963.625c-0.623-17.574-1.427-34.255-2.141-48.611
				c-4.595,9.363-9.642,14.37-14.818,11.73c-22.173-11.31-42.097-15.379-127.573-124.249c-3.101,12.622-9.293,47.295-9.293,47.295
				c0.47,3.055,0.936,2.732,4.455,32.034C1567.655,1936.604,1654.189,1963.999,1689.219,1963.625z"/>
			<path style="fill:#FC7575;" d="M1582.554,1791.885l9.372-65.125l27.67,15.844l14.728,48.2
				C1634.325,1790.804,1635.381,1848.153,1582.554,1791.885z"/>
			<path style="fill:#FD5E5A;" d="M1591.926,1726.76l27.671,15.844l10.566,34.58c-13.155-0.245-30.8-8.608-40.344-26.51
				c-0.356-0.669-0.702-1.357-1.038-2.063L1591.926,1726.76z"/>
			<path style="fill:#FC7575;" d="M1621.084,1655.202c0,0,23.208,9.823,23.208,29.161c0,19.337,9.224,67.538,0,76.762
				c-9.223,9.224-40.512,3.987-54.473-19.727c-13.96-23.714-11.654-72.881-7.266-77.27
				C1586.942,1659.74,1612.456,1646.574,1621.084,1655.202z"/>
			<path style="fill:#5C2C55;" d="M1604.125,1662.344v1.785c0,0,5.653,23.803,27.374,27.67c21.72,3.868,24.397-7.436,24.397-7.436
				s22.613,9.519,24.398-13.094s-17.555-27.671-17.555-27.671s6.546,15.472-1.785,13.687c-8.331-1.785-0.69-14.877-9.568-17.852
				c-8.879-2.976-17.06,1.785-17.06,1.785s-13.836-1.19-23.655-6.546s-29.37-0.893-31.496,7.438
				c-2.124,8.323-2.72,13.974-2.721,13.983c0.171-1.628-5.967,0.424-6.251,0.579c-19.278,10.531-5.012,40.48,4.459,60.209
				c2.792,5.814,5.783,11.565,9.192,17.046c1.631,2.622,3.478,5.638,5.965,7.47c0,0-10.687-27.879-7.266-37.103
				c3.422-9.224,7.587,0.595,9.372-8.926c1.785-9.521-5.653-10.712-5.653-18.447
				C1586.273,1669.187,1604.125,1662.344,1604.125,1662.344z"/>
			<path style="fill:#FC7575;" d="M1591.182,1705.039c0,0-8.331-14.281-13.389-9.223c-5.058,5.058,4.017,33.77,9.075,30.943
				C1591.926,1723.933,1591.182,1705.039,1591.182,1705.039z"/>
			<path style="fill:#FFFFFF;" d="M1644.516,1735.79c0,0-9.271,6.295-22.037,3.67c0,0,7.062,8.1,12.381,8.118
				C1640.179,1747.597,1644.516,1735.79,1644.516,1735.79z"/>
			<path style="fill:#FD5E5A;" d="M1588.083,1706.527c0,0-6.248-8.479-7.884-3.868c-1.637,4.611,5.355,22.762,7.884,20.232
				C1590.613,1720.362,1588.083,1706.527,1588.083,1706.527z"/>
			<path style="fill:#2846A6;" d="M1636.973,1714.322c2.571,5.164,2.802,6.869,3.506,11.636c-0.72,0.093-1.702,0.366-6.982,0.802
				c1.87-0.647,3.743-1.273,5.639-1.793c-0.7-3.495-6.791-18.204-8.973-19.778
				C1632.738,1706.279,1635.778,1711.816,1636.973,1714.322z"/>
			<path style="fill:#2846A6;" d="M1613.784,1706.064c0,2.64,1.503,4.779,3.358,4.779c1.855,0,3.359-2.14,3.359-4.779
				s-1.504-4.779-3.359-4.779C1615.287,1701.285,1613.784,1703.425,1613.784,1706.064z"/>
			<path style="fill:#2846A6;" d="M1637.798,1706.064c0,2.64,1.504,4.779,3.359,4.779s3.358-2.14,3.358-4.779
				s-1.503-4.779-3.358-4.779S1637.798,1703.425,1637.798,1706.064z"/>
			<path style="fill:#2846A6;" d="M1619.027,1691.948c0,0-8.756-1.701-13.24,2.783c-4.484,4.484-2.827,7.333-1.637,7.333
				c1.19,0,1.51-7.775,5.951-7.333C1622.479,1695.965,1622.658,1692.264,1619.027,1691.948z"/>
			<path style="fill:#FC7575;" d="M1546.106,1798.02c0,0-37.289,27.329-4.012,88.079c33.277,60.749,148.431,71.17,160.982,58.618
				c12.552-12.552,2.113-150.38-12.801-179.302c-6.054-11.74-15.244-14.899-19.281-15.854c-8.839-2.092-16.419,8.927-16.419,15.854
				c0,11.661,6.658,20.548,15.145,29.035c8.486,8.486,12.695,118.559-9.639,108.003
				C1637.747,1891.898,1582.155,1788.276,1546.106,1798.02z"/>
		</g>
		<path style="fill:#00CCCC;" d="M1723.504,1949.406h-41.186c-7.305,0-13.226-5.922-13.226-13.227v-145.77
			c0-7.305,5.922-13.227,13.226-13.227h41.186c7.305,0,13.226,5.922,13.226,13.227v145.77
			C1736.731,1943.484,1730.809,1949.406,1723.504,1949.406z"/>
		<path style="fill:#0EE0DA;" d="M1726.365,1816.616h-29.319c-9.15,0-16.636-7.486-16.636-16.636l0,0
			c0-9.149,7.486-16.636,16.636-16.636h29.319c9.149,0,16.635,7.486,16.635,16.636l0,0
			C1743,1809.13,1735.514,1816.616,1726.365,1816.616z"/>
		<path style="fill:#0EE0DA;" d="M1728.625,1856.21h-29.319c-9.149,0-16.635-7.486-16.635-16.636l0,0
			c0-9.149,7.486-16.636,16.635-16.636h29.319c9.149,0,16.635,7.486,16.635,16.636l0,0
			C1745.26,1848.724,1737.774,1856.21,1728.625,1856.21z"/>
		<path style="fill:#0EE0DA;" d="M1728.934,1895.804h-27.629c-8.979,0-16.325-7.347-16.325-16.326v-0.619
			c0-8.979,7.347-16.326,16.325-16.326h27.629c8.979,0,16.326,7.347,16.326,16.326v0.619
			C1745.26,1888.457,1737.913,1895.804,1728.934,1895.804z"/>
		<path style="fill:#0EE0DA;" d="M1729.387,1935.396h-25.236c-8.73,0-15.872-7.142-15.872-15.872v-1.525
			c0-8.73,7.142-15.873,15.872-15.873h25.236c8.73,0,15.872,7.143,15.872,15.873v1.525
			C1745.26,1928.255,1738.117,1935.396,1729.387,1935.396z"/>
		<polygon style="fill:#1B1464;" points="1768.736,1812.381 1758.508,1817.33 1755.807,1799.98 1768.736,1802.495 		"/>
		<polygon style="fill:#1B1464;" points="1768.736,1883.063 1756.198,1884.712 1758.097,1866.778 1768.736,1869.132 		"/>
		<path style="fill:#00CCCC;" d="M1804.342,1949.406h-25.679c-7.305,0-13.226-5.922-13.226-13.227v-145.77
			c0-7.305,5.922-13.227,13.226-13.227h25.679c7.305,0,13.226,5.922,13.226,13.227v145.77
			C1817.568,1943.484,1811.646,1949.406,1804.342,1949.406z"/>
		<path style="fill:#0EE0DA;" d="M1808.412,1816.616h-18.261c-7.94,0-14.436-6.496-14.436-14.437v-4.398
			c0-7.939,6.496-14.437,14.436-14.437h18.261c7.94,0,14.436,6.497,14.436,14.437v4.398
			C1822.848,1810.12,1816.351,1816.616,1808.412,1816.616z"/>
		<path style="fill:#0EE0DA;" d="M1811.216,1896.565h-18.261c-7.939,0-14.435-6.496-14.435-14.436v-4.399
			c0-7.939,6.496-14.436,14.435-14.436h18.261c7.939,0,14.436,6.496,14.436,14.436v4.399
			C1825.652,1890.069,1819.156,1896.565,1811.216,1896.565z"/>
		<path style="fill:#0EE0DA;" d="M1811.216,1932.53h-18.261c-7.939,0-14.435-6.496-14.435-14.437v-4.398
			c0-7.939,6.496-14.436,14.435-14.436h18.261c7.939,0,14.436,6.496,14.436,14.436v4.398
			C1825.652,1926.034,1819.156,1932.53,1811.216,1932.53z"/>
		<path style="fill:#0EE0DA;" d="M1811.33,1856.21h-18.49c-7.967,0-14.486-6.52-14.486-14.486v-4.299
			c0-7.967,6.519-14.486,14.486-14.486h18.49c7.967,0,14.486,6.52,14.486,14.486v4.299
			C1825.817,1849.69,1819.298,1856.21,1811.33,1856.21z"/>
	</g>
	<g>
		<path style="fill:#411AC0;" d="M1973.35,1830.284c-41.849-32.515-121.637-9.546-130.878-6.728c-0.487,0.149-1-0.122-1.158-0.606
			l0,0c-0.162-0.498,0.112-1.031,0.613-1.184c9.457-2.88,90.012-26.016,132.568,7.036c0.413,0.321,0.479,0.924,0.153,1.332l0,0.001
			C1974.33,1830.535,1973.753,1830.598,1973.35,1830.284z"/>
	</g>
	<g>
		<path style="fill:#411AC0;" d="M1586.862,1970.694c-37.878-12.903-87.092-71.453-93.046-78.663
			c-0.332-0.401-0.266-0.989,0.139-1.316l0,0c0.399-0.323,0.978-0.271,1.304,0.124c5.88,7.121,54.804,65.352,92.208,78.085
			c0.483,0.165,0.742,0.678,0.585,1.163v0.001C1587.891,1970.585,1587.356,1970.862,1586.862,1970.694z"/>
	</g>
	<g>
		<path style="fill:#411AC0;" d="M2628.268,2041.372L2628.268,2041.372c-0.468-0.215-0.668-0.768-0.456-1.235
			c30.515-67.422-14.711-114.232-20.762-120.063c-0.361-0.349-0.383-0.915-0.051-1.291l0,0c0.354-0.4,0.968-0.423,1.353-0.052
			c6.361,6.141,52.144,53.73,21.166,122.174C2629.304,2041.378,2628.739,2041.589,2628.268,2041.372z"/>
	</g>
	<g>
		<path style="fill:#411AC0;" d="M2589.672,1970.102L2589.672,1970.102c-0.513,0-0.925-0.414-0.928-0.927
			c-0.417-58.158-39.852-105.489-45.217-111.656c-0.334-0.384-0.295-0.955,0.079-1.298l0.001-0.001
			c0.388-0.355,0.987-0.327,1.332,0.07c5.519,6.351,45.251,54.13,45.676,112.863
			C2590.619,1969.675,2590.193,1970.102,2589.672,1970.102z"/>
	</g>
</g>
<g>
	<ellipse style="fill:#5CA9FF;" cx="934.647" cy="1474.895" rx="477.936" ry="34.289"/>
	<path style="fill:#E55151;" d="M748.549,875.105l20.551-32.349c3.473-5.467,8.623-9.662,14.679-11.958l65.417-24.805v23.35
		c0,0-47.731,18.003-53.845,24.117c-6.114,6.114-28.39,42.523-28.39,42.523L748.549,875.105z"/>
	<g>
		<path style="fill:#241145;" d="M825.333,589.435c-50.896-31.919-169.354-89.496-170.544-90.075
			c-2.511-1.215-5.414,0.106-6.488,2.96c-1.072,2.853,0.095,6.154,2.605,7.372c1.186,0.576,119.185,57.929,169.65,89.578
			c11.568,7.254,18.754,21.046,18.754,35.994v210.653c3.418,1.405,6.5,3.961,9.886,7.988V635.263
			C849.196,616.225,840.052,598.664,825.333,589.435z"/>
	</g>
	<path style="fill:#63142C;" d="M858.664,908.233h-18.935c-7.342,0-13.294-5.952-13.294-13.294V757.062
		c0-7.342,5.952-13.294,13.294-13.294h18.935c7.342,0,13.293,5.952,13.293,13.294v137.878
		C871.957,902.281,866.005,908.233,858.664,908.233z"/>
	<path style="fill:#42210B;" d="M780.979,1116.386c0,0,166.595-27.409,199.642,4.228c13.836,13.246-43.145,258.154-29.568,269.678
		c13.576,11.524,56.659,22.41,56.659,22.41H912.98l13.348-38.228c0,0-0.985-146.322-0.985-177.959s8.607-42.956,8.607-42.956
		l-152.971,25.819V1116.386z"/>
	<path style="fill:#42210B;" d="M804.047,1130.604c0.988-0.989,5.976-26.68,5.976-26.68l-63.565-33.346
		c-4.894,14.68-14.301,50.987-18.232,71.724C736.05,1133.104,786.992,1129.242,804.047,1130.604z"/>
	<path style="fill:#29C1C1;" d="M773.877,863.416c0,0-23.516-25.355-39.146,4.864c-15.631,30.22,28.325,179.605-3.798,217.419
		l81.202,20.742c0,0,4.954-86.241,16.417-141.47C840.013,909.743,798.6,888.139,773.877,863.416z"/>
	<path style="fill:#25A5A2;" d="M828.551,964.971c8.898-42.872-14.066-65.482-36.352-85.018
		c9.654,16.034,22.554,42.521,17.824,63.463c-7.294,32.296,17.652,87.991-4.378,99.031c-22.03,11.04-52.21,2.738-42.589,12.358
		c9.621,9.62,30.096,5.758,25.032,10.822c-5.064,5.064-41.636-0.277-25.032,8.292c16.604,8.569,30.169,5.173,30.169,13.182
		c0,8.01-62.292-1.404-62.292-1.404l81.202,20.742C812.134,1106.441,817.088,1020.2,828.551,964.971z"/>
	<g>
		<rect x="572.435" y="430.759" style="fill:#432C47;" width="16.672" height="883.66"/>
	</g>
	<rect x="614.117" y="443.264" style="fill:#432C47;" width="87.532" height="144.845"/>
	<rect x="542.216" y="740.249" style="fill:#5C4A60;" width="89.095" height="89.095"/>
	<rect x="542.216" y="837.159" style="fill:#5C4A60;" width="89.095" height="89.095"/>
	<rect x="542.216" y="1021.081" style="fill:#5C4A60;" width="89.095" height="89.095"/>
	<rect x="536.224" y="1148.118" style="fill:#5C4A60;" width="89.096" height="315.662"/>
	<path style="fill:#443747;" d="M625.319,1148.118v315.662h-89.096c0,0,63.376-1.931,72.728-11.283
		C618.303,1443.146,625.319,1148.118,625.319,1148.118z"/>
	<rect x="506.786" y="1458.222" style="fill:#432C47;" width="150.056" height="16.673"/>
	<rect x="791.027" y="1458.222" style="fill:#432C47;" width="60.146" height="16.673"/>
	<rect x="817.889" y="1249.812" style="fill:#432C47;" width="19.228" height="225.083"/>
	<g>
		
			<rect x="607.053" y="419.248" transform="matrix(0.5046 -0.8634 0.8634 0.5046 -77.3829 750.1123)" style="fill:#432C47;" width="15.691" height="46.468"/>
	</g>
	<g>
		<path style="fill:#4C1E48;" d="M725.383,725.531c10.7,9.516,7.149,31.459,10.523,56.301c7.399,54.476-49.353,55.708-49.353,55.708
			l-3.662-11.004c0,0,19.651-7.849,16.774-16.495c0,0-16.115,9.291-31.309,8.235c-15.193-1.056-19.505-19.264-19.505-19.264
			s18.854,12.06,32.087,4.601c13.233-7.459,11.38-19.065,11.38-19.065s-9.675,15.005-21.202,15.785
			c-11.526,0.78-15.824-6.521-15.824-6.521s22.303-0.247,24.639-12.905c2.336-12.658,10.059-31.537,16.783-44.966
			C703.438,722.514,719.685,720.464,725.383,725.531z"/>
		<path style="fill:#FC7575;" d="M734.017,787.993c0,0,10.422,57.95,7.034,74.899c-2.198,10.997,17.634,12.779,24.992,12.08
			c5.532-0.526,9.26-5.928,8.238-11.556c-2.653-14.607-7.052-42.604-4.391-55.12C773.579,790.956,734.017,787.993,734.017,787.993z"
			/>
		<path style="fill:#FD5E5A;" d="M771.958,849.451c-1.897-12.597-4.053-29.194-1.971-41.668
			c2.771-16.672-34.997-19.714-35.95-19.788c-0.005,0.011-0.01,0.021-0.014,0.032c0.118,0.656,19.131,41.047,25.663,48.801
			C764.303,842.309,768.375,846.417,771.958,849.451z"/>
		<g>
			<path style="fill:#FC7575;" d="M728.624,756.049c1.714-5.829,8.491-14.054,17.35-19.414c19.143-11.585,42.92,2.897,45.393,27.147
				c0.225,2.208,0.237,4.391-0.053,6.459c-1.519,10.831,4.715,17.804,6.991,19.95c0.524,0.495,0.689,1.273,0.37,1.919
				c-0.476,0.964-1.432,2.227-3.273,2.703c-3.142,0.813-4.123,2.378-3.136,4.45c0.986,2.073,3.367,2.473,2.543,4.044
				c-0.823,1.57-3.955,2.089-3.955,2.089s2.171,3.221,1.289,4.904c-0.883,1.683-2.16,1.528-2.16,1.528s-2.833,1.315-2.284,3.403
				c0.549,2.088-0.768,4.427-1.84,6.101c-1.505,2.349-10.895,13.419-34.23-8.715C728.295,790.484,724.744,769.247,728.624,756.049z"
				/>
		</g>
		<path style="fill:#422549;" d="M790.677,767.396c0,0-9.663-1.626-15.982,8.348c0,0,8.043-6.93,14.915-6.296L790.677,767.396z"/>
		<path style="fill:#18287D;" d="M787.795,776.141c0,0,0.312,3.344-1.063,4.35c-1.375,1.005-2.469,0.496-2.469,0.496
			L787.795,776.141z"/>
		<path style="fill:#0F1D5B;" d="M779.63,776.495c0,0,6.092-0.466,10.129,0.294c4.038,0.761,5.592-0.277,5.592-0.277
			s-4.497-0.075-8.155-1.017C783.539,774.553,779.63,776.495,779.63,776.495z"/>
		<path style="fill:#5C2C55;" d="M748.568,722.415c-23.849,1.325-32.1,21.457-33.117,42.133
			c-1.001,20.365,22.087,36.371,23.377,33.467c0,0,8.499-23.82,17.404-23.984c8.905-0.164,32.967-19.67,32.967-19.67
			c-0.238-0.497-2.233-6.82-3.441-10.409c-0.921-2.737,0.154-4.808-2.121-7.209C775.893,728.569,762.772,721.626,748.568,722.415z"
			/>
		<path style="fill:#2ADCDF;" d="M746.574,761.685c-5.859,5.948-16.114,21.564-20.258,27.904c-1.158,1.772,0.292,3.904,1.915,5.261
			c6.143,5.136,9.995,4.52,10.597,3.164c0,0,9.07-20.375,16.33-25.536c7.277-5.173,28.532-14.227,34.671-16.269
			c2.36-0.786-4.401-20.46-6.191-19.466C775.297,741.375,757.368,750.727,746.574,761.685z"/>
		<path style="fill:#FC7575;" d="M756.232,774.031c0,0,4.226-6.758-5.076-9.461c-9.303-2.703-9.717,12.995-4.582,17.652
			C751.708,786.879,756.232,774.031,756.232,774.031z"/>
		<path style="fill:#FD5E5A;" d="M753.24,774.898c0,0,2.838-7.592-1.356-7.18c-4.194,0.413-7.273,8.581-4.237,10.369
			C750.683,779.875,753.24,774.898,753.24,774.898z"/>
	</g>
	<linearGradient id="SVGID_1_" gradientUnits="userSpaceOnUse" x1="554.7202" y1="430.7588" x2="606.8227" y2="430.7588">
		<stop  offset="0" style="stop-color:#A9A5DE"/>
		<stop  offset="1" style="stop-color:#BDB9F2"/>
	</linearGradient>
	<circle style="fill:url(#SVGID_1_);" cx="580.771" cy="430.759" r="26.051"/>
	
		<ellipse transform="matrix(0.7071 -0.7071 0.7071 0.7071 -134.4884 536.8337)" style="fill:#432C47;" cx="580.771" cy="430.759" rx="14.373" ry="14.373"/>
	<path style="fill:#4F3554;" d="M1031.03,1440.15c0-10.746-1.091-223.516-7.637-246.082c-2.166-7.465-17.608-12.593-23.713-15.394
		c-50.762-23.284-167.454-57.423-200.764-65.059c-9.325-2.138-22.189-7.159-31.955-5.41c-19.071,3.416-34.738,14.655-38.734,34.097
		c-3.908,19.013-7.369,51.816,7.124,66.091c29.343,28.904,220.404,1.793,241.132,10.39c20.728,8.597-1.067,11.333-1.067,72.585
		s38.16,144.483,38.16,158.453s0,19.37,0,23.641c0,4.594,85.094,0,85.094,0S1031.03,1450.896,1031.03,1440.15z"/>
	<path style="fill:#725D76;" d="M1023.393,1194.068c-2.82-7.463-17.388-12.005-28.806-16.569
		c-38.831-16.275-121.321-41.389-161.689-53.367c-53.999-15.844-59.113-16.855-65.938-15.926
		c22.978-4.666,220.46,56.01,251.219,79.2C1020.431,1189.133,1022.572,1191.309,1023.393,1194.068z"/>
	<g>
		<rect x="639.516" y="526.21" style="fill:#432C47;" width="16.672" height="682.196"/>
	</g>
	<rect x="639.929" y="1070.579" style="fill:#432C47;" width="16.912" height="404.316"/>
	<path style="fill:#821B36;" d="M656.841,1070.579c0,0,18.757-4.168,23.967,12.505c5.21,16.673,6.513,114.539,15.631,123.656
		c9.118,9.118,108.29,3.383,120.836,7.336c12.546,3.954,11.504,27.92,11.504,27.92l-175.933,2.084L656.841,1070.579z"/>
	<rect x="648.852" y="1239.391" style="fill:#432C47;" width="188.264" height="24.352"/>
	<path style="fill:#37283A;" d="M590.907,1185.31c0,5.597-4.538,10.135-10.135,10.135c-5.598,0-10.135-4.538-10.135-10.135
		c0-5.598,4.538-10.135,10.135-10.135C586.369,1175.175,590.907,1179.712,590.907,1185.31z"/>
	<path style="fill:#37283A;" d="M593.872,1091.387c0,5.598-4.538,10.135-10.135,10.135c-5.597,0-10.135-4.538-10.135-10.135
		c0-5.597,4.538-10.135,10.135-10.135C589.335,1081.252,593.872,1085.79,593.872,1091.387z"/>
	<path style="fill:#37283A;" d="M593.872,1042.448c0,5.598-4.538,10.135-10.135,10.135c-5.597,0-10.135-4.538-10.135-10.135
		s4.538-10.135,10.135-10.135C589.335,1032.313,593.872,1036.851,593.872,1042.448z"/>
	
		<ellipse transform="matrix(0.2308 -0.973 0.973 0.2308 -756.5873 1516.4415)" style="fill:#37283A;" cx="580.771" cy="1236.72" rx="10.135" ry="10.135"/>
	
		<ellipse transform="matrix(0.7071 -0.7071 0.7071 0.7071 -740.7421 787.9522)" style="fill:#37283A;" cx="580.771" cy="1288.131" rx="10.135" ry="10.135"/>
	<path style="fill:#37283A;" d="M590.907,1339.541c0,5.598-4.538,10.135-10.135,10.135c-5.598,0-10.135-4.538-10.135-10.135
		c0-5.597,4.538-10.135,10.135-10.135C586.369,1329.406,590.907,1333.944,590.907,1339.541z"/>
	
		<ellipse transform="matrix(0.7071 -0.7071 0.7071 0.7071 -813.4473 818.0677)" style="fill:#37283A;" cx="580.771" cy="1390.952" rx="10.135" ry="10.135"/>
	
		<ellipse transform="matrix(0.2298 -0.9732 0.9732 0.2298 -956.4395 1676.2117)" style="fill:#37283A;" cx="580.771" cy="1442.362" rx="10.135" ry="10.135"/>
	<polygon style="fill:#37283A;" points="542.216,1062.221 621.31,1062.221 542.216,1070.116 	"/>
	<path style="fill:#37283A;" d="M631.311,865.642c-3.081,0-68.332,0-68.332,0l68.332,6.947V865.642z"/>
	<polygon style="fill:#37283A;" points="542.216,896.952 618.343,896.952 542.216,903.047 	"/>
	<polygon style="fill:#37283A;" points="631.311,769.835 562.979,769.835 631.311,777.487 	"/>
	<polygon style="fill:#37283A;" points="542.216,798.743 626.088,801.125 542.216,805.993 	"/>
	<path style="fill:#FD5E5A;" d="M786.044,794.788c4.597,5.77,3.927,14.536-4.407,19.279c2.643-3.208,6.572-6.596,5.706-14.059
		C787.109,798.268,786.704,796.509,786.044,794.788z"/>
	<path style="fill:#FC7575;" d="M744.154,870.523c0,0,35.341,10.764,54.684,35.49c6.052,7.737,9.589-11.156,4.033-16.712
		c-5.556-5.556-36.438-32.062-36.438-32.062L744.154,870.523z"/>
	<path style="fill:#FD5E5A;" d="M748.475,878.611c-3.108-0.353-6.259,0.253-9.004,1.752c-12.138,6.631-48.816,28.006-44.603,42.015
		c5.04,16.755,47.79,6.973,63.243,0C772.774,915.761,778.643,882.039,748.475,878.611z"/>
	<path style="fill:#961741;" d="M894.922,993.509h-23.234c-12.422,0-22.492-10.07-22.492-22.492V836.56
		c0-12.422,10.07-22.492,22.492-22.492h23.234c12.422,0,22.492,10.07,22.492,22.492v134.457
		C917.414,983.439,907.344,993.509,894.922,993.509z"/>
	<path style="fill:#B22B5F;" d="M894.922,814.067h-23.234c-6.665,0-12.651,2.9-16.77,7.505c8.391-4.905,14.624-2.349,34.566-3.061
		c12.422,0,22.492,10.07,22.492,22.492v134.458c0,5.757-2.164,11.008-5.722,14.986c6.675-3.901,11.159-11.142,11.159-19.431V836.56
		C917.414,824.137,907.344,814.067,894.922,814.067z"/>
	<g>
		<path style="fill:#FD5E5A;" d="M885.035,881.461c0,0,5.211-0.563,5.767,0.33c0.556,0.892-5.041,8.728-5.242,8.929
			C885.359,890.92,885.035,881.461,885.035,881.461z"/>
		<path style="fill:#2B1854;" d="M883.305,964.919c-2.184,0-3.955-1.771-3.955-3.955v-397.68c0-33.068-26.902-59.971-59.97-59.971
			H654.789c-2.184,0-3.955-1.77-3.955-3.954c0-2.184,1.771-3.955,3.955-3.955H819.38c37.429,0,67.88,30.452,67.88,67.88v397.68
			C887.26,963.148,885.489,964.919,883.305,964.919z"/>
	</g>
	<path style="fill:#5C4A60;" d="M672.236,501.334c0,7.927-6.426,14.353-14.353,14.353c-7.927,0-14.353-6.426-14.353-14.353
		c0-7.927,6.426-14.353,14.353-14.353C665.81,486.981,672.236,493.406,672.236,501.334z"/>
	<path style="fill:#FC7575;" d="M890.802,881.791l-6.262,4.202l-5.19,1.505v-7.19c-8.426,3.447-8.834,9.75-19.279,12.779
		c-15.985-1.189-113.647-7.43-151.38,14.365c-41.154,23.772,17.961,33.302,65.437,23.099c47.475-10.202,85.782-18.841,85.943-18.711
		c0,0,24.593,1.217,27.188-1.378c2.403-2.403,2.042-6.608,2.042-14.478C889.301,892.171,893.274,884.262,890.802,881.791z"/>
	<g>
		<path style="fill:#FD5E5A;" d="M1226.583,712.444c16.341-16.34,9.582-60.108,9.582-60.108s-4.156-3.803-13.111-4.832
			c-6.778-0.779-16.359,0.148-28.655,4.832c-28.542,10.874-86.734,82.832-95.141,91.239c-8.407,8.407,75.987,123.376,75.987,123.376
			l3.399,4.164c-3.14-0.421-6.822-0.583-7.457,0.836c-0.777,1.737,6.949,3.632,11.946,4.663l1.625,1.99l-4.857,0.653
			c0,0-9.854-2.208-9.854,1.02c0,3.228,20.168,5.012,20.168,5.012l5.316-39.5l-18.121-2.319c0,0-36.402-74.136-31.792-86.082
			C1150.225,745.438,1210.243,728.784,1226.583,712.444z"/>
		<path style="fill:#6E1D6B;" d="M1263.074,923.699l-9.595,127.617c0,0-33.269,168.855-33.269,185.803
			s-11.927,223.467-11.927,223.467l3.139,15.065l-0.628,8.16c0,0-21.97-3.766-40.173,0c-18.204,3.767-23.854,0-23.854,0
			l44.568-18.831l-8.788-251.714l15.615-299.53L1263.074,923.699z"/>
		<path style="fill:#93278F;" d="M1313.739,923.261c0-0.908,0.266-3.173,0.729-6.431c-41.07-0.891-39.914-5.654-82.084-1.26
			c2.033,39.83,0.354,87.199,0.354,87.199s15.476,38.778,20.741,48.546c6.255,11.604,64.655,156.929,64.655,156.929
			s62.143,229.744,57.121,246.064c-5.022,16.321-16.948,45.195-16.948,45.195l34.524-6.905v-15.065l-32.641-291.887
			C1360.19,1185.646,1313.739,934.56,1313.739,923.261z"/>
		<path style="fill:#5C2C55;" d="M1305.654,503.32c0.549-12.912,21.33-20.268,30.97-3.453l-3.002,2.274
			C1325.404,489.091,1309.657,492.453,1305.654,503.32z"/>
		<path style="fill:#C5C6FC;" d="M1322.951,929.375c-17.297-83.419,34.331-268.667,31.929-269.816
			c-18.256-8.735-36.176-20.194-73.369-20.194c-29.335,0-58.458,8.139-58.458,8.139s-51.867,46.583-51.867,89.895
			c0,24.517,10.18,117.812,13.753,187.841C1227.109,920.845,1281.882,928.483,1322.951,929.375z"/>
		<path style="fill:#FC7575;" d="M1306.475,641.358l-13.45-68.832l-29.189,16.713c0,0-9.327,39.092-15.536,50.844
			C1237.55,660.431,1241.913,722.032,1306.475,641.358z"/>
		<path style="fill:#FD5E5A;" d="M1254.45,623.736c13.654-0.923,40.723-20.05,41.442-36.535l-2.868-14.675l-29.189,16.713
			C1263.835,589.239,1259.301,608.245,1254.45,623.736z"/>
		<path style="fill:#FC7575;" d="M1262.266,497.043c0,0-24.48,10.362-24.48,30.76c0,20.398-9.73,71.244,0,80.973
			c9.729,9.729,42.735,4.206,57.461-20.809c14.726-25.015,12.294-76.879,7.664-81.509
			C1298.281,501.829,1271.368,487.941,1262.266,497.043z"/>
		<path style="fill:#5C2C55;" d="M1280.156,504.576v1.883c0,0-5.964,25.108-28.875,29.189c-22.912,4.08-25.736-7.844-25.736-7.844
			s-23.853,10.042-25.736-13.812c-1.883-23.853,18.517-29.188,18.517-29.188s-6.905,16.32,1.883,14.438
			c8.788-1.883,0.728-15.693,10.093-18.832c9.366-3.139,17.995,1.883,17.995,1.883s14.596-1.256,24.953-6.905
			c10.357-5.649,30.981-0.941,33.223,7.847c2.241,8.78,2.869,14.74,2.87,14.751c-0.181-1.717,6.294,0.447,6.594,0.611
			c20.336,11.108,5.287,42.702-4.703,63.512c-2.945,6.134-6.1,12.2-9.696,17.981c-1.721,2.767-3.621,5.106-5.701,6.842
			c0,0,10.681-28.371,7.072-38.101c-3.609-9.73-8.003,0.627-9.886-9.416c-1.883-10.044,5.963-11.299,5.963-19.459
			C1298.988,511.794,1280.156,504.576,1280.156,504.576z"/>
		<path style="fill:#FC7575;" d="M1293.809,549.614c0,0,8.788-15.065,14.124-9.729c5.335,5.335-4.237,35.622-9.573,32.641
			C1293.024,569.544,1293.809,549.614,1293.809,549.614z"/>
		<path style="fill:#FFFFFF;" d="M1237.55,582.051c0,0,9.779,6.64,23.246,3.872c0,0-7.449,8.543-13.06,8.563
			C1242.125,594.506,1237.55,582.051,1237.55,582.051z"/>
		<path style="fill:#FD5E5A;" d="M1297.078,551.184c0,0,6.591-8.945,8.317-4.081c1.726,4.865-5.649,24.01-8.317,21.342
			C1294.41,565.778,1297.078,551.184,1297.078,551.184z"/>
		<path style="fill:#2846A6;" d="M1245.506,559.407c-2.712,5.447-2.955,7.246-3.698,12.273c0.76,0.098,1.795,0.387,7.365,0.845
			c-1.972-0.682-3.949-1.343-5.949-1.891c0.739-3.687,7.164-19.202,9.465-20.863
			C1249.973,550.922,1246.767,556.763,1245.506,559.407z"/>
		<path style="fill:#2846A6;" d="M1269.968,550.695c0,2.784-1.586,5.041-3.543,5.041c-1.957,0-3.543-2.257-3.543-5.041
			s1.586-5.041,3.543-5.041C1268.382,545.654,1269.968,547.911,1269.968,550.695z"/>
		<path style="fill:#2846A6;" d="M1244.636,550.695c0,2.784-1.586,5.041-3.543,5.041c-1.957,0-3.543-2.257-3.543-5.041
			s1.586-5.041,3.543-5.041C1243.049,545.654,1244.636,547.911,1244.636,550.695z"/>
		<path style="fill:#2846A6;" d="M1264.437,535.804c0,0,9.236-1.793,13.967,2.937c4.73,4.73,2.981,7.735,1.726,7.735
			c-1.255,0-1.592-8.201-6.277-7.735C1260.796,540.042,1260.606,536.137,1264.437,535.804z"/>
		<path style="fill:#FD5E5A;" d="M1322.441,916.268c0,0,16.99,2.063,16.99-2.014c0-4.078-14.951-1.359-16.65-6.117l-1.019,14.777
			c0,0,17.676,1.87,19.712-0.166C1343.511,920.712,1322.441,916.268,1322.441,916.268z"/>
		<path style="fill:#FC7575;" d="M1321.139,650.843c-18.645-0.818-44.5,23.458-25.246,62.256
			c14.144,28.501,117.273,67.703,117.273,67.703s-105.069,115.015-110.255,120.2c0,0-4.424,7.306-1.196,10.533
			c3.228,3.228,2.718,10.534,4.078,10.534c1.359,0,0.17,0.85,2.718,3.398c2.548,2.548,32.965,6.795,32.965,3.908
			c0-1.095-2.831-2.288-6.348-3.347c-7.784-2.345-12.905-9.78-12.346-17.89v0c-1.699-4.757,119.266-88.685,128.78-102.956
			c9.514-14.271,12.912-24.379,12.912-24.379S1400.253,654.315,1321.139,650.843z"/>
	</g>
	<g>
		<path style="fill:#411AC0;" d="M700.375,984.549c-25.684-47.609-21.603-94.017-20.776-101.192c0.06-0.525,0.544-0.89,1.067-0.812
			l0,0c0.5,0.074,0.85,0.525,0.792,1.027c-0.802,6.924-4.896,52.899,20.569,100.094c0.244,0.452,0.082,1.016-0.369,1.262
			l-0.002,0.001C701.2,985.179,700.622,985.007,700.375,984.549z"/>
	</g>
	<g>
		<path style="fill:#411AC0;" d="M929.806,1002.746L929.806,1002.746c-0.36-0.36-0.36-0.933-0.01-1.302
			c37.785-39.799,5.167-188.956,2.225-201.977c-0.113-0.501,0.201-0.992,0.701-1.109l0.003-0.001
			c0.505-0.119,1.009,0.192,1.125,0.698c3.316,14.434,36.194,162.752-2.703,203.684
			C930.787,1003.119,930.177,1003.117,929.806,1002.746z"/>
	</g>
</g>
<g>
	<path style="fill:#5CA9FF;" d="M2561.508,1488.133c0,14.739-166.537,26.687-371.97,26.687c-205.434,0-371.97-11.948-371.97-26.687
		c0-14.738,166.536-26.687,371.97-26.687C2394.971,1461.447,2561.508,1473.395,2561.508,1488.133z"/>
	<path style="fill:#42210B;" d="M2354.104,1120.545c0,0,14.417,7.963,65.548,17.151c63.154,11.349,137.719,35.682,146.351,57.988
		c6.664,17.223-48.875,271.757-48.875,271.757l56.345,27.983h-85.644c0,0,1.906-143.843,9.379-213.851
		c2.096-19.631,10.78-37.714,24.428-50.771l0,0c0,0-136.354-23.583-163.963-46.554
		C2333.391,1164.046,2354.104,1120.545,2354.104,1120.545z"/>
	<path style="fill:#4F3554;" d="M2370.105,1077.126c-12.996,26.891-26.996,51.318-34.512,56.257
		c25.058,32.784,38.044,85.39,38.795,93.841c30.989-6.198,36.455-12.921,44.778-46.695c2.774-11.258,8.006-49.258,11.754-59.598
		C2413.302,1108.463,2370.567,1076.169,2370.105,1077.126z"/>
	<g>
		<path style="fill:#4C1E48;" d="M2353.293,732.451c12.196,10.847,8.148,35.857,11.995,64.173
			c8.434,62.092-56.253,63.498-56.253,63.498l-4.174-12.543c0,0,22.398-8.945,19.119-18.8c0,0-18.368,10.59-35.686,9.386
			c-17.317-1.204-22.232-21.958-22.232-21.958s21.49,13.747,36.573,5.245c15.083-8.502,12.971-21.73,12.971-21.73
			s-11.027,17.103-24.165,17.992c-13.139,0.889-18.037-7.433-18.037-7.433s25.421-0.281,28.084-14.709
			c2.662-14.428,11.465-35.946,19.129-51.253C2328.28,729.012,2346.799,726.675,2353.293,732.451z"/>
		<path style="fill:#FC7575;" d="M2369.46,807.164c0,0-8.081,64.842,3.956,84.117c6.771,10.842,17.836,12.303,26.223,11.505
			c6.305-0.6,10.556-6.757,9.391-13.171c-3.024-16.649-8.039-48.56-5.005-62.827C2408.229,807.023,2369.46,807.164,2369.46,807.164z
			"/>
		<path style="fill:#FD5E5A;" d="M2369.46,807.163c0,0-0.736,5.911-1.434,14.692c5.412,11.688,13.307,24.324,24.366,37.453
			c5.263,6.248,9.903,10.931,13.987,14.388c-2.475-16.469-4.582-36.439-2.355-46.909
			C2408.229,807.023,2369.46,807.163,2369.46,807.163z"/>
		<g>
			<path style="fill:#FC7575;" d="M2356.988,767.236c1.953-6.644,9.678-16.018,19.775-22.129
				c21.82-13.204,48.921,3.302,51.739,30.943c0.257,2.517,0.271,5.005-0.061,7.362c-2.108,15.032,8.885,23.544,8.885,23.544
				s-0.644,3.538-4.226,4.464c-3.581,0.926-3.213,2.71-2.088,5.072c1.124,2.363,2.352,2.819,1.412,4.609
				c-0.938,1.79-4.507,2.381-4.507,2.381s2.476,3.671,1.47,5.59c-1.006,1.918-2.461,1.741-2.461,1.741s-3.23,1.498-2.604,3.879
				c0.626,2.38-0.875,5.046-2.098,6.954c-1.715,2.678-12.417,15.294-39.016-9.934
				C2356.612,806.486,2352.565,782.279,2356.988,767.236z"/>
		</g>
		<path style="fill:#422549;" d="M2427.717,780.169c0,0-11.014-1.854-18.217,9.515c0,0,9.168-7.898,17-7.176L2427.717,780.169z"/>
		<path style="fill:#18287D;" d="M2424.432,790.137c0,0,0.355,3.812-1.212,4.958c-1.567,1.145-2.813,0.565-2.813,0.565
			L2424.432,790.137z"/>
		<path style="fill:#0F1D5B;" d="M2415.125,790.541c0,0,6.943-0.531,11.546,0.336c4.602,0.867,6.373-0.316,6.373-0.316
			s-5.126-0.086-9.295-1.16C2419.58,788.328,2415.125,790.541,2415.125,790.541z"/>
		<path style="fill:#0F1D5B;" d="M2419.633,819.75c2.313,2.075,5.258,3.383,8.286,3.732c-3.081-0.016-6.21-0.937-8.999-2.974
			c-0.236-0.172-0.294-0.505-0.131-0.744c0.164-0.238,0.487-0.292,0.723-0.12c0.015,0.01,0.028,0.021,0.042,0.033L2419.633,819.75z"
			/>
		<path style="fill:#5C2C55;" d="M2379.72,728.899c-27.184,1.51-31.907,25.528-37.746,48.024
			c-5.839,22.495,25.174,41.456,26.645,38.146c0,0,9.688-27.15,19.838-27.338c10.15-0.187,37.576-22.42,37.576-22.42
			c-0.271-0.566-2.546-7.773-3.922-11.864c-1.05-3.12,0.176-5.48-2.417-8.217C2410.865,735.914,2395.91,728,2379.72,728.899z"/>
		<path style="fill:#2ADCDF;" d="M2377.447,773.66c-6.678,6.78-18.368,24.579-23.091,31.806c-1.319,2.019,0.334,4.449,2.184,5.997
			c7.002,5.854,11.393,5.151,12.078,3.607c0,0,10.339-23.225,18.613-29.106c8.294-5.897,32.521-16.216,39.519-18.545
			c2.689-0.895-5.018-23.32-7.057-22.188C2410.186,750.511,2389.75,761.169,2377.447,773.66z"/>
		<path style="fill:#FC7575;" d="M2388.456,787.731c0,0,4.816-7.703-5.787-10.783c-10.603-3.081-11.074,14.812-5.222,20.12
			C2383.3,802.377,2388.456,787.731,2388.456,787.731z"/>
		<path style="fill:#FD5E5A;" d="M2385.045,788.72c0,0,3.235-8.654-1.545-8.184c-4.78,0.471-8.29,9.78-4.83,11.819
			C2382.131,794.393,2385.045,788.72,2385.045,788.72z"/>
	</g>
	<g>
		<path style="fill:#544059;" d="M2293.256,1125.216C2294.268,1124.752,2292.262,1125.63,2293.256,1125.216L2293.256,1125.216z"/>
		<path style="fill:#544059;" d="M2420.525,1158.072c-3.555-37.948-21.7-67.381-56.36-67.381c-24.082,0-59.737,40.84-37.388,90.236
			l-25.261,135.439c-7.967-16.34-153.859-20.628-158.705-25.473c0,0-10.346-12.601-16.852-19.106l-49.071,39.202l63.481-3.005
			c0,0,168.303,99.952,200.211,45.415C2361.375,1317.86,2425.309,1209.113,2420.525,1158.072z"/>
		<path style="fill:#29C1C1;" d="M2411.951,878.638c-12.274-11.817-38.464-20.671-57.489,9.646
			c-13.981,22.279,10.93,84.091,11.585,149.434c0.194,19.416,0,28.172-12.985,49.771c5.919,6.325,17.691,9.735,24.72,13.795
			c17.89,10.525,38.242,21.117,55.862,31.559c25.889-70.739,23.76-138.508,23.76-150.731
			C2457.403,950.848,2411.951,878.638,2411.951,878.638z"/>
	</g>
	<g>
		<rect x="2060.205" y="1316.366" style="fill:#432C47;" width="20.868" height="158.382"/>
		<rect x="2040.239" y="1330.453" style="fill:#5C4A60;" width="60.963" height="18.193"/>
		<rect x="1949.069" y="1474.748" style="fill:#432C47;" width="243.302" height="16.859"/>
		<path style="fill:#241145;" d="M2190.022,1494.712h-30.652v-26.002h30.652c4.665,0,8.446,3.781,8.446,8.446v9.111
			C2198.469,1490.931,2194.688,1494.712,2190.022,1494.712z"/>
		<path style="fill:#241145;" d="M1954.987,1494.712h30.652v-26.002h-30.652c-4.665,0-8.446,3.781-8.446,8.446v9.111
			C1946.542,1490.931,1950.323,1494.712,1954.987,1494.712z"/>
		<path style="fill:#821B36;" d="M2149.708,1334.922H1991.57c-6.989,0-12.655-5.666-12.655-12.655v-1.627
			c0-6.989,5.666-12.655,12.655-12.655h158.138c6.989,0,12.655,5.666,12.655,12.655v1.627
			C2162.363,1329.256,2156.697,1334.922,2149.708,1334.922z"/>
	</g>
	<g>
		<path style="fill:#C0B4FE;" d="M2339.194,1194.816c-1.988,0-3.601,14.509-3.601,32.408s1.612,32.408,3.601,32.408h23.046v-64.815
			H2339.194z"/>
		<path style="fill:#381A3F;" d="M2365.841,1227.224c0,17.898-1.612,32.408-3.601,32.408c-1.989,0-3.602-14.51-3.602-32.408
			c0-17.898,1.612-32.408,3.602-32.408C2364.229,1194.816,2365.841,1209.326,2365.841,1227.224z"/>
		<path style="fill:#381A3F;" d="M2362.24,1220.982v0.014c-1.227,0.21-2.197,2.917-2.197,6.227s0.971,6.018,2.197,6.227v0.015
			h80.659v-12.483H2362.24z"/>
		<path style="fill:#C0B4FE;" d="M2435.217,1194.816c-1.988,0-3.601,14.509-3.601,32.408s1.612,32.408,3.601,32.408h23.046v-64.815
			H2435.217z"/>
		<path style="fill:#381A3F;" d="M2461.863,1227.224c0,17.898-1.611,32.408-3.601,32.408c-1.988,0-3.601-14.51-3.601-32.408
			c0-17.898,1.612-32.408,3.601-32.408C2460.252,1194.816,2461.863,1209.326,2461.863,1227.224z"/>
	</g>
	<path style="fill:#FF8888;" d="M2374.389,872.384c0,0,34.558-12.763,40.711,30.897c2.767,19.629-7.655,112.372-7.655,132.892
		c0,20.52,0.967,155.521,7.655,161.791c6.688,6.27,9.272,38.474,3.116,44.245s-10.96,0.214-17.102,0.214
		c-5.143,0-12.466,1.325-15.491,1.325s-7.768-33.814-2.295-46.212c5.473-12.397-13.226-96.185-10.945-138.079
		C2374.663,1017.563,2349.198,878.456,2374.389,872.384z"/>
	<path style="fill:#FFA0A0;" d="M2374.389,872.383c9.201-3.509,20.408-3.144,28.517,2.971c8.091,6.049,11.899,16.25,13.686,26.225
		c3.32,19.64-4.116,91.42-6.492,117.154c-1.951,22.077-1.185,32.919-2.293,58.373c-4.063-66.326,0.105-62.182,5.048-146.144
		c1.088-18.423,3.006-41.854-11.313-53.887c-3.526-3.064-8.036-4.99-12.774-5.647
		C2384.028,870.793,2379.094,871.104,2374.389,872.383z"/>
	<g>
		<path style="fill:#411AC0;" d="M2274.053,1286.617L2274.053,1286.617c-0.475-0.18-0.722-0.698-0.556-1.176
			c1.804-5.188,10.996-33.609,10.996-73.522c0-41.295,18.963-90.836,21.798-98.01c0.192-0.485,0.742-0.719,1.225-0.521l0.002,0.001
			c0.474,0.194,0.703,0.733,0.515,1.21c-2.799,7.078-21.667,56.344-21.667,97.32c0,40.142-9.245,68.793-11.1,74.136
			C2275.093,1286.552,2274.546,1286.803,2274.053,1286.617z"/>
	</g>
	<g>
		<path style="fill:#411AC0;" d="M2316.055,1400.582L2316.055,1400.582c0-0.514,0.421-0.929,0.936-0.932
			c29.436-0.141,49.443-6.977,59.479-20.323c9.117-12.126,6.867-26.044,6.094-29.574c-0.105-0.482,0.181-0.958,0.655-1.095
			l0.007-0.002c0.518-0.149,1.052,0.16,1.172,0.685c0.869,3.829,3.248,18.235-6.433,31.11
			c-10.405,13.838-30.911,20.925-60.961,21.071C2316.483,1401.525,2316.055,1401.102,2316.055,1400.582z"/>
	</g>
	<g>
		<path style="fill:#411AC0;" d="M2334.454,948.88c-7.859-31.542-1.155-71.406,0.047-77.981c0.094-0.515,0.591-0.85,1.104-0.747l0,0
			c0.5,0.101,0.828,0.582,0.736,1.083c-1.18,6.441-7.848,46-0.068,77.199c0.124,0.496-0.171,0.995-0.666,1.124l-0.001,0
			C2335.101,949.69,2334.58,949.387,2334.454,948.88z"/>
	</g>
</g>
<g>
	<path style="fill:#4C1E48;" d="M3536.731,2400.49c-23.584,15.668-33.313,36.014-31.001,71.195
		c5.067,77.145,97.839,67.447,97.839,67.447s-21.118-19.84-20.146-32.713c0,0,19.005,6.732,34.617-0.326
		c15.613-7.059,15.84-33.524,15.84-33.524s-16.852,23.443-32.417,18.147c-15.566-5.296-16.356-21.834-16.356-21.834
		s13.623,16.919,25.84,13.723c12.216-3.195,14.988-14.756,14.988-14.756s-23.341,7.907-28.752-8.52
		c-5.411-16.426-17.371-21.794-27.544-37.651C3559.468,2405.821,3545.232,2394.844,3536.731,2400.49z"/>
	<path style="fill:#FD5E5A;" d="M3728.803,2165.204c0,0-7.04-4.07-14.818,4.948c-4.667,5.41-9.567,18.859-13.463,31.413
		c-10.39,33.476,4.905,108.797-5.195,118.897c-10.1,10.1-79.938,3.174-90.615-7.504s-8.369-14.718-8.369-25.396
		s-6.637-31.744-17.314-35.207s0,7.503,0,14.43c0,6.926-11.832,1.442-16.449,6.06c-4.618,4.617-19.913,37.805-13.564,44.153
		c6.35,6.35,41.268,4.906,50.503,14.141c9.234,9.235,106.487,49.926,143.427,30.879
		C3779.882,2342.972,3728.803,2165.204,3728.803,2165.204z"/>
	<path style="fill:#FC7575;" d="M3571.091,2269.672c0,0,0.288,9.667,7.358,16.737c7.071,7.07,4.617,11.255,0,11.255
		s-7.358-2.164-7.358-2.164s7.215,5.627,7.215,10.822c0,5.194-2.021,8.368-10.245,4.328c0,0,7.937,5.628,4.185,9.379
		c-3.751,3.752-17.182,6.205-24.751-3.03c-7.57-9.234-3.53-12.265-2.664-18.036c0.865-5.771-3.824-6.998,1.442-12.265
		s4.762-3.175,7.358-9.956C3556.229,2269.96,3566.329,2261.014,3571.091,2269.672z"/>
	<ellipse style="fill:#5CA9FF;" cx="3373.94" cy="2592.864" rx="559.818" ry="24.999"/>
	<g>
		<path style="fill:#E85252;" d="M3428,2484.184c1.23-11.992,12.283-20.525,24.248-19.046c15.46,1.912,40.167,5.373,92.918,24.161
			c16.523,5.885,16.633,9.593,15.229,14.778c0,0-30.708,77.476-39.293,84.981c-11.127,9.728-10.66,9.759-20.932,9.069
			s-26.268-6.921-34.205-7.453c-7.937-0.533-17.62,7.493-20.887,3.757s17.995-9.579,17.995-9.579s28.312-3.222,34.848-2.783
			s27.968-67.76,27.968-67.76c-7.188-8.22-46.252-11.113-91.573-11.113C3425.828,2503.196,3427.389,2490.142,3428,2484.184z"/>
		<path style="fill:#E85252;" d="M3489.854,2590.976c0,0-20.823-0.104-22.695,1.767c-1.871,1.872-13.57,3.51-10.061,7.02
			c3.51,3.509,16.052-4.394,16.052-4.394l18.95,1.487L3489.854,2590.976z"/>
		<path style="fill:#E85252;" d="M3445.399,2586.595c0,0,8.891-4.525,12.4-4.525c3.509,0,29.714,4.525,29.714,4.525l-17.878,2.639
			l-11.134-3.275C3458.502,2585.958,3449.462,2590.656,3445.399,2586.595z"/>
	</g>
	<path style="fill:#FD5E5A;" d="M3355.832,2587.688l5.281-2.86c0,0,11.954-1.632,13.436-3.113c1.482-1.482,3.275-5.147,4.992-3.432
		c1.715,1.716-0.96,7.401-2.964,9.405C3374.572,2589.693,3355.832,2587.688,3355.832,2587.688z"/>
	<path style="fill:#FD5E5A;" d="M3363.631,2587.096c0,0,21.057-3.743,25.034-3.743s17.548,4.58,17.548,7.954
		c0,3.375-15.551-5.021-15.551-3.618c0,1.404-22.82,3.618-22.82,3.618L3363.631,2587.096z"/>
	<path style="fill:#42210B;" d="M2811.917,2572.086l3.802,22.813l39.145-2.796l-13.574-3.052c-6.237-1.402-10.27-6.287-9.948-12.051
		l1.101-19.748l208.967-18.314l118.736-16.56l55.91-13.401l-58.85-67.112l-115.932,59.01c0,0-41.068-3.965-81.978,9.506
		s-133.596,40.646-133.596,40.646l-16.817-1.696L2811.917,2572.086z"/>
	<path style="fill:#5E4963;" d="M3241.463,2452.132c-12.7-6.109-59.223-32.669-72.492-32.669
		c-26.762,0-186.391,71.166-186.391,71.166c-0.178-0.034-56.242-20.619-91.883-12.189c-27.104,6.41-99.997,32.008-135.972,41.33
		l-23.734-0.625l8.873,78.012c0,0,19.588,1.333,21.436,1.333c10.724,0-7.252-4.719-7.252-4.719s-6.529-26.724,14.435-48.758
		c20.954-22.025,280.149-22.603,327.392-22.603c29.167,0,91.392,1.673,131.819-4.89
		C3226.51,2482.931,3219.214,2479.055,3241.463,2452.132z"/>
	<path style="fill:#29C1C1;" d="M3236.189,2436.602c20.338,21.246,34.652,18.918,51.637,18.918c21.216,0,49.162-8.367,87.422-13.166
		c31.835-3.993,89.018,1.732,103.961,23.357c3.125,4.521,0.003,32.713-17.001,43.266c-32.958,20.453-68.702,20.843-89.348,20.843
		c-20.645,0-70.218-7.948-98.044-7.948c-10.659,0-33.098-4.818-58.358-0.744C3215.268,2486.537,3213.802,2463.523,3236.189,2436.602
		z"/>
	<path style="fill:#FC7575;" d="M3392.628,2468.545c-15.339,2.716-29.749,4.075-83.9,18.336
		c-94.764,24.957,12.01,89.375,22.46,99.825c10.451,10.45,9.982,10.45,20.277,10.45s26.672-5.147,34.627-5.147
		c7.954,0,17.079,8.657,20.588,5.147c3.51-3.51-17.313-10.763-17.313-10.763s-20.941-1.398-27.492-1.398
		s-61.648-56.858-53.928-64.579s90.57,9.565,107.65-7.514C3421.6,2506.9,3429.078,2462.093,3392.628,2468.545z"/>
	<path style="fill:#FC7575;" d="M3353.103,2591.307c0,0-2.78,5.243,5.629,5.243s17.534,0,17.534,0l8.188,1.939
		c0,0,2.573,0.071,0-2.503c-2.574-2.573-12.634-4.68-12.634-4.68H3353.103z"/>
	<path style="fill:#FC7575;" d="M3454.658,2457.513c27.14,8.087,49.177-9.216,49.177-9.216l-4.407,37.666
		c0,0-25.513,2.261-38.679,15.426c-13.165,13.166-31.671,22.111-31.671,13.064S3435.248,2451.729,3454.658,2457.513z"/>
	<path style="fill:#FD5E5A;" d="M3488.495,2487.854c6.317-1.482,10.933-1.892,10.933-1.892l4.407-37.666
		c0,0-4.455,3.497-11.824,6.612c-1.928,7.586-3.183,16.228-3.496,25.993C3488.434,2483.391,3488.432,2485.704,3488.495,2487.854z"/>
	<g>
		<g>
			<path style="fill:#FC7575;" d="M3519.395,2412.761c5.725-3.054,17.06-4.039,27.771-1.297
				c23.145,5.926,29.89,34.875,13.259,54.895c-1.515,1.823-3.169,3.465-4.962,4.79c-11.434,8.453-9.913,21.387-9.913,21.387
				s-2.787,1.892-5.756,0.104c-2.97-1.787-3.921-0.37-4.763,1.932s-0.341,3.422-2.154,3.969c-1.813,0.547-4.55-1.451-4.55-1.451
				s-0.83,4.063-2.772,4.65c-1.942,0.586-2.779-0.503-2.779-0.503s-3.121-1.177-4.302,0.804c-1.182,1.98-3.948,2.726-6.026,3.16
				c-2.915,0.61-18.373,1.732-18.957-32.604C3492.906,2438.262,3506.436,2419.673,3519.395,2412.761z"/>
		</g>
		<path style="fill:#422549;" d="M3557.153,2468.535c0,0-5.986-8.58-18.313-5.937c0,0,11.296,0.947,15.952,6.658L3557.153,2468.535z
			"/>
		<path style="fill:#18287D;" d="M3548.334,2472.879c0,0-2.316,2.738-4.11,2.442s-2.224-1.511-2.224-1.511L3548.334,2472.879z"/>
		<path style="fill:#0F1D5B;" d="M3541.957,2466.921c0,0,4.912,4.295,7.352,7.94s4.393,4.054,4.393,4.054s-3.306-3.484-5.323-6.976
			S3541.957,2466.921,3541.957,2466.921z"/>
		<path style="fill:#5C2C55;" d="M3559.941,2402.807c-18.845-17.185-38.003-4.585-56.875,6.271
			c-18.871,10.855-11.2,44.031-8.022,42.843c0,0,24.509-11.336,31.294-4.673c6.784,6.664,39.645,10.414,39.645,10.414
			c0.2-0.553,3.526-6.802,5.358-10.406c1.397-2.748,3.78-3.478,3.908-7.008C3575.687,2428.232,3571.166,2413.041,3559.941,2402.807z
			"/>
		<path style="fill:#2ADCDF;" d="M3528.523,2430.654c-8.914-0.017-28.484,3.846-36.416,5.43c-2.215,0.442-2.756,3.143-2.576,5.395
			c0.68,8.521,4.03,10.996,5.513,10.441c0,0,22.312-8.324,31.673-6.652c9.385,1.677,32.18,11.104,38.327,14.255
			c2.364,1.212,12.301-18.654,10.205-19.275C3565.481,2437.355,3544.946,2430.686,3528.523,2430.654z"/>
		<path style="fill:#FC7575;" d="M3526.338,2447.247c0,0,8.311-1.833,3.413-10.943c-4.896-9.111-17.17,2.313-16.879,9.709
			S3526.338,2447.247,3526.338,2447.247z"/>
		<path style="fill:#FD5E5A;" d="M3523.439,2445.615c0,0,7.908-3.515,4.457-6.402s-11.979,0.874-11.07,4.525
			S3523.439,2445.615,3523.439,2445.615z"/>
	</g>
	<path style="fill:#6E1D6B;" d="M3867.589,2319.018c0,0-179.603,18.153-182.86,66.706c-1.068,15.938,63.524,188.146,63.524,188.146
		s-47.22,18.868-43.476,18.896c13.055,0.099,60.716,0.048,60.716,0.048s-1.817-18.138-1.474-23.273
		c0.345-5.136-23.217-164.046-23.217-164.046l170.204-6.65l9.091-79.586L3867.589,2319.018z"/>
	<path style="fill:#93278F;" d="M3879.082,2367.815l33.811-101.696l67.605,68.457l-65.152,193.173l177.073-6.993l-3.227,48.089
		l-27.201-1.825l9.887-7.549l4.884-21.846c-48.625,15.082-216.942,55.812-225.563,55.233
		C3797.597,2589.262,3879.082,2367.815,3879.082,2367.815z"/>
	<path style="fill:#5C2C55;" d="M3672.082,2018.544c-8.316-8.973,0.585-27.847,18.314-23.123l-0.472,3.534
		C3675.676,1995.784,3667.442,2008.611,3672.082,2018.544z"/>
	<path style="fill:#C5C6FC;" d="M3976.973,2305.695c-23.746-15.437-53.312-43.278-82.401-76.631
		c-53.737-61.613-83.103-140.064-84.644-139.514c-18.037,6.454-37.682,10.867-62.464,35.874
		c-19.546,19.724-33.479,44.728-33.479,44.728s-3.239,65.912,25.881,94.771c16.484,16.336,85.994,71.655,135.459,115.915
		C3900.469,2349.558,3949.008,2332.715,3976.973,2305.695z"/>
	<path style="fill:#FC7575;" d="M3765.438,2109.97l-55.242-36.821l-8.212,30.761c0,0,20.069,32.319,23.834,44.324
		C3732.336,2169.02,3776.661,2207.132,3765.438,2109.97z"/>
	<path style="fill:#FD5E5A;" d="M3718.926,2133.206c8.478-9.795,13.653-40.739,3.049-52.207l-11.778-7.851l-8.212,30.761
		C3701.984,2103.909,3711.742,2119.623,3718.926,2133.206z"/>
	<path style="fill:#FC7575;" d="M3638.951,2043.533c0,0-9.345,23.364,4.37,36.956s41.417,54.012,54.441,53.953
		c13.025-0.059,31.304-25.93,24.297-52.499c-7.006-26.568-43.498-59.491-49.695-59.464
		C3666.167,2022.508,3638.896,2031.349,3638.951,2043.533z"/>
	<path style="fill:#5C2C55;" d="M3655.937,2036.524l1.266,1.255c0,0,12.908,20.739,0.386,38.862
		c-12.523,18.123-22.423,12.077-22.423,12.077s-9.143,22.729-26.435,8.101c-17.293-14.628-7.287-31.899-7.287-31.899
		s6.372,15.518,10.962,8.354c4.59-7.163-10.066-10.945-5.936-19.334c4.13-8.388,13.257-10.844,13.257-10.844
		s8.881-10.65,11.984-21.378c3.103-10.729,20.01-21.457,27.412-17.109c7.396,4.344,11.822,7.893,11.831,7.898
		c-1.275-1.022,4.494-3.934,4.804-4.026c21.02-6.271,32.233,24.898,39.568,45.481c2.162,6.067,4.139,12.23,5.629,18.5
		c0.713,3.001,1.429,5.761,0.802,8.392c0,0-11.958-26.085-20.904-30.142c-8.947-4.056-4.911,5.8-12.919,0.374
		c-8.007-5.427-3.623-11.539-9.109-16.976C3673.338,2028.673,3655.937,2036.524,3655.937,2036.524z"/>
	<path style="fill:#FC7575;" d="M3695.314,2057.354c0,0-4.273-15.946,2.869-15.979s21.128,26.585,15.568,28.186
		S3695.314,2057.354,3695.314,2057.354z"/>
	<path style="fill:#FFFFFF;" d="M3679.638,2116.794c0,0,10.98-2.15,18.093-13.05c0,0,0.78,10.701-2.945,14.486
		C3691.061,2122.017,3679.638,2116.794,3679.638,2116.794z"/>
	<path style="fill:#FD5E5A;" d="M3698.548,2056.202c0,0-1.622-10.392,2.799-8.311s12.379,19.797,8.808,19.813
		C3706.583,2067.721,3698.548,2056.202,3698.548,2056.202z"/>
	<path style="fill:#2846A6;" d="M3669.714,2096.355c1.854,5.453,2.902,6.815,5.788,10.665c0.572-0.445,1.456-0.949,5.476-4.389
		c-1.772,0.871-3.534,1.76-5.235,2.739c-1.986-2.953-8.137-17.611-7.721-20.266
		C3666.986,2087.699,3668.776,2093.747,3669.714,2096.355z"/>
	<path style="fill:#2846A6;" d="M3680.156,2074.104c1.872,1.854,2.332,4.426,1.028,5.741s-3.878,0.878-5.75-0.977
		c-1.872-1.855-2.332-4.426-1.028-5.741S3678.284,2072.249,3680.156,2074.104z"/>
	<path style="fill:#2846A6;" d="M3663.277,2091.137c1.871,1.854,2.332,4.426,1.028,5.741s-3.878,0.878-5.75-0.978
		c-1.872-1.854-2.333-4.425-1.029-5.74C3658.83,2088.844,3661.405,2089.281,3663.277,2091.137z"/>
	<path style="fill:#2846A6;" d="M3666.459,2067.901c0,0,4.947-7.405,11.28-7.434c6.332-0.028,7.187,3.148,6.351,3.993
		c-0.837,0.844-6.575-4.395-9.383-0.934C3666.881,2073.173,3664.13,2070.698,3666.459,2067.901z"/>
	<path style="fill:#FC7575;" d="M3876.682,2116.028c0,0-44.554-45.283-75.635-23.876c-31.082,21.406-2.792,60.504,16.76,71.809
		c19.551,11.304,81.661,18.849,89.775,35.763c8.115,16.914-62.223,77.847-73.585,79.069c-11.361,1.224-29.095-5.898-39.104-4.821
		s-4.331,11.509-4.331,11.509s-1.833,2.069-3.963,7.882c-2.129,5.813,1.342,10.091,1.342,10.091s-1.715,9.489,4.577,14.559
		c6.293,5.069,32.546-10.345,51.017-16.711s103.255-65.605,116.725-103.177C3960.26,2198.124,3891.747,2121.248,3876.682,2116.028z"
		/>
	<path style="fill:#FDACAC;" d="M3807.436,2088.723c-15.383,8.042-22.712,21.956-16.689,38.887
		c14.294,38.78,46.047,40.831,74.684,49.96c12.563,3.922,35.936,10.663,42.152,22.154c-8.295-11.646-31.278-15.445-66.391-25.085
		c-19.889-5.734-28.313-8.183-41.787-24.41C3776.977,2122.105,3784.313,2097.477,3807.436,2088.723z"/>
	<g>
		<path style="fill:#411AC0;" d="M3268.507,2557.508c-20.876-13.657-22.403-38.55-22.487-43.786
			c-0.009-0.534,0.436-0.964,0.971-0.943l0,0c0.498,0.019,0.893,0.418,0.9,0.917c0.073,4.913,1.488,29.059,21.639,42.244
			c0.427,0.279,0.561,0.844,0.289,1.276l0,0C3269.541,2557.659,3268.944,2557.794,3268.507,2557.508z"/>
	</g>
	<g>
		<path style="fill:#411AC0;" d="M3278.471,2586.129c-31.264-13.907-43.2-44.239-45.2-49.929c-0.178-0.503,0.1-1.051,0.61-1.206l0,0
			c0.48-0.146,0.988,0.111,1.154,0.586c1.896,5.41,13.557,35.21,44.197,48.841c0.467,0.208,0.686,0.749,0.483,1.219l0,0
			C3279.511,2586.118,3278.947,2586.341,3278.471,2586.129z"/>
	</g>
	<g>
		<path style="fill:#411AC0;" d="M3651.907,2518.112L3651.907,2518.112c-0.436-0.263-0.571-0.823-0.319-1.265
			c16.684-29.295-13.38-71.337-17.891-77.354c-0.305-0.406-0.229-0.979,0.169-1.294l0.001-0.001c0.412-0.326,1.014-0.25,1.328,0.171
			c4.664,6.231,35.265,49.13,18.015,79.412C3652.95,2518.236,3652.356,2518.384,3651.907,2518.112z"/>
	</g>
</g>
<g>
	<path style="fill:#FFF6DC;" d="M3325.5,1318.398c245.136,20.971,455.581-99.066,470.042-268.11
		c3.62-42.311-5.382-83.682-24.757-122.261c64.796-14.482,112.396-54.631,116.755-105.594
		c5.957-69.636-71.075-133.089-172.056-141.728c-75.127-6.427-142.344,19.297-174.291,61.565
		c-49.853-18.497-104.939-31.04-163.324-36.035c-245.136-20.971-455.58,99.066-470.042,268.11
		C2893.366,1143.39,3080.364,1297.427,3325.5,1318.398z"/>
	<g>
		<path style="fill:#E55151;" d="M3728.94,930.372c0,0-107.886-18.608-113.43-13.064c-5.544,5.544,13.293,54.82,35.459,76.986
			c22.166,22.166,65.001,43.552,65.001,43.552l22.394-21.359c0,0-85.082-68.594-75.832-68.594s72.351-3.816,72.351-3.816
			L3728.94,930.372z"/>
		<path style="fill:#5CA9FF;" d="M3884.043,1514.88c0,18.969-214.338,34.347-478.737,34.347s-478.738-15.378-478.738-34.347
			s214.339-34.346,478.738-34.346S3884.043,1495.911,3884.043,1514.88z"/>
		<path style="fill:#6E1D6B;" d="M3068.584,1073.205l17.622,39.978c0,0,31.568,160.227,31.568,176.31
			c0,16.082,11.317,212.048,11.317,212.048l-2.979,14.295l0.596,7.744c0,0,20.848-3.574,38.121,0c17.273,3.573,22.635,0,22.635,0
			l-42.291-17.869l8.339-238.853l-9.813-328.505l-66.021,7.431L3068.584,1073.205z"/>
		<path style="fill:#93278F;" d="M3024.273,951.585c0-0.925-0.271-3.231-0.742-6.55c41.828-0.908,50.812-1.283,93.761,3.192
			c-2.07,40.565-0.661,67.27-0.661,67.27l-81.33,227.813c0,0-78.795,232.507-73.68,249.129c5.114,16.622,17.261,46.03,17.261,46.03
			l-35.161-7.032v-15.344l33.243-297.278C2976.964,1218.815,3024.273,963.093,3024.273,951.585z"/>
		<g>
			<path style="fill:#4C1E48;" d="M3773.158,876.586c-12.514,11.129-8.361,36.792-12.307,65.846
				c-8.654,63.71,57.719,65.152,57.719,65.152l4.282-12.87c0,0-22.982-9.179-19.618-19.291c0,0,18.848,10.866,36.617,9.631
				c17.768-1.235,22.812-22.53,22.812-22.53s-22.051,14.104-37.526,5.381c-15.477-8.723-13.31-22.296-13.31-22.296
				s11.315,17.549,24.796,18.461c13.48,0.912,18.507-7.626,18.507-7.626s-26.084-0.289-28.815-15.093
				c-2.732-14.804-11.765-36.883-19.628-52.589C3798.823,873.058,3779.822,870.66,3773.158,876.586z"/>
			<path style="fill:#FC7575;" d="M3756.57,953.246c0,0,8.291,66.532-4.059,86.31c-6.947,11.125-18.302,12.624-26.906,11.805
				c-6.47-0.615-10.831-6.933-9.635-13.515c3.103-17.083,8.248-49.826,5.134-64.464
				C3716.792,953.103,3756.57,953.246,3756.57,953.246z"/>
			<path style="fill:#FD5E5A;" d="M3756.57,953.246c0,0,0.756,6.065,1.471,15.076c-5.553,11.992-13.652,24.957-25,38.428
				c-5.4,6.411-10.162,11.216-14.354,14.764c2.539-16.898,4.702-37.389,2.417-48.131
				C3716.792,953.103,3756.57,953.246,3756.57,953.246z"/>
			<g>
				<path style="fill:#FC7575;" d="M3769.367,912.278c-2.004-6.817-9.93-16.436-20.291-22.706
					c-22.389-13.548-50.195,3.388-53.088,31.749c-0.264,2.583-0.277,5.135,0.063,7.554c2.162,15.423-9.116,24.157-9.116,24.157
					s0.66,3.63,4.335,4.581s3.297,2.781,2.144,5.205c-1.153,2.424-2.413,2.892-1.45,4.73c0.963,1.836,4.625,2.443,4.625,2.443
					s-2.54,3.767-1.508,5.735c1.032,1.968,2.525,1.787,2.525,1.787s3.313,1.538,2.672,3.98c-0.643,2.443,0.897,5.178,2.152,7.136
					c1.76,2.747,12.741,15.693,40.032-10.192C3769.753,952.551,3773.905,927.713,3769.367,912.278z"/>
			</g>
			<path style="fill:#422549;" d="M3696.795,925.547c0,0,11.301-1.902,18.691,9.763c0,0-9.406-8.104-17.443-7.363L3696.795,925.547z
				"/>
			<path style="fill:#18287D;" d="M3700.166,935.775c0,0-0.365,3.911,1.243,5.087c1.608,1.175,2.888,0.58,2.888,0.58
				L3700.166,935.775z"/>
			<path style="fill:#0F1D5B;" d="M3709.715,936.19c0,0-7.125-0.545-11.846,0.344c-4.723,0.889-6.54-0.324-6.54-0.324
				s5.26-0.089,9.537-1.19C3705.144,933.919,3709.715,936.19,3709.715,936.19z"/>
			<path style="fill:#0F1D5B;" d="M3705.09,966.16c-2.373,2.13-5.395,3.472-8.502,3.83c3.161-0.016,6.371-0.961,9.233-3.051
				c0.242-0.177,0.302-0.518,0.134-0.763c-0.168-0.245-0.5-0.3-0.741-0.123c-0.015,0.011-0.029,0.022-0.043,0.034L3705.09,966.16z"
				/>
			<path style="fill:#5C2C55;" d="M3746.043,872.942c27.893,1.55,32.739,26.194,38.73,49.276c5.991,23.081-25.83,42.536-27.34,39.14
				c0,0-9.939-27.858-20.354-28.05s-38.556-23.004-38.556-23.004c0.278-0.581,2.613-7.976,4.024-12.173
				c1.077-3.201-0.181-5.624,2.48-8.432C3714.086,880.139,3729.431,872.019,3746.043,872.942z"/>
			<path style="fill:#2ADCDF;" d="M3748.375,918.869c6.853,6.956,18.847,25.22,23.692,32.635c1.354,2.072-0.343,4.565-2.241,6.153
				c-7.184,6.006-11.688,5.286-12.393,3.701c0,0-10.607-23.83-19.098-29.865c-8.51-6.05-33.368-16.639-40.548-19.028
				c-2.761-0.918,5.147-23.929,7.24-22.766C3714.783,895.117,3735.752,906.053,3748.375,918.869z"/>
			<path style="fill:#FC7575;" d="M3737.079,933.308c0,0-4.941-7.904,5.938-11.064c10.88-3.161,11.364,15.198,5.358,20.644
				C3742.37,948.334,3737.079,933.308,3737.079,933.308z"/>
			<path style="fill:#FD5E5A;" d="M3740.579,934.322c0,0-3.319-8.879,1.585-8.397c4.905,0.483,8.507,10.035,4.956,12.127
				C3743.569,940.143,3740.579,934.322,3740.579,934.322z"/>
		</g>
		<path style="fill:#42210B;" d="M3311.285,979.584c0,0-5.582-19.283,14.716-23.85c20.298-4.567,171.088,123.935,189.052,136.164
			c17.962,12.229,49.004,81.023,0.699,98.276c-18.585,6.638-72.107-0.897-115.162-68.321
			C3384.755,1097.055,3311.285,979.584,3311.285,979.584z"/>
		<path style="fill:#42210B;" d="M3317.632,968.444l-6.347,11.14l-7.612,250.08c0,0-28.037,10.037-22.673,15.402
			c5.364,5.364,26.742-3.5,33.491-3.5s10.841-17.601,10.841-17.601l14.702-7.602l-9.811-18.202l33.999-185.519L3317.632,968.444z"/>
		<path style="fill:#5C2C55;" d="M3032.508,523.888c-0.56-13.15-21.725-20.642-31.543-3.516l3.059,2.316
			C3012.392,509.397,3028.43,512.82,3032.508,523.888z"/>
		<path style="fill:#C5C6FC;" d="M3016.939,961.151c-4.972-35.037-27.283-207.506-31.73-231.508
			c-0.372-2.013-10.523-35.05-8.605-36.968c1.918-1.918,35.384-37.552,96.257-30.697c30.494,3.434,59.455,3.836,59.455,3.836
			s23.35,44.765,23.35,88.877c0,24.969-1.947,122.214-5.586,193.536C3116.631,974.795,3059.192,969.534,3016.939,961.151z"/>
		<path style="fill:#FC7575;" d="M3035.301,664.339l10.069-69.967l29.728,17.021l15.823,51.783
			C3090.921,663.177,3092.056,724.791,3035.301,664.339z"/>
		<path style="fill:#FD5E5A;" d="M3045.37,594.372l29.728,17.021l11.353,37.151c-14.133-0.264-33.089-9.248-43.344-28.481
			c-0.383-0.719-0.754-1.458-1.114-2.215L3045.37,594.372z"/>
		<path style="fill:#FC7575;" d="M3076.696,517.495c0,0,24.933,10.554,24.933,31.329c0,20.775,9.909,72.559,0,82.468
			c-9.909,9.909-43.524,4.284-58.522-21.193c-14.998-25.477-12.521-78.299-7.806-83.014
			C3040.016,522.37,3067.426,508.226,3076.696,517.495z"/>
		<path style="fill:#5C2C55;" d="M3058.476,525.167v1.918c0,0,6.074,25.572,29.408,29.727c23.335,4.156,26.212-7.989,26.212-7.989
			s24.294,10.227,26.212-14.067c1.918-24.294-18.86-29.728-18.86-29.728s7.033,16.622-1.918,14.704
			c-8.95-1.918-0.741-15.983-10.279-19.179c-9.539-3.197-18.328,1.918-18.328,1.918s-14.865-1.279-25.414-7.032
			c-10.548-5.754-31.553-0.959-33.836,7.991c-2.282,8.942-2.923,15.013-2.924,15.023c0.185-1.749-6.41,0.455-6.716,0.622
			c-20.711,11.313-5.385,43.49,4.79,64.685c3,6.248,6.213,12.426,9.875,18.313c1.753,2.817,3.801,5.784,6.409,8.025
			c0,0-11.481-29.952-7.806-39.861c3.677-9.909,8.151,0.639,10.069-9.59c1.918-10.228-6.073-11.507-6.073-19.818
			C3039.297,532.519,3058.476,525.167,3058.476,525.167z"/>
		<path style="fill:#FC7575;" d="M3044.571,571.037c0,0-8.95-15.343-14.385-9.909c-5.435,5.435,4.315,36.281,9.749,33.244
			C3045.37,591.335,3044.571,571.037,3044.571,571.037z"/>
		<path style="fill:#FFFFFF;" d="M3101.869,604.074c0,0-9.96,6.763-23.676,3.943c0,0,7.587,8.701,13.302,8.721
			C3097.21,616.759,3101.869,604.074,3101.869,604.074z"/>
		<path style="fill:#FD5E5A;" d="M3041.242,572.636c0,0-6.713-9.11-8.471-4.156c-1.759,4.955,5.753,24.454,8.471,21.737
			C3043.959,587.5,3041.242,572.636,3041.242,572.636z"/>
		<path style="fill:#2846A6;" d="M3093.766,581.011c2.763,5.547,3.011,7.38,3.767,12.5c-0.773,0.1-1.828,0.394-7.501,0.861
			c2.009-0.695,4.021-1.368,6.059-1.926c-0.752-3.755-7.296-19.557-9.64-21.248C3089.216,572.37,3092.482,578.318,3093.766,581.011z
			"/>
		<path style="fill:#2846A6;" d="M3068.853,572.138c0,2.836,1.615,5.134,3.608,5.134c1.992,0,3.608-2.298,3.608-5.134
			c0-2.836-1.616-5.134-3.608-5.134C3070.468,567.004,3068.853,569.303,3068.853,572.138z"/>
		<path style="fill:#2846A6;" d="M3094.652,572.138c0,2.836,1.615,5.134,3.608,5.134s3.608-2.298,3.608-5.134
			c0-2.836-1.615-5.134-3.608-5.134S3094.652,569.303,3094.652,572.138z"/>
		<path style="fill:#2846A6;" d="M3074.486,556.973c0,0-9.407-1.827-14.225,2.991c-4.818,4.818-3.037,7.877-1.759,7.877
			s1.622-8.352,6.394-7.877C3078.193,561.288,3078.387,557.312,3074.486,556.973z"/>
		<g>
			<rect x="3296.03" y="1190.174" style="fill:#432C47;" width="15.284" height="332.886"/>
		</g>
		<g>
			<rect x="3303.673" y="1385.511" style="fill:#432C47;" width="446.554" height="15.284"/>
		</g>
		<g>
			<path style="fill:#432C47;" d="M3794.051,1531.363h-70.395v-162.75h70.395V1531.363z M3740.262,1514.758h37.184v-129.54h-37.184
				V1514.758z"/>
		</g>
		<rect x="3253.974" y="1523.533" style="fill:#432C47;" width="101.454" height="13.399"/>
		<rect x="3679.41" y="1521.883" style="fill:#432C47;" width="101.454" height="13.399"/>
		<rect x="3294.032" y="1164.295" style="fill:#432C47;" width="162.891" height="17.253"/>
		<path style="fill:#F271CA;" d="M3426.803,1148.772l416.459,250.558c9.608,5.781,12.711,18.257,6.931,27.866
			c-5.781,9.608-18.257,12.711-27.866,6.931c-0.27-0.163-0.595-0.371-0.854-0.544l-403.442-271.018
			c-3.748-2.518-4.746-7.598-2.228-11.346C3418.239,1147.59,3423.096,1146.551,3426.803,1148.772z"/>
		<path style="fill:#4F3554;" d="M3475.19,1117.102c-15.224,15.223-16.858,62.704,12.573,69.808c0,0,77.997-22.604,78.044-22.615
			c-12.605-27.075-14.237-47.278-24.259-75.345C3520.658,1102.592,3485.605,1106.687,3475.19,1117.102z"/>
		<path style="fill:#4F3554;" d="M3537.815,1130.809c-4.242-18.471-115.399-97.943-176.293-136.509s-100.782-54.826-105.847-32.938
			c-9.802,42.354,42.924,194.306,55.609,236.932c12.687,42.625,11.672,58.429,8.627,61.473
			c-3.045,3.045-22.166,18.202-22.166,18.202l34.852,0.7c11.672-5.582,10.479-22.48,17.254-38.258
			c7.063-16.447,7.063-16.447,7.063-16.447l-14.167-13.493c0,0-11.688-106.195-20.477-128.523
			c-8.79-22.328-29.281-75.977-17.515-64.211c39.019,39.019,96.359,112.254,96.359,112.254s20.324,34.02,41.129,45.184
			C3463.05,1186.34,3557.239,1215.375,3537.815,1130.809z"/>
		<path style="fill:#958698;" d="M3511.542,1101.96c-43.659-34.615-141.571-102.192-189.045-128.942
			c-19.949-11.102-60.934-33.522-66.821-11.656c8.78-44.153,160.104,65.615,196.365,92.564
			C3472.498,1069.133,3492.642,1084.845,3511.542,1101.96z"/>
		
			<linearGradient id="SVGID_00000181767465969434448540000009628431788325051799_" gradientUnits="userSpaceOnUse" x1="3263.7461" y1="1191.9219" x2="3331.7441" y2="1191.9219">
			<stop  offset="0" style="stop-color:#A9A5DE"/>
			<stop  offset="1" style="stop-color:#BDB9F2"/>
		</linearGradient>
		<path style="fill:url(#SVGID_00000181767465969434448540000009628431788325051799_);" d="M3331.744,1191.922
			c0,18.777-15.221,33.999-33.998,33.999s-34-15.222-34-33.999c0-18.777,15.223-33.999,34-33.999
			S3331.744,1173.145,3331.744,1191.922z"/>
		
			<linearGradient id="SVGID_00000096771740157041796400000011640869776788790704_" gradientUnits="userSpaceOnUse" x1="3296.2246" y1="1051.7373" x2="3364.2227" y2="1051.7373">
			<stop  offset="0" style="stop-color:#A9A5DE"/>
			<stop  offset="1" style="stop-color:#BDB9F2"/>
		</linearGradient>
		<circle style="fill:url(#SVGID_00000096771740157041796400000011640869776788790704_);" cx="3330.224" cy="1051.737" r="33.999"/>
		<path style="fill:#432C47;" d="M3346.969,1051.737c0,9.249-7.497,16.746-16.745,16.746c-9.249,0-16.746-7.497-16.746-16.746
			s7.497-16.746,16.746-16.746C3339.472,1034.991,3346.969,1042.489,3346.969,1051.737z"/>
		<path style="fill:#432C47;" d="M3314.491,1191.921c0,9.249-7.497,16.746-16.745,16.746c-9.249,0-16.746-7.498-16.746-16.746
			c0-9.248,7.497-16.746,16.746-16.746C3306.994,1175.176,3314.491,1182.673,3314.491,1191.921z"/>
		<path style="fill:#FC7575;" d="M3086.074,813.478c0,0-25.23-2.573-33.813,0c-8.583,2.574-24.923,21.552-24.923,21.552
			l-3.797,15.683h42.914l6.603-15.845L3086.074,813.478z"/>
		<path style="fill:#FD5E5A;" d="M3191.113,814.385l-10.482-16.731c0,0-28.222-5.788-32.896-3.794
			c-4.675,1.993-18.764,13.014-18.764,13.014s-80.937,48.853-101.634,28.156c-20.697-20.697,31.076-124.071-3.443-158.59
			c0,0-12.064-18.991-47.291,16.236c-35.228,35.227-43.394,209.526,29.669,215.033c50.089,3.776,94.966-40.186,118.235-68.206
			c0.023-0.013,17.476-10.152,24.451-17.128C3155.94,815.393,3191.113,814.385,3191.113,814.385z"/>
		<path style="fill:#FC7575;" d="M3132.315,665.814c0,0,36.132,18.743,57.873,101.277s-2.634,134.021-45.498,113.331
			c-34.888-16.84-76.106-48.467-76.106-48.467l17.49-18.477c0,0,32.76,12.938,57.379,7.525c6.548-1.44,9.857-12.185,10.862-27.429
			C3157.091,751.512,3139.228,679.726,3132.315,665.814z"/>
		<path style="fill:#29C1C1;" d="M3648.668,1047.671c-34.643,34.642-63.071,27.955-92.127,27.955
			c-9.177,0-18.452,1.927-28.704-1.803c1.349,32.06,12.837,83.723,26.716,113.535c3.074-0.72,93.696-41.826,135.462-70.402
			c42.465-29.054,65.602-58.896,65.602-84.599C3755.616,1006.654,3683.31,1013.029,3648.668,1047.671z"/>
		<path style="fill:#FD5E5A;" d="M3798.631,958.251c0.854-0.527,0.74-1.801-0.212-2.116c-7.729-2.552-35.287-11.241-39.661-6.866
			c-5.098,5.097,18.624,12.902,20.837,12.902c2.212,0,5.192-3.125,8.544-3.125C3791.026,959.046,3794.88,960.565,3798.631,958.251z"
			/>
		<path style="fill:#FD5E5A;" d="M3768.138,950.942c0,0,34.622,10.647,40.524,15.007c3.425,2.53,2.391,4.449-2.127,3.156
			c-4.872-1.394-24.619-10.551-24.619-10.551L3768.138,950.942z"/>
		<path style="fill:#FF8888;" d="M3555.171,1006.697c0,0-17.082-36.707,199.658-58.639c19.688-1.993,41.924,14.723,49.134,21.933
			c7.21,7.21,5.522,10.596-0.996,4.078c-6.52-6.519-19.082-7.974-19.082-7.974c0,1.875,22.877,11.33,22.877,16.172
			c0,4.842-27.351-12.276-27.351-12.276s21.73,14.484,17.634,14.484c-4.098,0-19.988-11.616-24.489-12.637
			c-53.868-12.222-138.788,20.705-129.849,29.645c8.94,8.939,86.034,28.41,90.518,49.915c4.482,21.504-1.785,40.185-36.637,33.48
			S3574.594,1026.12,3555.171,1006.697z"/>
		<g>
			<path style="fill:#411AC0;" d="M3686.93,1175.166L3686.93,1175.166c-0.211-0.5,0.021-1.073,0.52-1.289
				c66.591-28.877,93.929-117.21,96.851-127.287c0.15-0.518,0.688-0.819,1.208-0.68l0,0c0.539,0.144,0.854,0.699,0.699,1.234
				c-3.001,10.332-30.607,99.336-97.961,128.549C3687.739,1175.913,3687.146,1175.674,3686.93,1175.166z"/>
		</g>
		<g>
			<path style="fill:#411AC0;" d="M3760.064,1147.601L3760.064,1147.601c-0.385-0.384-0.383-1.003-0.002-1.391
				c42.414-43.058,49.482-109.984,50.24-118.817c0.046-0.538,0.512-0.94,1.051-0.907l0,0c0.557,0.035,0.974,0.519,0.926,1.074
				c-0.778,9.055-7.945,76.527-50.797,120.036C3761.095,1147.991,3760.455,1147.992,3760.064,1147.601z"/>
		</g>
		<g>
			<path style="fill:#411AC0;" d="M3811.811,863.429c-41.21-40.986-70.822-50.922-76.251-52.478
				c-0.504-0.144-0.802-0.656-0.687-1.167l0,0c0.125-0.558,0.687-0.897,1.235-0.738c5.774,1.671,35.769,11.87,77.1,52.975
				c0.39,0.387,0.394,1.023,0.006,1.411l-0.002,0.001C3812.826,863.819,3812.197,863.814,3811.811,863.429z"/>
		</g>
	</g>
	<ellipse style="fill:#FFF6DC;" cx="3662.72" cy="627.738" rx="41.577" ry="33.366"/>
	<path style="fill:#FFF6DC;" d="M3590.548,603.239c0,13.531-10.969,24.5-24.499,24.5c-13.531,0-24.5-10.969-24.5-24.5
		c0-13.53,10.969-24.499,24.5-24.499C3579.579,578.74,3590.548,589.708,3590.548,603.239z"/>
</g>
<g>
	<path style="fill:#FFF6DC;" d="M828.199,1782.393c-205.167,0-371.487,114.693-371.487,256.175c0,35.412,10.42,69.146,29.26,99.823
		c-52.808,16.639-89.503,53.381-89.503,96.034c0,58.281,68.514,105.528,153.03,105.528c62.878,0,116.898-26.151,140.438-63.542
		c42.736,11.825,89.397,18.331,138.262,18.331c205.167,0,371.487-114.693,371.487-256.175S1033.365,1782.393,828.199,1782.393z"/>
	<path style="fill:#FFF6DC;" d="M765.687,1781.354c0,32.154-48.774,58.221-108.94,58.221c-60.166,0-108.94-26.066-108.94-58.221
		c0-32.155,48.774-58.222,108.94-58.222C716.912,1723.132,765.687,1749.198,765.687,1781.354z"/>
	<path style="fill:#FFF6DC;" d="M561.305,1670.122c0,11.879-12.204,21.51-27.259,21.51c-15.055,0-27.26-9.631-27.26-21.51
		c0-11.88,12.205-21.511,27.26-21.511C549.101,1648.611,561.305,1658.242,561.305,1670.122z"/>
	<g>
		<g>
			<path style="fill:#42210B;" d="M628.215,2058.396c0,0,88.557,111.561,132.546,138.845c0,0-33.305,81.517-36.199,151.555
				l9.331,10.985l65.068-163.753c0,0-54.986-107.923-66.563-129.144C720.824,2045.664,628.215,2058.396,628.215,2058.396z"/>
			<g>
				<path style="fill:#241145;" d="M716.284,2328.804c-46.469-47.484-74.178-214.637-75.334-221.73l15.196-2.589
					c0.276,1.688,28.036,169.251,71.032,213.188L716.284,2328.804z"/>
			</g>
			<g>
				<path style="fill:#241145;" d="M897.545,2362.747l-9.822-10.288c65.326-68.43,62.252-368.256,62.212-371.275l13.892-0.195
					C963.989,1993.573,966.975,2290.021,897.545,2362.747z"/>
				<polygon style="fill:#241145;" points="992.553,1919.979 949.936,1981.184 963.828,1980.988 1024.39,1932.032 				"/>
			</g>
			<path style="fill:#821B36;" d="M695.552,2378.521c0,0-11.721-56.503,0-66.346c0.586-0.491,1.181-0.951,1.782-1.38
				c9.31-6.638,23.081-6.46,32.887-0.346l80.565,50.239L695.552,2378.521z"/>
			<path style="fill:#821B36;" d="M839.914,2372.52c0,0,37.638-27.952,49.565-27.952c11.927,0,24.421,42.875,27.829,66.574
				c3.407,23.7,0,48.278,0,48.278L839.914,2372.52z"/>
			<path style="fill:#FD5E5A;" d="M849.866,1838.677c-6.788-10.646-24.392-20.129-34.627-13.134
				c-15.374,10.508-13.314,21.653-6.5,36.723c10.419,23.04,31.435,113.193,81.429,106.827
				c49.994-6.366,105.404-69.574,105.404-69.574s30.976-14.097,32.061-18.189c1.085-4.092,0.868-3.41,1.953-8.867
				c1.085-5.456,6.729-31.604,4.341-36.378c-2.388-4.775-11.504-5.002-11.504-5.002v11.596c0,0-6.006,14.716-9.189,14.716
				c-3.183,0,3.799-14.147,5.933-16.384c2.134-2.235-3.581-9.587-8.248-4.698c-4.667,4.888-30.678,49.338-41.168,57.296
				c-10.49,7.958-61.911,42.009-74.993,30.239C884.505,1914.621,871.344,1872.356,849.866,1838.677z"/>
			<ellipse style="fill:#5CA9FF;" cx="806.589" cy="2601.175" rx="226.024" ry="9.024"/>
			
				<linearGradient id="SVGID_00000030462785623171579140000014879921078821776035_" gradientUnits="userSpaceOnUse" x1="678.7925" y1="2540.7546" x2="917.9205" y2="2425.9731">
				<stop  offset="0" style="stop-color:#A9A5DE"/>
				<stop  offset="1" style="stop-color:#BDB9F2"/>
			</linearGradient>
			<path style="fill:url(#SVGID_00000030462785623171579140000014879921078821776035_);" d="M795.564,2348.796
				c-75.354-34.299-177.947,36.268-170.098,124c3.955,44.195,30.761,101.048,76.163,110.354c39.938,8.185,257.857,0,257.857,0
				s28.651-5.457,28.651-47.292c0-41.836-58.958-109.28-131.099-152.79C828.388,2365.788,812.556,2356.53,795.564,2348.796z"/>
			<path style="fill:#838BC5;" d="M959.486,2583.149c0,0,28.651-5.457,28.651-47.292c0-0.016,0-0.032,0-0.048
				c-36.345,20.702-80.609,33.48-134.283,31.755c-233.326-7.505-216.026-155.371-216.026-155.371l4.351-7.706
				c-12.323,20.077-18.932,43.507-16.712,68.308c3.955,44.196,30.761,101.049,76.163,110.354
				C741.566,2591.334,959.486,2583.149,959.486,2583.149z"/>
			<path style="fill:#CFCFF9;" d="M988.137,2535.857c-3.192-45.897-69.958-105.553-105.718-131.822
				c-17.283-12.961-66.485-44.213-86.855-55.239c25.038,9.27,67.31,33.116,90.695,49.382c37.376,26.41,88.733,74.873,99.923,119.895
				C987.655,2523.88,988.48,2529.909,988.137,2535.857z"/>
			<polygon style="fill:#0F1D5B;" points="607.863,2078.398 640.95,2121.143 659.955,2121.143 669.505,2078.398 			"/>
			<polygon style="fill:#2A417F;" points="576.607,2052.023 679.822,2066.575 679.822,2078.398 595.708,2078.398 			"/>
			<path style="fill:#0F1D5B;" d="M836.491,2463.27c0,33.82-26.173,61.237-58.46,61.237c-32.286,0-58.459-27.417-58.459-61.237
				s26.173-61.236,58.459-61.236C810.317,2402.033,836.491,2429.449,836.491,2463.27z"/>
			<path style="fill:#653870;" d="M828.885,2463.27c0,29.421-22.768,53.271-50.854,53.271c-28.086,0-50.854-23.85-50.854-53.271
				c0-29.42,22.768-53.27,50.854-53.27C806.117,2410,828.885,2433.85,828.885,2463.27z"/>
			<path style="fill:#241145;" d="M806.909,2335.868c-1.201,29.175-7.316,109.065-28.207,128.104l-1.342-1.405
				c18.25-20.119,16.637-97.988,15.352-125.823L806.909,2335.868z"/>
			<path style="fill:#653870;" d="M819.83,2342.588l-48.583,3.912c-3.556,0.286-6.66-2.502-6.934-6.227l-0.217-2.963
				c-0.273-3.725,2.388-6.977,5.944-7.263l48.583-3.912c3.556-0.286,6.661,2.502,6.934,6.227l0.217,2.963
				C826.047,2339.05,823.386,2342.302,819.83,2342.588z"/>
			<path style="fill:#311F35;" d="M806.909,2288.771c-7.834-0.472-11.565-1.185-19.399,0c-2.077,5.322-12.323,32.599-7.163,40.032
				l73.508-3.334C853.514,2310.133,806.909,2313.579,806.909,2288.771z"/>
			<g>
				<path style="fill:#FC7575;" d="M834.528,1809.947c0,0,41.118-15.984,51.108-34.381l18.516,24.23
					c0,0-18.178,33.342-44.201,40.911C833.93,1848.278,834.528,1809.947,834.528,1809.947z"/>
				<path style="fill:#FD5E5A;" d="M895.646,1809.133c0.392,0.653,0.78,1.29,1.165,1.91c4.704-6.408,7.341-11.246,7.341-11.246
					l-18.516-24.23C884.762,1777.177,889.545,1798.954,895.646,1809.133z"/>
				<path style="fill:#4C1E48;" d="M870.745,1700.688c10.922,10.176,7.297,33.639,10.742,60.203
					c7.553,58.25-50.378,59.568-50.378,59.568l-3.738-11.767c0,0,20.06-8.392,17.123-17.638c0,0-16.451,9.936-31.959,8.806
					c-15.509-1.129-19.911-20.599-19.911-20.599s19.247,12.896,32.754,4.92c13.508-7.976,11.617-20.386,11.617-20.386
					s-9.876,16.045-21.643,16.879s-16.153-6.973-16.153-6.973s22.767-0.264,25.151-13.799c2.384-13.536,10.268-33.723,17.131-48.082
					S864.928,1695.271,870.745,1700.688z"/>
				<g>
					<path style="fill:#FC7575;" d="M874.053,1733.321c1.749-6.232,8.667-15.027,17.71-20.76
						c19.542-12.388,43.812,3.098,46.336,29.028c0.23,2.361,0.242,4.695-0.054,6.906c-1.888,14.102,7.956,22.087,7.956,22.087
						s-0.576,3.319-3.784,4.188c-3.207,0.869-2.878,2.543-1.871,4.759c1.007,2.217,2.106,2.645,1.266,4.324
						c-0.84,1.68-4.037,2.234-4.037,2.234s2.216,3.443,1.316,5.243c-0.901,1.8-2.204,1.634-2.204,1.634s-2.893,1.406-2.332,3.64
						s-0.784,4.733-1.878,6.523c-1.536,2.513-11.121,14.349-34.941-9.318C873.717,1770.143,870.092,1747.434,874.053,1733.321z"/>
				</g>
				<path style="fill:#422549;" d="M937.396,1745.454c0,0-9.863-1.739-16.314,8.926c0,0,8.211-7.409,15.225-6.731L937.396,1745.454z
					"/>
				<path style="fill:#18287D;" d="M934.454,1754.805c0,0,0.319,3.576-1.085,4.651c-1.404,1.074-2.52,0.53-2.52,0.53
					L934.454,1754.805z"/>
				<path style="fill:#0F1D5B;" d="M926.119,1755.184c0,0,6.219-0.498,10.34,0.314c4.121,0.813,5.708-0.296,5.708-0.296
					s-4.591-0.081-8.325-1.088C930.109,1753.107,926.119,1755.184,926.119,1755.184z"/>
				<path style="fill:#0F1D5B;" d="M930.157,1782.586c2.07,1.947,4.708,3.174,7.42,3.502c-2.76-0.016-5.561-0.879-8.06-2.79
					c-0.211-0.162-0.263-0.474-0.117-0.698c0.146-0.224,0.436-0.273,0.647-0.112c0.013,0.01,0.026,0.021,0.038,0.031
					L930.157,1782.586z"/>
				<path style="fill:#5C2C55;" d="M894.411,1697.356c-24.345,1.417-28.576,23.949-33.805,45.053s22.545,38.891,23.863,35.786
					c0,0,8.676-25.471,17.766-25.646c9.09-0.176,33.653-21.033,33.653-21.033c-0.243-0.531-2.28-7.292-3.513-11.13
					c-0.94-2.926,0.158-5.141-2.165-7.708C922.304,1703.938,908.911,1696.513,894.411,1697.356z"/>
				<path style="fill:#2DE8E8;" d="M892.376,1739.348c-5.981,6.36-16.45,23.058-20.679,29.838c-1.182,1.895,0.298,4.174,1.956,5.626
					c6.271,5.491,10.203,4.832,10.817,3.384c0,0,9.259-21.788,16.669-27.306c7.428-5.532,29.125-15.213,35.392-17.397
					c2.409-0.84-4.493-21.878-6.32-20.814C921.696,1717.631,903.394,1727.63,892.376,1739.348z"/>
				<path style="fill:#FC7575;" d="M902.235,1752.549c0,0,4.313-7.227-5.182-10.116c-9.496-2.891-9.918,13.896-4.677,18.875
					C897.617,1766.287,902.235,1752.549,902.235,1752.549z"/>
				<path style="fill:#FD5E5A;" d="M899.181,1753.476c0,0,2.897-8.118-1.384-7.677s-7.424,9.175-4.325,11.087
					C896.571,1758.798,899.181,1753.476,899.181,1753.476z"/>
			</g>
			<g>
				<path style="fill:#241145;" d="M1022.521,1933.989l-40.819-14.521l33.06-42.78v-59.91c0-3.015,2.331-5.457,5.209-5.457
					c2.878,0,5.209,2.442,5.209,5.457v63.775l-25.978,33.615l20.535,7.306l24.544-25.712v-73.527c0-3.015,2.332-5.457,5.209-5.457
					c2.878,0,5.209,2.442,5.209,5.457v78.046L1022.521,1933.989z"/>
			</g>
			<path style="fill:#FC7575;" d="M1026.347,1831.577c0,0-24.465,33.6-18.868,35.945c5.597,2.345,25.451-17.272,26.83-23.177
				C1035.688,1838.441,1036.035,1827.761,1026.347,1831.577z"/>
			<path style="fill:#FC7575;" d="M1034.309,1844.346c0,0-30.261,21.609-25.935,28.31c4.327,6.699,23.862-9.244,26.655-12.169
				C1037.821,1857.562,1034.309,1844.346,1034.309,1844.346z"/>
			<path style="fill:#FD5E5A;" d="M1012.863,1834.958c0,0,14.541,17.79,10.958,23.418c-3.582,5.629-18.604-14.03-18.604-14.03
				S1006.606,1834.958,1012.863,1834.958z"/>
			<path style="fill:#FC7575;" d="M1037.255,1869.633c0,0-17.911,9.85-28.209,9.85c-10.299,0,23.271-21.34,24.627-20.168
				S1041.509,1865.177,1037.255,1869.633z"/>
			<polygon style="fill:#0F1D5B;" points="963.885,2597.582 684.962,2597.582 692.877,2580.697 963.885,2580.697 			"/>
			<path style="fill:#241145;" d="M792.134,2460.65c0,7.65-5.92,13.853-13.224,13.853c-7.303,0-13.224-6.202-13.224-13.853
				s5.921-13.852,13.224-13.852C786.214,2446.799,792.134,2453,792.134,2460.65z"/>
			<path style="fill:#432C47;" d="M691.35,1978.917c7.29-21.578,8.659-21.994,11.179-23.708
				c-13.872-14.299-27.299-29.299-42.514-43.362c-2.681-3.511-5.111-7.546-7.854-11.123c-20.853,19.927-53.947,63.528-62.842,81.199
				c-15.238,24.431-4.659,55.95,5.15,70.556c5.398-25.523,18.883-49.404,40.471-59.957c17.86-9.354,38.19-7.062,57.914-8.168
				c-0.911-0.313-1.76-0.599-2.511-0.843C690.343,1983.511,690.689,1981.669,691.35,1978.917L691.35,1978.917z"/>
			<path style="fill:#29C1C1;" d="M844.181,1806.883c-19.68-10.914-193.962,89.461-202.087,97.225
				c2.742,3.578,11.434,9.857,14.115,13.367c15.215,14.063,32.448,23.436,46.32,37.734c12.85-8.739,70.567-33.541,82.448-33.541
				c12.733,0,40.806,5.153,54.408-9.095c13.602-14.248,26.224-48.164,26.224-48.164S863.86,1817.796,844.181,1806.883z"/>
			<path style="fill:#1D9995;" d="M839.385,1912.573c2.235-2.342,4.565-5.567,6.896-9.324l-38.25-39.697
				c0,0-8.538,6.623-8.538,32.727c0,9.96,1.01,18.923,2.26,26.199C814.844,1922.946,830.324,1922.063,839.385,1912.573z"/>
			<path style="fill:#FC7575;" d="M855.018,1847.174c-6.789-10.646-21.896-19.211-32.132-12.216
				c-15.374,10.507-23.019,29.351-16.205,44.42c10.418,23.04,64.537,134.448,114.531,128.082
				c49.994-6.366,105.404-72.161,105.404-72.161s13.047-15.319,18.473-15.319s14.456-11.275,15.542-16.732
				c1.085-5.456,3.64-20.785,1.252-25.56c-2.387-4.774-7.185-5.032-7.185-5.032l-1.229,8.39c0,0-5.793,10.789-8.976,10.789
				c-3.183,0,3.586-10.221,5.72-12.456c2.134-2.235-3.581-5.722-8.248-0.833c-4.667,4.889-13.275,31.285-23.765,39.243
				c-10.49,7.957-79.314,56.196-92.396,44.427C915.55,1952.989,876.497,1880.854,855.018,1847.174z"/>
			<polygon style="fill:#241145;" points="1044.281,1874.831 1044.281,1890.74 1051.732,1878.232 1050.166,1873.62 			"/>
			<path style="fill:#4F3554;" d="M865.431,2084.765c-3.943-32.455-141.961-89.865-175.088-101.254
				c-18.516-5.938-46.609-10.012-66.149-6.91c-14.99,2.38-26.713,10.745-34.261,24.96c-7.928,14.928-5.272,36.017,3.528,49.834
				c11.579,18.182,32.522,23.045,51.498,28.146c26.286,7.065,53.352,10.963,80.306,13.948c33.362,3.695,71.887,5.895,93.862,6.282
				c0,0-9.261,13.49-20.258,40.774c-10.997,27.283-11.131,147.642-11.358,148.226c0,0,11.661,1.354,19.495,1.825
				C811.768,2256.525,869.204,2115.815,865.431,2084.765z"/>
		</g>
		<g>
			<path style="fill:#411AC0;" d="M894.832,2128.683L894.832,2128.683c-0.521,0-0.939-0.422-0.943-0.943
				c-0.553-70.773-63.178-113.755-70.742-118.684c-0.418-0.272-0.547-0.818-0.304-1.254l0.03-0.056
				c0.269-0.481,0.884-0.639,1.345-0.337c8.111,5.305,71.01,48.793,71.572,120.309
				C895.794,2128.247,895.361,2128.683,894.832,2128.683z"/>
		</g>
		<g>
			<path style="fill:#411AC0;" d="M921.047,2171.855L921.047,2171.855c-0.489-0.154-0.762-0.67-0.623-1.164
				c18.708-66.869-34.658-121.52-41.138-127.838c-0.357-0.348-0.379-0.906-0.059-1.289l0.027-0.031
				c0.356-0.426,0.996-0.463,1.393-0.074c6.985,6.838,60.513,62.075,41.617,129.739
				C922.118,2171.719,921.563,2172.02,921.047,2171.855z"/>
		</g>
		<g>
			<path style="fill:#411AC0;" d="M575.367,1960.881L575.367,1960.881c-0.51-0.114-0.836-0.622-0.729-1.134
				c16.804-80.112,84.861-114.763,93.588-118.9c0.498-0.236,1.085,0.002,1.287,0.514l0.026,0.065
				c0.184,0.467-0.017,0.993-0.471,1.208c-8.168,3.858-75.888,38.069-92.567,117.512
				C576.392,1960.664,575.883,1960.997,575.367,1960.881z"/>
		</g>
	</g>
	<circle style="fill:#FFF6DC;" cx="459.864" cy="2392.895" r="33.113"/>
</g>
</svg>
