<?xml version="1.0" encoding="iso-8859-1"?>
<!-- Uploaded to: SVG Repo, www.svgrepo.com, Generator: SVG Repo Mixer Tools -->
<svg height="800px" width="800px" version="1.1" id="Layer_1" xmlns="http://www.w3.org/2000/svg" xmlns:xlink="http://www.w3.org/1999/xlink" 
	 viewBox="0 0 512 512" xml:space="preserve">
<g>
	<path style="fill:#E54728;" d="M327.164,411.904c-8.511,50.323-52.293,88.64-105.032,88.64
		c-58.845,0-106.533-47.699-106.533-106.533s47.688-106.533,106.533-106.533c3.425,0,6.827,0.16,10.172,0.481
		c-0.985,5.819-1.501,11.799-1.501,17.893C230.803,361.26,273.095,406.783,327.164,411.904z"/>
	<path style="fill:#E54728;" d="M337.336,199.319c58.834,0,106.533,47.699,106.533,106.533s-47.699,106.533-106.533,106.533
		c-3.425,0-6.827-0.16-10.172-0.481c-54.068-5.12-96.361-50.643-96.361-106.052c0-6.094,0.515-12.074,1.501-17.893
		C240.814,237.636,284.596,199.319,337.336,199.319z"/>
	<path style="fill:#E54728;" d="M174.672,11.454c58.834,0,106.533,47.699,106.533,106.533S233.506,224.52,174.672,224.52
		c-58.845,0-106.533-47.699-106.533-106.533S115.827,11.454,174.672,11.454z"/>
	<path style="fill:#E54728;" d="M281.205,117.987c0-58.834-47.699-106.533-106.533-106.533
		c-58.845,0-106.533,47.699-106.533,106.533S115.827,224.52,174.672,224.52C233.506,224.52,281.205,176.821,281.205,117.987z"/>
	<path style="fill:#E54728;" d="M327.164,411.904c3.345,0.321,6.747,0.481,10.172,0.481c58.834,0,106.533-47.699,106.533-106.533
		s-47.699-106.533-106.533-106.533c-52.74,0-96.521,38.318-105.032,88.64c-0.985,5.819-1.501,11.799-1.501,17.893
		C230.803,361.26,273.095,406.783,327.164,411.904z"/>
	<path style="fill:#E54728;" d="M232.303,287.959c-3.345-0.321-6.747-0.481-10.172-0.481c-58.845,0-106.533,47.699-106.533,106.533
		s47.688,106.533,106.533,106.533c52.74,0,96.521-38.318,105.032-88.64"/>
</g>
<path style="fill:#333333;" d="M174.669,235.976c-65.058,0-117.988-52.93-117.988-117.988S109.609,0,174.669,0
	s117.988,52.93,117.988,117.988S239.727,235.976,174.669,235.976z M174.669,22.91c-52.427,0-95.078,42.652-95.078,95.078
	s42.651,95.078,95.078,95.078s95.078-42.652,95.078-95.078S227.095,22.91,174.669,22.91z"/>
<circle style="fill:#F95428;" cx="174.669" cy="117.988" r="68.284"/>
<path style="fill:#E54728;" d="M174.669,182.832c-35.755,0-64.844-29.089-64.844-64.844s29.089-64.844,64.844-64.844
	s64.844,29.089,64.844,64.844S210.424,182.832,174.669,182.832z M174.669,76.054c-23.122,0-41.934,18.812-41.934,41.934
	s18.812,41.934,41.934,41.934c23.123,0,41.934-18.812,41.934-41.934C216.603,94.866,197.791,76.054,174.669,76.054z"/>
<path style="fill:#333333;" d="M174.669,197.724c-43.966,0-79.736-35.77-79.736-79.736s35.77-79.736,79.736-79.736
	c43.967,0,79.736,35.77,79.736,79.736C254.405,161.955,218.636,197.724,174.669,197.724z M174.669,61.163
	c-31.334,0-56.826,25.492-56.826,56.826c0,31.334,25.491,56.826,56.826,56.826s56.826-25.492,56.826-56.826
	C231.495,86.655,206.002,61.163,174.669,61.163z"/>
<circle style="fill:#F95428;" cx="337.332" cy="305.853" r="68.284"/>
<path style="fill:#E54728;" d="M337.332,370.697c-35.756,0-64.844-29.089-64.844-64.844s29.089-64.844,64.844-64.844
	s64.843,29.089,64.843,64.844C402.177,341.608,373.087,370.697,337.332,370.697z M337.332,263.919
	c-23.123,0-41.934,18.812-41.934,41.934s18.812,41.934,41.934,41.934c23.122,0,41.933-18.812,41.933-41.934
	C379.266,282.731,360.454,263.919,337.332,263.919z"/>
<path style="fill:#333333;" d="M337.332,385.589c-43.967,0-79.736-35.77-79.736-79.736s35.77-79.736,79.736-79.736
	s79.735,35.77,79.735,79.736C417.068,349.82,381.298,385.589,337.332,385.589z M337.332,249.027
	c-31.334,0-56.826,25.492-56.826,56.826c0,31.334,25.492,56.826,56.826,56.826s56.824-25.492,56.824-56.826
	C394.158,274.52,368.667,249.027,337.332,249.027z"/>
<path style="fill:#F95428;" d="M232.816,326.564c-3.482-0.55-7.056-0.836-10.688-0.836c-37.71,0-68.284,30.574-68.284,68.284
	s30.574,68.284,68.284,68.284c35.236,0,64.241-26.702,67.883-60.976"/>
<path style="fill:#E54728;" d="M222.16,457.678c-35.755,0-64.844-29.089-64.844-64.844s29.089-64.844,64.844-64.844
	s64.844,29.089,64.844,64.844S257.915,457.678,222.16,457.678z M222.16,350.899c-23.123,0-41.934,18.812-41.934,41.934
	c0,23.122,18.812,41.934,41.934,41.934s41.934-18.812,41.934-41.934C264.094,369.711,245.282,350.899,222.16,350.899z"/>
<path style="fill:#333333;" d="M337.332,187.865c-54.763,0-100.926,37.502-114.169,88.172c-0.345-0.003-0.69-0.013-1.036-0.013
	c-65.058,0-117.988,52.93-117.988,117.988S157.069,512,222.128,512c28.047,0,55.229-10.012,76.537-28.19
	c18.446-15.737,31.575-36.756,37.639-59.983c0.343,0.003,0.684,0.013,1.028,0.013c65.058,0,117.988-52.93,117.988-117.988
	S402.391,187.865,337.332,187.865z M223.581,337.211c8.21,29.744,27.798,54.811,53.771,70.208
	c-6.039,25.207-28.602,43.422-55.223,43.422c-31.336,0-56.829-25.493-56.829-56.829s25.493-56.829,56.829-56.829
	C222.612,337.183,223.097,337.199,223.581,337.211z M222.129,489.09c-52.426,0-95.078-42.652-95.078-95.078
	c0-51.561,41.263-93.636,92.497-95.013c-0.131,2.269-0.204,4.552-0.204,6.854c0,2.852,0.108,5.681,0.308,8.483
	c-42.824,1.316-77.262,36.539-77.262,79.676c0,43.968,35.771,79.739,79.739,79.739c35.77,0,66.335-23.444,76.306-56.506
	c4.793,1.678,9.723,3.06,14.774,4.114C301.362,461.217,264.744,489.09,222.129,489.09z M337.332,400.931
	c-52.427,0-95.078-42.652-95.078-95.078s42.652-95.078,95.078-95.078s95.078,42.652,95.078,95.078S389.759,400.931,337.332,400.931z
	"/>
<g>
	<path style="fill:#F9A493;" d="M246.836,129.443c-6.327,0-11.455-5.128-11.455-11.455c0-21.982-11.973-42.317-31.247-53.068
		c-5.525-3.083-7.505-10.06-4.423-15.585c3.081-5.525,10.059-7.505,15.584-4.424c26.522,14.795,42.997,42.796,42.997,73.077
		C258.292,124.315,253.163,129.443,246.836,129.443z"/>
	<path style="fill:#F9A493;" d="M410.666,316.97c-6.326,0-11.455-5.128-11.455-11.455c0-21.982-11.973-42.318-31.246-53.068
		c-5.525-3.081-7.507-10.059-4.424-15.585c3.081-5.526,10.06-7.505,15.584-4.424c26.521,14.794,42.997,42.795,42.997,73.077
		C422.121,311.842,416.991,316.97,410.666,316.97z"/>
	<circle style="fill:#F9A493;" cx="338.501" cy="233.353" r="11.455"/>
	<circle style="fill:#F9A493;" cx="201.589" cy="323.895" r="11.455"/>
	<circle style="fill:#F9A493;" cx="174.669" cy="45.821" r="11.455"/>
</g>
</svg>