<svg version="1.1" xmlns="http://www.w3.org/2000/svg" width="128" height="128">
<path d="M0 0 C1.18078125 -0.03738281 2.3615625 -0.07476562 3.578125 -0.11328125 C13.34329207 -0.21225254 13.34329207 -0.21225254 17.015625 2.7734375 C20.07479092 6.33533349 20.37141627 7.90453096 20.3125 12.5 C20.30347656 13.41007813 20.29445313 14.32015625 20.28515625 15.2578125 C20.27355469 15.95648438 20.26195313 16.65515625 20.25 17.375 C21.735 17.87 21.735 17.87 23.25 18.375 C24.84901147 21.57302294 24.75072781 24.90420172 24.25 28.375 C22.5 30.875 22.5 30.875 20.25 32.375 C18.93 32.375 17.61 32.375 16.25 32.375 C16.1675 33.24125 16.085 34.1075 16 35 C15.12646688 38.93089903 13.74803636 41.23461143 11.25 44.375 C9 45.75 9 45.75 7.25 46.375 C8.24 47.695 9.23 49.015 10.25 50.375 C14.37973628 49.80760132 14.37973628 49.80760132 18.25 48.375 C24.35555762 48.06423809 30.23529099 48.26702729 36.25 49.375 C36.91 49.045 37.57 48.715 38.25 48.375 C40.08128771 48.27891392 41.91619959 48.24517421 43.75 48.25 C44.7296875 48.24742188 45.709375 48.24484375 46.71875 48.2421875 C49.25 48.375 49.25 48.375 51.25 49.375 C51.31058594 48.62734375 51.37117188 47.8796875 51.43359375 47.109375 C51.55927734 45.63210937 51.55927734 45.63210937 51.6875 44.125 C51.80931641 42.66320313 51.80931641 42.66320313 51.93359375 41.171875 C52.20074584 38.81038247 52.60371968 36.65598935 53.25 34.375 C52.1053125 34.0965625 52.1053125 34.0965625 50.9375 33.8125 C48.25 32.375 48.25 32.375 46.3125 29.1875 C45.06412951 24.70805293 45.42408789 22.60779626 47.25 18.375 C51.7250388 15.3916408 56.00630352 15.78383656 61.25 16.375 C64.3125 17.8125 64.3125 17.8125 66.25 20.375 C67.2378487 23.4945222 67.79722477 26.16161466 68.25 29.375 C68.43433594 30.53386719 68.61867188 31.69273438 68.80859375 32.88671875 C69.87530374 40.2801225 70.46933006 47.59134014 70.5625 55.0625 C70.58006348 55.816521 70.59762695 56.57054199 70.61572266 57.34741211 C70.61059351 61.89440404 70.0268212 64.75248026 67.25 68.375 C64.57397466 70.98060362 63.19305321 72.29117305 59.4375 72.625 C58.715625 72.5425 57.99375 72.46 57.25 72.375 C56.755 73.86 56.755 73.86 56.25 75.375 C50.6353466 79.55612487 46.13620228 80.01911756 39.25 79.375 C38.30125 79.16875 37.3525 78.9625 36.375 78.75 C33.65912772 78.27072842 32.62032025 79.07514696 30.25 80.375 C28.93 80.375 27.61 80.375 26.25 80.375 C26.25523682 81.43001709 26.26047363 82.48503418 26.26586914 83.57202148 C26.28391901 87.4725663 26.29543195 91.3731074 26.30493164 95.27368164 C26.3099719 96.96444316 26.31680405 98.65520029 26.32543945 100.34594727 C26.33751857 102.77100707 26.34323123 105.19600944 26.34765625 107.62109375 C26.35281754 108.38151474 26.35797882 109.14193573 26.36329651 109.92539978 C26.36349238 111.7423257 26.31197277 113.55913127 26.25 115.375 C25.25 116.375 25.25 116.375 22.29077148 116.48852539 C20.99727783 116.48328857 19.70378418 116.47805176 18.37109375 116.47265625 C17.34110008 116.47053383 17.34110008 116.47053383 16.29029846 116.46836853 C14.08932199 116.46275479 11.88844591 116.45020007 9.6875 116.4375 C8.19856917 116.43248676 6.70963676 116.42792355 5.22070312 116.42382812 C1.56376925 116.41278093 -2.09310558 116.39550713 -5.75 116.375 C-6.245 118.355 -6.245 118.355 -6.75 120.375 C-12.03 120.375 -17.31 120.375 -22.75 120.375 C-23.08 121.365 -23.41 122.355 -23.75 123.375 C-26.87706959 124.9385348 -30.32982443 124.77458487 -33.75 124.375 C-35.235 123.385 -35.235 123.385 -36.75 122.375 C-36.75 121.715 -36.75 121.055 -36.75 120.375 C-37.89339844 120.38660156 -39.03679688 120.39820312 -40.21484375 120.41015625 C-41.70572754 120.41953288 -43.19661309 120.42863321 -44.6875 120.4375 C-45.44224609 120.44587891 -46.19699219 120.45425781 -46.97460938 120.46289062 C-48.89994313 120.47152441 -50.82535581 120.42724333 -52.75 120.375 C-54.63319268 118.49180732 -53.88054285 115.25569863 -53.8828125 112.75 C-53.88376923 112.08790527 -53.88472595 111.42581055 -53.88571167 110.74365234 C-53.88639326 109.34147039 -53.88454042 107.9392853 -53.88037109 106.53710938 C-53.87502246 104.38404287 -53.8803167 102.23118498 -53.88671875 100.078125 C-53.88605796 98.71874954 -53.88477679 97.3593742 -53.8828125 96 C-53.88168457 94.75476563 -53.88055664 93.50953125 -53.87939453 92.2265625 C-53.75 89.375 -53.75 89.375 -52.75 88.375 C-50.89712498 88.30273498 -49.04166122 88.2911878 -47.1875 88.3125 C-45.66962891 88.32603516 -45.66962891 88.32603516 -44.12109375 88.33984375 C-43.33863281 88.35144531 -42.55617188 88.36304687 -41.75 88.375 C-41.770625 87.3025 -41.79125 86.23 -41.8125 85.125 C-41.76345128 82.1820768 -41.46872873 80.14723939 -40.75 77.375 C-41.08 76.715 -41.41 76.055 -41.75 75.375 C-42.2414074 69.54255803 -42.58075678 64.19627447 -40.125 58.8125 C-36.08679417 54.6680256 -32.84032184 52.17562365 -26.96484375 51.94140625 C-24.31013306 51.91157804 -21.66042258 51.93787471 -19.00585938 51.97460938 C-13.24335771 51.95819718 -13.24335771 51.95819718 -8.62890625 48.83984375 C-8.00886719 48.02644531 -7.38882813 47.21304688 -6.75 46.375 C-7.3275 46.148125 -7.905 45.92125 -8.5 45.6875 C-11.45347142 43.96464167 -12.89594785 42.25197747 -14.75 39.375 C-15.5 35.5625 -15.5 35.5625 -15.75 32.375 C-17.1421875 32.313125 -17.1421875 32.313125 -18.5625 32.25 C-21.75 31.375 -21.75 31.375 -23.75 28.75 C-25.00033635 24.53011483 -24.47756931 22.37981977 -22.75 18.375 C-21.76 18.045 -20.77 17.715 -19.75 17.375 C-19.80800781 16.72273438 -19.86601563 16.07046875 -19.92578125 15.3984375 C-20.34027551 7.36909145 -20.34027551 7.36909145 -17.375 3.8125 C-12.22933847 -0.96561428 -6.74457154 0.07994643 0 0 Z M-13.75 7.375 C-14.94995387 10.4839714 -15.75 13.03673764 -15.75 16.375 C-13.0594472 15.15492056 -13.0594472 15.15492056 -10.75 13.375 C-7.32056561 13.0955991 -3.87696315 13.14318619 -0.4375 13.125 C0.52607422 13.104375 1.48964844 13.08375 2.48242188 13.0625 C3.41248047 13.05734375 4.34253906 13.0521875 5.30078125 13.046875 C6.15325439 13.0375293 7.00572754 13.02818359 7.8840332 13.01855469 C10.73757362 13.44845552 12.04308861 14.57670996 14.25 16.375 C14.91 16.375 15.57 16.375 16.25 16.375 C15.87438369 11.30188002 15.87438369 11.30188002 13.375 7 C9.36163375 3.93095522 5.27492577 4.16008559 0.4375 4.125 C-0.61147461 4.0940625 -0.61147461 4.0940625 -1.68164062 4.0625 C-6.45617439 4.02676916 -9.75868291 4.72825407 -13.75 7.375 Z M-10.79296875 19.66796875 C-12.96027427 25.79834722 -11.93696988 31.44065714 -9.71875 37.38671875 C-8.2214879 40.45972846 -6.79151115 41.82044986 -3.75 43.375 C-0.93487741 43.96885953 1.44423804 44.04520225 4.25 43.375 C7.28722197 40.93201712 9.09424433 38.6086335 11.25 35.375 C11.44483979 32.64437763 11.52893643 30.03975836 11.5 27.3125 C11.50773437 26.57966797 11.51546875 25.84683594 11.5234375 25.09179688 C11.6555717 20.76766152 11.6555717 20.76766152 9.25 17.375 C6.29373167 16.88051556 3.30550861 16.95846271 0.3125 16.9375 C-0.51185547 16.90462891 -1.33621094 16.87175781 -2.18554688 16.83789062 C-7.11552843 16.68365077 -7.11552843 16.68365077 -10.79296875 19.66796875 Z M51.25 22.375 C50.58314062 24.83172892 50.58314062 24.83172892 51.25 27.375 C54.11103423 29.61743223 55.59076304 30.375 59.25 30.375 C58.95351562 31.63183594 58.65703125 32.88867188 58.3515625 34.18359375 C57.15550942 39.56583259 56.36974868 44.97727625 55.625 50.4375 C55.4909375 51.39849609 55.356875 52.35949219 55.21875 53.34960938 C54.89258935 55.69097687 54.56973298 58.03274764 54.25 60.375 C52.93 60.375 51.61 60.375 50.25 60.375 C50.311875 59.59125 50.37375 58.8075 50.4375 58 C50.375625 57.13375 50.31375 56.2675 50.25 55.375 C46.52420911 52.89113941 44.66288598 52.9945788 40.25 53.375 C39.38375 53.91125 38.5175 54.4475 37.625 55 C36.84125 55.45375 36.0575 55.9075 35.25 56.375 C32.6875 55.625 32.6875 55.625 30.25 54.375 C28.93 54.045 27.61 53.715 26.25 53.375 C26.25 60.635 26.25 67.895 26.25 75.375 C28.23 74.715 30.21 74.055 32.25 73.375 C35.25 72.375 35.25 72.375 37.5 73.3125 C41.01958095 74.67233809 43.49756038 74.76999364 47.25 74.375 C50.18282876 72.67082863 50.18282876 72.67082863 53.25 70.375 C55.83730538 69.07135 58.44827797 67.83640185 61.078125 66.62109375 C63.53973847 65.42318552 63.53973847 65.42318552 65.25 62.375 C66.17333189 53.10570718 65.11853191 43.76064548 63.9375 34.5625 C63.81995361 33.60174561 63.70240723 32.64099121 63.58129883 31.65112305 C63.4552124 30.74918213 63.32912598 29.84724121 63.19921875 28.91796875 C63.08924561 28.11383545 62.97927246 27.30970215 62.8659668 26.48120117 C62.13772303 23.99108664 61.26792051 22.97582396 59.25 21.375 C55.39273128 20.12138767 54.75550658 20.03799561 51.25 22.375 Z M-17.75 21.375 C-18.08 23.025 -18.41 24.675 -18.75 26.375 C-17.76 26.87 -17.76 26.87 -16.75 27.375 C-16.75 25.395 -16.75 23.415 -16.75 21.375 C-17.08 21.375 -17.41 21.375 -17.75 21.375 Z M16.25 21.375 C16.25 23.355 16.25 25.335 16.25 27.375 C17.24 27.045 18.23 26.715 19.25 26.375 C18.92 24.725 18.59 23.075 18.25 21.375 C17.59 21.375 16.93 21.375 16.25 21.375 Z M-1.75 48.375 C-4.11184777 51.15787281 -4.7739463 52.71647675 -4.640625 56.3828125 C-4.42921875 57.41148438 -4.2178125 58.44015625 -4 59.5 C-3.79890625 60.53382812 -3.5978125 61.56765625 -3.390625 62.6328125 C-2.77851832 65.44297448 -2.77851832 65.44297448 -1.75 68.375 C-0.43 68.375 0.89 68.375 2.25 68.375 C2.78414112 66.48287298 3.30178329 64.58608364 3.8125 62.6875 C4.10253906 61.63175781 4.39257812 60.57601562 4.69140625 59.48828125 C5.53715211 54.77457881 4.89244318 52.33866476 2.25 48.375 C0.93 48.375 -0.39 48.375 -1.75 48.375 Z M14.25 56.375 C13.71301487 58.65938755 13.62178727 60.81835365 13.51171875 63.16015625 C13.00613713 67.438735 10.00030033 69.70581322 6.9375 72.4375 C5.01115742 74.20630592 5.01115742 74.20630592 5.3125 76.4375 C6.12327931 78.44649645 6.12327931 78.44649645 7.79296875 79.68359375 C9.76633089 81.9743868 9.58872845 83.39372394 9.5 86.375 C9.48453125 87.24125 9.4690625 88.1075 9.453125 89 C9.25 91.375 9.25 91.375 8.25 94.375 C3.61297289 95.9206757 -0.87471651 95.43235628 -5.75 95.375 C-5.75 100.985 -5.75 106.595 -5.75 112.375 C3.16 112.375 12.07 112.375 21.25 112.375 C21.25 92.905 21.25 73.435 21.25 53.375 C18.31926659 53.375 16.57601161 54.77586702 14.25 56.375 Z M-20.75 56.375 C-20.75 66.935 -20.75 77.495 -20.75 88.375 C-17.12 88.375 -13.49 88.375 -9.75 88.375 C-9.605625 87.281875 -9.46125 86.18875 -9.3125 85.0625 C-8.75 81.375 -8.75 81.375 -7.75 78.375 C-6.76 78.045 -5.77 77.715 -4.75 77.375 C-4.79452419 75.04608098 -4.79452419 75.04608098 -5.75 72.375 C-6.69875 71.67375 -7.6475 70.9725 -8.625 70.25 C-13.15497312 66.88518824 -13.69762536 61.64610456 -14.75 56.375 C-16.73 56.375 -18.71 56.375 -20.75 56.375 Z M-35.75 62.375 C-37.60877715 66.0925543 -37.32823915 70.32732596 -36.75 74.375 C-34.64400826 77.56828884 -34.64400826 77.56828884 -31.75 79.375 C-30.76 79.375 -29.77 79.375 -28.75 79.375 C-29.08 81.025 -29.41 82.675 -29.75 84.375 C-32.06 84.045 -34.37 83.715 -36.75 83.375 C-37.2444775 89.77024228 -37.47067446 94.80697469 -34.125 100.4375 C-31.76454947 104.50089394 -31.59106935 106.71479718 -32.5625 111.3125 C-32.81644531 112.20839844 -33.07039063 113.10429688 -33.33203125 114.02734375 C-34.07578422 116.63594127 -34.07578422 116.63594127 -31.75 119.375 C-29.275 118.88 -29.275 118.88 -26.75 118.375 C-26.59616517 113.0433005 -26.59616517 113.0433005 -27.375 107.8125 C-27.75 105.375 -27.75 105.375 -26.77734375 102.3359375 C-25.3944953 97.74897178 -25.56699508 93.31331523 -25.6875 88.5625 C-25.72186215 86.86857337 -25.7520191 85.17455459 -25.77734375 83.48046875 C-25.79531006 82.73949951 -25.81327637 81.99853027 -25.83178711 81.23510742 C-25.75 79.375 -25.75 79.375 -24.75 77.375 C-24.6515658 74.55225463 -24.61101708 71.75971903 -24.625 68.9375 C-24.62113281 68.16083984 -24.61726563 67.38417969 -24.61328125 66.58398438 C-24.61900011 63.26418828 -24.69331169 60.54506494 -25.75 57.375 C-30.84013972 57.375 -32.11610885 58.98336826 -35.75 62.375 Z M-9.75 57.375 C-8.75 60.375 -8.75 60.375 -8.75 60.375 Z M-8.75 61.375 C-7.75 63.375 -7.75 63.375 -7.75 63.375 Z M8.25 61.375 C9.25 63.375 9.25 63.375 9.25 63.375 Z M-4.75 83.375 C-5.08333333 86.375 -5.08333333 86.375 -4.75 89.375 C-2.86499729 91.69063087 -2.86499729 91.69063087 0.25 91.625 C3.36499729 91.69063087 3.36499729 91.69063087 5.25 89.375 C5.58333333 86.375 5.58333333 86.375 5.25 83.375 C3.36499729 81.05936913 3.36499729 81.05936913 0.25 81.125 C-2.86499729 81.05936913 -2.86499729 81.05936913 -4.75 83.375 Z M-49.75 92.375 C-49.75 100.295 -49.75 108.215 -49.75 116.375 C-46.12 116.375 -42.49 116.375 -38.75 116.375 C-36.69954538 114.32454538 -36.93985172 110.83707017 -36.67578125 108.078125 C-36.7749439 104.46651684 -37.95384972 102.20345547 -39.7578125 99.13671875 C-40.99060373 96.94778629 -41.4399473 94.85542157 -41.75 92.375 C-44.39 92.375 -47.03 92.375 -49.75 92.375 Z M-20.75 92.375 C-21.11692116 94.87370275 -21.4687099 97.37309525 -21.8125 99.875 C-21.91626953 100.57109375 -22.02003906 101.2671875 -22.12695312 101.984375 C-22.80235795 107.01497643 -22.55733869 111.36159609 -21.75 116.375 C-18.12 116.375 -14.49 116.375 -10.75 116.375 C-10.75 115.055 -10.75 113.735 -10.75 112.375 C-13.39 112.375 -16.03 112.375 -18.75 112.375 C-18.75 107.095 -18.75 101.815 -18.75 96.375 C-16.11 96.375 -13.47 96.375 -10.75 96.375 C-10.75 95.055 -10.75 93.735 -10.75 92.375 C-14.05 92.375 -17.35 92.375 -20.75 92.375 Z M-13.75 100.375 C-13.75 103.015 -13.75 105.655 -13.75 108.375 C-12.76 108.375 -11.77 108.375 -10.75 108.375 C-10.75 105.735 -10.75 103.095 -10.75 100.375 C-11.74 100.375 -12.73 100.375 -13.75 100.375 Z " fill="#000000" transform="translate(55.75,1.625)" data-index="0"></path>
<path d="M0 0 C1.98 0 3.96 0 6 0 C6.33 0.66 6.66 1.32 7 2 C8.32 2 9.64 2 11 2 C11.33 1.34 11.66 0.68 12 0 C13.65 0 15.3 0 17 0 C16.6875 2.875 16.6875 2.875 16 6 C12.32396731 8.45068846 9.27238966 8.70632248 5 8 C2.33864658 6.08928472 1.28153787 4.84461361 0.25 1.75 C0.1675 1.1725 0.085 0.595 0 0 Z " fill="#000000" transform="translate(47,34)" data-index="1"></path>
<path d="M0 0 C1.65 0 3.3 0 5 0 C5 1.32 5 2.64 5 4 C3.35 4 1.7 4 0 4 C0 2.68 0 1.36 0 0 Z " fill="#000000" transform="translate(53,86)" data-index="2"></path>
<path d="M0 0 C1.32 0 2.64 0 4 0 C4 1.32 4 2.64 4 4 C2.35 3.67 0.7 3.34 -1 3 C-0.67 2.01 -0.34 1.02 0 0 Z " fill="#000000" transform="translate(60,26)" data-index="3"></path>
<path d="M0 0 C1.32 0 2.64 0 4 0 C4 1.32 4 2.64 4 4 C2.35 3.67 0.7 3.34 -1 3 C-0.67 2.01 -0.34 1.02 0 0 Z " fill="#000000" transform="translate(48,26)" data-index="4"></path>
</svg>