<svg width="16" height="16" viewBox="0 0 16 16" fill="none" xmlns="http://www.w3.org/2000/svg">
<g clip-path="url(#clip0_361_3460)">
<path d="M11.9997 5.33333C11.9997 5.68696 11.8592 6.02609 11.6091 6.27614C11.3591 6.52619 11.02 6.66667 10.6663 6.66667C10.3127 6.66667 9.97358 6.52619 9.72353 6.27614C9.47348 6.02609 9.33301 5.68696 9.33301 5.33333C9.33301 4.97971 9.47348 4.64057 9.72353 4.39052C9.97358 4.14048 10.3127 4 10.6663 4C11.02 4 11.3591 4.14048 11.6091 4.39052C11.8592 4.64057 11.9997 4.97971 11.9997 5.33333Z" fill="#F99746"/>
<path fill-rule="evenodd" clip-rule="evenodd" d="M7.96167 0.833308H8.03767C9.57701 0.833308 10.783 0.833308 11.7243 0.959975C12.687 1.08931 13.447 1.35997 14.0437 1.95598C14.6403 2.55264 14.9103 3.31264 15.0397 4.27597C15.1663 5.21664 15.1663 6.42264 15.1663 7.96198V8.02064C15.1663 9.29331 15.1663 10.3346 15.097 11.1826C15.0277 12.036 14.8857 12.7473 14.567 13.3393C14.4275 13.5998 14.253 13.8346 14.0437 14.044C13.447 14.6406 12.687 14.9106 11.7237 15.04C10.783 15.1666 9.57701 15.1666 8.03767 15.1666H7.96167C6.42234 15.1666 5.21634 15.1666 4.27501 15.04C3.31234 14.9106 2.55234 14.64 1.95567 14.044C1.42701 13.5153 1.15367 12.8573 1.00901 12.04C0.865675 11.238 0.839674 10.24 0.834341 9.00131C0.833452 8.68575 0.833008 8.35198 0.833008 7.99998V7.96131C0.833008 6.42198 0.833008 5.21598 0.959675 4.27464C1.08901 3.31198 1.35967 2.55198 1.95567 1.95531C2.55234 1.35864 3.31234 1.08864 4.27567 0.959308C5.21634 0.832642 6.42234 0.832642 7.96167 0.832642M4.40834 1.94998C3.55634 2.06464 3.04234 2.28331 2.66301 2.66264C2.28301 3.04264 2.06501 3.55597 1.95034 4.40864C1.83434 5.27531 1.83301 6.41398 1.83301 7.99931V8.56198L2.50034 7.97798C2.79306 7.72174 3.17222 7.58635 3.56103 7.59922C3.94984 7.6121 4.31922 7.77227 4.59434 8.04731L7.45434 10.9073C7.67628 11.1292 7.96938 11.2657 8.28204 11.2928C8.59471 11.3198 8.9069 11.2358 9.16368 11.0553L9.36234 10.9153C9.7328 10.655 10.1806 10.5281 10.6326 10.5553C11.0845 10.5826 11.5138 10.7624 11.8503 11.0653L13.737 12.7633C13.9277 12.3646 14.0403 11.8406 14.1003 11.1013C14.1657 10.298 14.1663 9.29664 14.1663 7.99931C14.1663 6.41398 14.165 5.27531 14.049 4.40864C13.9343 3.55597 13.7157 3.04198 13.3363 2.66197C12.9563 2.28264 12.443 2.06464 11.5903 1.94998C10.7237 1.83397 9.58501 1.83264 7.99967 1.83264C6.41434 1.83264 5.27501 1.83397 4.40834 1.94998Z" fill="#F99746"/>
</g>
<defs>
<clipPath id="clip0_361_3460">
<rect width="16" height="16" fill="white"/>
</clipPath>
</defs>
</svg>
