<svg width="24" height="24" viewBox="0 0 24 24" fill="none" xmlns="http://www.w3.org/2000/svg">
<g clip-path="url(#clip0_13_2402)">
<path d="M4.40079 11.9043C4.40042 13.2486 4.75167 14.5612 5.41958 15.7182L4.33691 19.6712L8.38231 18.6104C9.50122 19.2196 10.7549 19.5387 12.0288 19.5388H12.0322C16.2378 19.5388 19.6612 16.1166 19.663 11.9103C19.6638 9.87203 18.8707 7.95538 17.4299 6.51339C15.9893 5.07153 14.0733 4.27705 12.0319 4.27612C7.82578 4.27612 4.40259 7.69814 4.40085 11.9043" fill="url(#paint0_linear_13_2402)"/>
<path d="M4.12837 11.9018C4.12793 13.2944 4.49178 14.654 5.1835 15.8524L4.06201 19.9471L8.25246 18.8484C9.40707 19.4779 10.707 19.8098 12.0298 19.8103H12.0332C16.3897 19.8103 19.9361 16.265 19.938 11.9081C19.9387 9.79659 19.1171 7.81104 17.6248 6.3174C16.1323 4.82394 14.1478 4.00087 12.0332 4C7.67603 4 4.1301 7.54481 4.12837 11.9018ZM6.62393 15.646L6.46747 15.3976C5.80973 14.3518 5.46257 13.1433 5.46307 11.9023C5.46443 8.28087 8.41166 5.33457 12.0357 5.33457C13.7908 5.33532 15.4401 6.01947 16.6807 7.26078C17.9212 8.5022 18.6038 10.1524 18.6033 11.9076C18.6017 15.529 15.6544 18.4757 12.0332 18.4757H12.0306C10.8515 18.475 9.69513 18.1584 8.68663 17.56L8.44663 17.4177L5.95993 18.0696L6.62393 15.646Z" fill="url(#paint1_linear_13_2402)"/>
<path d="M10.0575 8.59831C9.90956 8.26944 9.75384 8.2628 9.61313 8.25704C9.4979 8.25208 9.36618 8.25245 9.23459 8.25245C9.10286 8.25245 8.88885 8.302 8.70795 8.49952C8.52687 8.69722 8.0166 9.17499 8.0166 10.1467C8.0166 11.1184 8.72438 12.0576 8.82305 12.1895C8.92184 12.3212 10.1894 14.3791 12.197 15.1708C13.8655 15.8287 14.205 15.6978 14.5671 15.6649C14.9293 15.632 15.7357 15.1872 15.9003 14.726C16.0649 14.2649 16.0649 13.8696 16.0155 13.787C15.9662 13.7047 15.8345 13.6552 15.6369 13.5565C15.4394 13.4578 14.4683 12.9799 14.2873 12.914C14.1062 12.8481 13.9746 12.8152 13.8428 13.013C13.7111 13.2105 13.3329 13.6552 13.2176 13.787C13.1024 13.919 12.9871 13.9354 12.7897 13.8366C12.592 13.7375 11.956 13.5292 11.2013 12.8564C10.6141 12.3329 10.2177 11.6864 10.1025 11.4886C9.98727 11.2911 10.0902 11.1841 10.1892 11.0857C10.2779 10.9972 10.3868 10.8551 10.4856 10.7398C10.5841 10.6244 10.617 10.5421 10.6828 10.4104C10.7488 10.2786 10.7158 10.1632 10.6665 10.0644C10.617 9.96563 10.2332 8.98882 10.0575 8.59831Z" fill="white"/>
</g>
<defs>
<linearGradient id="paint0_linear_13_2402" x1="770.641" y1="1543.78" x2="770.641" y2="4.27612" gradientUnits="userSpaceOnUse">
<stop stop-color="#1FAF38"/>
<stop offset="1" stop-color="#60D669"/>
</linearGradient>
<linearGradient id="paint1_linear_13_2402" x1="797.86" y1="1598.71" x2="797.86" y2="4" gradientUnits="userSpaceOnUse">
<stop stop-color="#F9F9F9"/>
<stop offset="1" stop-color="white"/>
</linearGradient>
<clipPath id="clip0_13_2402">
<rect width="15.876" height="16" fill="white" transform="translate(4.06201 4)"/>
</clipPath>
</defs>
</svg>
