<svg width="24" height="24" viewBox="0 0 24 24" fill="none" xmlns="http://www.w3.org/2000/svg">
<path d="M5.68403 17.4356H5.65279C4.71834 17.4309 3.79951 17.2046 2.97769 16.7766C2.15587 16.3486 1.45642 15.7322 0.941305 14.9819C0.426189 14.2317 0.111305 13.3708 0.0245455 12.4755C-0.0622142 11.5802 0.0818276 10.6781 0.443913 9.84915C0.805998 9.0202 1.37495 8.28998 2.10037 7.72316C2.82579 7.15634 3.68529 6.77042 4.60273 6.59959C5.52017 6.42875 6.46724 6.47828 7.36004 6.74377C8.25284 7.00927 9.06381 7.48254 9.72113 8.12167L10.6925 9.06494L8.96101 10.7153L7.98967 9.77203C7.53295 9.3282 6.94843 9.02635 6.3116 8.90544C5.67478 8.78453 5.01491 8.85014 4.41723 9.09378C3.81955 9.33742 3.31152 9.7479 2.95875 10.2722C2.60598 10.7965 2.42469 11.4106 2.43828 12.035C2.45315 12.6449 2.65331 13.2373 3.01405 13.7389C3.37479 14.2406 3.88031 14.6296 4.46821 14.858C5.0561 15.0863 5.70062 15.144 6.32219 15.0239C6.94377 14.9038 7.51517 14.6111 7.96587 14.1821L12.5652 9.80925L14.2699 11.4854L12.8508 12.8337L9.67948 15.8539C9.15418 16.3573 8.53093 16.756 7.84536 17.0274C7.15979 17.2988 6.42535 17.4375 5.68403 17.4356Z" fill="black"/>
<path d="M18.3195 17.4943C17.5684 17.4952 16.8247 17.3526 16.1314 17.0747C15.4381 16.7968 14.8091 16.3892 14.2809 15.8754L13.3244 14.9464L15.0559 13.2975L16.0124 14.2265C16.3096 14.5286 16.6666 14.7705 17.0624 14.938C17.4582 15.1055 17.8847 15.1953 18.317 15.202C18.7494 15.2087 19.1787 15.1322 19.5799 14.977C19.981 14.8218 20.3459 14.5911 20.6532 14.2983C20.9604 14.0055 21.2037 13.6567 21.3689 13.2722C21.534 12.8877 21.6177 12.4753 21.6149 12.0593C21.6122 11.6432 21.5231 11.2319 21.3528 10.8494C21.1826 10.467 20.9347 10.1211 20.6236 9.83216C20.3148 9.52811 19.9439 9.28886 19.5343 9.12948C19.1247 8.97009 18.6853 8.89403 18.2436 8.90607C17.4138 8.92354 16.6225 9.24684 16.0332 9.80926L11.5513 14.069L9.84514 12.4043L11.1512 11.1676L14.3225 8.14888C14.9856 7.51726 15.8001 7.0525 16.6941 6.79567C17.5881 6.53884 18.5341 6.49784 19.4484 6.6763C20.3628 6.85476 21.2174 7.24719 21.9368 7.8189C22.6561 8.39061 23.2181 9.12401 23.573 9.9543C23.9279 10.7846 24.0648 11.6862 23.9716 12.5795C23.8784 13.4728 23.558 14.3303 23.0388 15.0761C22.5195 15.822 21.8173 16.4333 20.9942 16.856C20.1711 17.2788 19.2525 17.5 18.3195 17.5V17.4943Z" fill="black"/>
</svg>
