<svg width="25" height="24" viewBox="0 0 25 24" fill="none" xmlns="http://www.w3.org/2000/svg">
<path d="M19.75 3.75H4.75C3.50736 3.75 2.5 4.75736 2.5 6V19.5C2.5 20.7426 3.50736 21.75 4.75 21.75H19.75C20.9926 21.75 22 20.7426 22 19.5V6C22 4.75736 20.9926 3.75 19.75 3.75Z" stroke="black" stroke-width="1.5" stroke-linejoin="round"/>
<path d="M12.2773 15.7316L12.2504 15.7143L12.2235 15.7314L10.6576 16.7252L11.0685 14.8516L11.0747 14.8235L11.0535 14.8041L9.66757 13.5298L11.4875 13.3593L11.5176 13.3564L11.5291 13.3284L12.2501 11.5627L12.9714 13.3422L12.9828 13.3703L13.013 13.3732L14.8322 13.5436L13.4472 14.8039L13.4258 14.8233L13.432 14.8515L13.8429 16.7382L12.2773 15.7316ZM9.72709 17.9892L9.701 18.1068L9.8027 18.0422L12.2503 16.4883L14.6978 18.0417L14.7995 18.1062L14.7734 17.9886L14.1229 15.0582L16.2837 13.0886L16.3676 13.0121L16.2545 13.0019L13.411 12.7429L12.2966 9.98129L12.2503 9.86637L12.2039 9.98129L11.0896 12.7435L8.24547 13.0024L8.13244 13.0127L8.21632 13.0892L10.3771 15.0588L9.72709 17.9892Z" fill="black" stroke="black" stroke-width="0.1"/>
<path d="M6.25 2.25V3.75M18.25 2.25V3.75" stroke="black" stroke-width="1.5" stroke-linecap="round" stroke-linejoin="round"/>
<path d="M22 7.5H2.5" stroke="black" stroke-width="1.5" stroke-linejoin="round"/>
</svg>
