<svg width="25" height="24" viewBox="0 0 25 24" fill="none" xmlns="http://www.w3.org/2000/svg">
<path d="M20.25 3.75H5.25C4.00736 3.75 3 4.75736 3 6V19.5C3 20.7426 4.00736 21.75 5.25 21.75H20.25C21.4926 21.75 22.5 20.7426 22.5 19.5V6C22.5 4.75736 21.4926 3.75 20.25 3.75Z" fill="#FF8A00" stroke="#FF8A00" stroke-width="1.5" stroke-linejoin="round"/>
<path d="M10.9328 17.4798L11.4023 15.468L11.4366 15.321L11.3226 15.2222L9.76036 13.8688L11.8178 13.6907L11.9676 13.6778L12.0263 13.5393L12.8326 11.6398L13.6389 13.5389L13.6977 13.6773L13.8475 13.6902L15.9044 13.8683L14.3422 15.2217L14.2281 15.3206L14.2624 15.4676L14.7324 17.4794L12.9618 16.4114L12.8326 16.3335L12.7035 16.4114L10.9328 17.4798Z" fill="#FF8A00" stroke="white" stroke-width="0.5"/>
<path d="M6.75 2.25V3.75M18.75 2.25V3.75" stroke="#FF8A00" stroke-width="1.5" stroke-linecap="round" stroke-linejoin="round"/>
<path d="M23.25 7.75H2.25" stroke="white" stroke-width="1.5" stroke-linejoin="round"/>
</svg>
