<svg width="22" height="18" viewBox="0 0 22 18" fill="none" xmlns="http://www.w3.org/2000/svg">
<path d="M15.75 18L15.45 16.5C15.25 16.4167 15.0627 16.3293 14.888 16.238C14.7133 16.1467 14.534 16.034 14.35 15.9L12.9 16.35L11.9 14.65L13.05 13.65C13.0167 13.45 13 13.2333 13 13C13 12.7667 13.0167 12.55 13.05 12.35L11.9 11.35L12.9 9.65L14.35 10.1C14.5333 9.96667 14.7127 9.85433 14.888 9.763C15.0633 9.67167 15.2507 9.584 15.45 9.5L15.75 8H17.75L18.05 9.5C18.25 9.58333 18.4377 9.671 18.613 9.763C18.7883 9.855 18.9673 9.96733 19.15 10.1L20.6 9.65L21.6 11.35L20.45 12.35C20.4833 12.55 20.5 12.7667 20.5 13C20.5 13.2333 20.4833 13.45 20.45 13.65L21.6 14.65L20.6 16.35L19.15 15.9C18.9667 16.0333 18.7877 16.146 18.613 16.238C18.4383 16.33 18.2507 16.4173 18.05 16.5L17.75 18H15.75ZM16.75 15C17.3 15 17.771 14.8043 18.163 14.413C18.555 14.0217 18.7507 13.5507 18.75 13C18.7493 12.4493 18.5537 11.9787 18.163 11.588C17.7723 11.1973 17.3013 11.0013 16.75 11C16.1987 10.9987 15.728 11.1947 15.338 11.588C14.948 11.9813 14.752 12.452 14.75 13C14.748 13.548 14.944 14.019 15.338 14.413C15.732 14.807 16.2027 15.0027 16.75 15ZM2.75 16C2.2 16 1.72933 15.8043 1.338 15.413C0.946667 15.0217 0.750667 14.5507 0.75 14V2C0.75 1.45 0.946 0.979333 1.338 0.588C1.73 0.196666 2.20067 0.000666667 2.75 0H8.75L10.75 2H18.75C19.3 2 19.771 2.196 20.163 2.588C20.555 2.98 20.7507 3.45067 20.75 4V7.275C20.1667 6.85833 19.5333 6.54167 18.85 6.325C18.1667 6.10833 17.4583 6 16.725 6C14.7583 6 13.1043 6.68767 11.763 8.063C10.4217 9.43833 9.75067 11.0757 9.75 12.975C9.75 13.5083 9.80833 14.025 9.925 14.525C10.0417 15.025 10.2167 15.5167 10.45 16H2.75Z" fill="#FF8A00"/>
</svg>
