<svg width="23" height="20" viewBox="0 0 23 20" fill="none" xmlns="http://www.w3.org/2000/svg">
<path d="M17.1329 16.8167C17.7557 16.8166 18.2914 16.5812 18.7321 16.1178C19.1729 15.6545 19.3936 15.0938 19.3928 14.4443C19.3921 13.795 19.1715 13.2348 18.7322 12.7723C18.2927 12.3094 17.7569 12.0738 17.1329 12.0722C16.5082 12.0706 15.9723 12.3066 15.5334 12.7727C15.0954 13.2379 14.8744 13.7976 14.8722 14.4439C14.8699 15.0911 15.0913 15.6517 15.5338 16.1177C15.9765 16.5839 16.5121 16.8198 17.1329 16.8167ZM17.1329 16.8167C17.1328 16.8167 17.1326 16.8167 17.1325 16.8167V16.6667L17.1329 16.8167ZM15.9082 18.3053L15.8934 18.2277L15.8211 18.196C15.6138 18.105 15.4202 18.0099 15.2401 17.9108C15.0634 17.8135 14.8805 17.6927 14.6914 17.5476L14.6287 17.4995L14.5535 17.5241L13.1409 17.9857L12.2038 16.3082L13.3297 15.2773L13.3892 15.2228L13.3766 15.1432C13.3428 14.9298 13.3257 14.697 13.3257 14.4444C13.3257 14.1919 13.3428 13.9591 13.3766 13.7457L13.3892 13.666L13.3297 13.6116L12.2038 12.5806L13.1409 10.9031L14.5535 11.3648L14.6286 11.3893L14.6913 11.3413C14.8796 11.1971 15.0625 11.0766 15.2399 10.9793C15.4209 10.88 15.6148 10.7844 15.8216 10.6927L15.8935 10.6608L15.9082 10.5835L16.2015 9.03889H18.0635L18.3568 10.5835L18.3716 10.6612L18.4439 10.6929C18.6511 10.7838 18.845 10.8792 19.0257 10.9791C19.2034 11.0772 19.386 11.1978 19.5737 11.3414L19.6364 11.3893L19.7115 11.3648L21.1241 10.9031L22.0612 12.5806L20.9353 13.6116L20.8758 13.666L20.8884 13.7457C20.9222 13.9591 20.9393 14.1919 20.9393 14.4444C20.9393 14.697 20.9222 14.9298 20.8884 15.1432L20.8758 15.2228L20.9353 15.2773L22.0612 16.3082L21.1241 17.9857L19.7115 17.5241L19.6364 17.4996L19.5737 17.5476C19.3852 17.6919 19.2025 17.8129 19.0255 17.9111C18.8458 18.0107 18.6522 18.1056 18.4445 18.1957L18.3716 18.2273L18.3568 18.3053L18.0635 19.85H16.2015L15.9082 18.3053ZM10.6928 2.32551L10.7371 2.37222H10.8016H19.2428C19.7804 2.37222 20.2386 2.57194 20.625 2.97885C21.0116 3.38599 21.2038 3.87171 21.2031 4.44427V4.44444V7.78924C20.9517 7.61539 20.6899 7.46052 20.4177 7.32468C20.0907 7.16146 19.749 7.01756 19.3928 6.89292V4.44444V4.29444H19.2428H9.99547L7.92951 2.11893L7.88516 2.07222H7.82074H2.36031H2.21031V2.22222V6.66667V7V15.5556V15.7056H2.36031H9.69569C9.74982 16.0574 9.82904 16.4018 9.93338 16.7388C10.027 17.0412 10.1347 17.3375 10.2565 17.6278H2.36031C1.82262 17.6278 1.36486 17.4284 0.979201 17.0223C0.593307 16.6159 0.40066 16.1297 0.4 15.5554L0.4 2.22222C0.4 1.64881 0.592554 1.16308 0.979113 0.756717C1.36557 0.350461 1.82344 0.150709 2.36041 0.15H8.62683L10.6928 2.32551Z" fill="black" stroke="white" stroke-width="0.3"/>
</svg>
