<?xml version="1.0" encoding="utf-8"?>
<!-- Generator: Adobe Illustrator 27.5.0, SVG Export Plug-In . SVG Version: 6.00 Build 0)  -->
<svg version="1.1" xmlns="http://www.w3.org/2000/svg" xmlns:xlink="http://www.w3.org/1999/xlink" x="0px" y="0px"
	 viewBox="0 0 750 500" style="enable-background:new 0 0 750 500;" xml:space="preserve">
<g id="BACKGROUND">
	<rect style="fill:#FFFFFF;" width="750" height="500"/>
</g>
<g id="OBJECTS">
	<path id="BACK_SHAPE" style="fill:#F7C6EC;" d="M80.298,257.117c25.848-49.009,86.053-54.924,127.817-45.145
		c60.684,14.209,80.303,19.897,173.706,7.805c93.403-12.092,113.815-113.686,199.389-91.155
		c85.574,22.53,49.608,72.759,95.703,121.368c8.389,8.847,14.274,17.879,18.288,26.735c16.158,35.647-10.007,76.069-49.144,76.069
		H138.419C89.293,352.794,57.38,300.569,80.298,257.117z M171.47,71.184c-36.32,117.902,223.961,170.935,312.181,52.271
		c53.711-72.245-12.72-100.061-120.105-68.26C290.98,76.685,196.316-9.472,171.47,71.184z"/>
	<g id="WINDOW">
		<rect x="140.517" y="87.268" style="fill:#A89EE5;" width="321.833" height="189.971"/>
		
			<rect x="214.285" y="29.175" transform="matrix(-1.836970e-16 1 -1 -1.836970e-16 483.6876 -119.1795)" style="fill:#F3DBF1;" width="174.296" height="306.159"/>
		<g>
			<path style="fill:#E8D4E8;" d="M454.513,153.197V95.106H168.971C171.6,185.223,356.96,225.139,454.513,153.197z"/>
			<path style="fill:#E8D4E8;" d="M454.513,187.667c-19.468,15.2-41.878,28.24-71.769,32.109
				c-93.403,12.092-113.022,6.404-173.706-7.805c-18.185-4.258-39.865-5.538-60.684-1.583v59.014h306.159V187.667z"/>
		</g>
		<path style="fill:#A89EE5;" d="M148.354,87.269L148.354,87.269l-7.837,0v189.971h7.837h161.029v-2.687v-5.15V95.106v-2.244v-5.594
			H148.354z M301.546,269.402H148.354V95.106h153.191V269.402z"/>
		<rect x="301.546" y="95.106" style="fill:#988ADE;" width="7.837" height="174.296"/>
	</g>
	<g id="FURNITURE">
		<polygon style="fill:#B31B66;" points="317.492,262.564 112.367,262.564 113.542,365.811 316.316,365.811 		"/>
		<g>
			<rect x="121.19" y="271.555" style="fill:#E95D9D;" width="87.848" height="85.264"/>
			<rect x="218.34" y="271.555" style="fill:#E95D9D;" width="89.519" height="39.066"/>
			<rect x="218.34" y="317.753" style="fill:#E95D9D;" width="89.519" height="39.066"/>
		</g>
		<g>
			<path style="fill:#4C2E6D;" d="M125.376,384.108L125.376,384.108c-2.312,0-4.186-1.874-4.186-4.186v-14.112h8.371v14.112
				C129.562,382.234,127.688,384.108,125.376,384.108z"/>
			<path style="fill:#4C2E6D;" d="M303.673,384.108L303.673,384.108c-2.312,0-4.186-1.874-4.186-4.186v-14.112h8.371v14.112
				C307.858,382.234,305.984,384.108,303.673,384.108z"/>
		</g>
		<path style="fill:none;stroke:#4C2E6D;stroke-linecap:round;stroke-linejoin:round;stroke-miterlimit:10;" d="M197.437,314.187
			c0-1.47-1.191-2.661-2.661-2.661s-2.661,1.191-2.661,2.661c0,1.47,1.191,2.661,2.661,2.661S197.437,315.657,197.437,314.187z"/>
		<rect x="105.274" y="253.676" style="fill:#4C2E6D;" width="219.31" height="8.888"/>
		<polygon style="fill:#A0155E;" points="317.441,266.987 317.492,262.564 112.367,262.564 112.402,265.628 		"/>
		
			<circle style="fill:none;stroke:#4C2E6D;stroke-linecap:round;stroke-linejoin:round;stroke-miterlimit:10;" cx="263.099" cy="279.901" r="2.661"/>
		
			<circle style="fill:none;stroke:#4C2E6D;stroke-linecap:round;stroke-linejoin:round;stroke-miterlimit:10;" cx="263.099" cy="327.098" r="2.661"/>
	</g>
	<g>
		<path style="fill:#A89EE5;" d="M165.114,421.35c-12.054,22.612,48.782,42.684,127.431,45.474
			c78.65,2.79,112.237-15.139,106.864-39.275c-7.131-32.037-76.273-14.674-110.068-16.534S180.1,393.239,165.114,421.35z"/>
		<path style="fill:none;stroke:#4C2E6D;stroke-linecap:round;stroke-linejoin:round;stroke-miterlimit:10;" d="M187.645,425.278
			c-7.607,20.125,67.178,29.455,104.901,30.075s96.894-7.03,86.662-27.803c-10.232-20.773-57.311-2.375-89.866-6.199
			C256.786,417.526,195.211,405.258,187.645,425.278z"/>
		
			<line style="fill:none;stroke:#4C2E6D;stroke-linecap:round;stroke-linejoin:round;stroke-miterlimit:10;" x1="159.327" y1="429.153" x2="164.701" y2="428.275"/>
		
			<line style="fill:none;stroke:#4C2E6D;stroke-linecap:round;stroke-linejoin:round;stroke-miterlimit:10;" x1="159.843" y1="420.627" x2="165.321" y2="422.28"/>
		
			<line style="fill:none;stroke:#4C2E6D;stroke-linecap:round;stroke-linejoin:round;stroke-miterlimit:10;" x1="167.388" y1="411.429" x2="170.798" y2="415.459"/>
		
			<line style="fill:none;stroke:#4C2E6D;stroke-linecap:round;stroke-linejoin:round;stroke-miterlimit:10;" x1="182.891" y1="405.124" x2="185.164" y2="409.258"/>
		
			<line style="fill:none;stroke:#4C2E6D;stroke-linecap:round;stroke-linejoin:round;stroke-miterlimit:10;" x1="195.086" y1="403.264" x2="197.049" y2="407.088"/>
		
			<line style="fill:none;stroke:#4C2E6D;stroke-linecap:round;stroke-linejoin:round;stroke-miterlimit:10;" x1="219.58" y1="400.68" x2="222.99" y2="406.158"/>
		
			<line style="fill:none;stroke:#4C2E6D;stroke-linecap:round;stroke-linejoin:round;stroke-miterlimit:10;" x1="244.694" y1="403.161" x2="244.281" y2="408.121"/>
		
			<line style="fill:none;stroke:#4C2E6D;stroke-linecap:round;stroke-linejoin:round;stroke-miterlimit:10;" x1="255.029" y1="409.258" x2="254.719" y2="404.608"/>
		
			<line style="fill:none;stroke:#4C2E6D;stroke-linecap:round;stroke-linejoin:round;stroke-miterlimit:10;" x1="281.797" y1="406.881" x2="281.797" y2="412.152"/>
		
			<line style="fill:none;stroke:#4C2E6D;stroke-linecap:round;stroke-linejoin:round;stroke-miterlimit:10;" x1="294.819" y1="406.158" x2="296.059" y2="412.669"/>
		
			<line style="fill:none;stroke:#4C2E6D;stroke-linecap:round;stroke-linejoin:round;stroke-miterlimit:10;" x1="309.598" y1="403.987" x2="310.322" y2="411.222"/>
		
			<line style="fill:none;stroke:#4C2E6D;stroke-linecap:round;stroke-linejoin:round;stroke-miterlimit:10;" x1="334.196" y1="402.127" x2="333.782" y2="409.052"/>
		
			<line style="fill:none;stroke:#4C2E6D;stroke-linecap:round;stroke-linejoin:round;stroke-miterlimit:10;" x1="350.628" y1="408.535" x2="353.212" y2="403.884"/>
		
			<line style="fill:none;stroke:#4C2E6D;stroke-linecap:round;stroke-linejoin:round;stroke-miterlimit:10;" x1="364.891" y1="408.948" x2="368.405" y2="404.297"/>
		
			<line style="fill:none;stroke:#4C2E6D;stroke-linecap:round;stroke-linejoin:round;stroke-miterlimit:10;" x1="379.566" y1="411.429" x2="383.804" y2="406.778"/>
		
			<line style="fill:none;stroke:#4C2E6D;stroke-linecap:round;stroke-linejoin:round;stroke-miterlimit:10;" x1="388.248" y1="415.046" x2="394.656" y2="411.325"/>
		
			<line style="fill:none;stroke:#4C2E6D;stroke-linecap:round;stroke-linejoin:round;stroke-miterlimit:10;" x1="397.446" y1="424.037" x2="403.854" y2="422.591"/>
		
			<line style="fill:none;stroke:#4C2E6D;stroke-linecap:round;stroke-linejoin:round;stroke-miterlimit:10;" x1="398.893" y1="434.476" x2="404.474" y2="435.716"/>
		
			<line style="fill:none;stroke:#4C2E6D;stroke-linecap:round;stroke-linejoin:round;stroke-miterlimit:10;" x1="393.415" y1="445.638" x2="398.273" y2="450.495"/>
		
			<line style="fill:none;stroke:#4C2E6D;stroke-linecap:round;stroke-linejoin:round;stroke-miterlimit:10;" x1="385.561" y1="451.735" x2="388.248" y2="456.903"/>
		
			<line style="fill:none;stroke:#4C2E6D;stroke-linecap:round;stroke-linejoin:round;stroke-miterlimit:10;" x1="369.542" y1="458.763" x2="372.539" y2="464.447"/>
		
			<line style="fill:none;stroke:#4C2E6D;stroke-linecap:round;stroke-linejoin:round;stroke-miterlimit:10;" x1="355.073" y1="461.76" x2="357.346" y2="467.961"/>
		
			<line style="fill:none;stroke:#4C2E6D;stroke-linecap:round;stroke-linejoin:round;stroke-miterlimit:10;" x1="336.263" y1="464.137" x2="337.09" y2="470.545"/>
		
			<line style="fill:none;stroke:#4C2E6D;stroke-linecap:round;stroke-linejoin:round;stroke-miterlimit:10;" x1="316.833" y1="465.584" x2="317.246" y2="470.958"/>
		
			<line style="fill:none;stroke:#4C2E6D;stroke-linecap:round;stroke-linejoin:round;stroke-miterlimit:10;" x1="299.366" y1="465.274" x2="298.333" y2="471.475"/>
		
			<line style="fill:none;stroke:#4C2E6D;stroke-linecap:round;stroke-linejoin:round;stroke-miterlimit:10;" x1="288.205" y1="465.378" x2="287.791" y2="471.165"/>
		
			<line style="fill:none;stroke:#4C2E6D;stroke-linecap:round;stroke-linejoin:round;stroke-miterlimit:10;" x1="274.459" y1="464.551" x2="272.909" y2="469.718"/>
		
			<line style="fill:none;stroke:#4C2E6D;stroke-linecap:round;stroke-linejoin:round;stroke-miterlimit:10;" x1="259.783" y1="463" x2="257.613" y2="469.822"/>
		
			<line style="fill:none;stroke:#4C2E6D;stroke-linecap:round;stroke-linejoin:round;stroke-miterlimit:10;" x1="238.7" y1="459.28" x2="237.15" y2="466.824"/>
		<path style="fill:none;stroke:#4C2E6D;stroke-linecap:round;stroke-linejoin:round;stroke-miterlimit:10;" d="M218.443,457.006
			c0,0-3.307,7.338-3.307,7.028"/>
		
			<line style="fill:none;stroke:#4C2E6D;stroke-linecap:round;stroke-linejoin:round;stroke-miterlimit:10;" x1="200.874" y1="452.149" x2="197.256" y2="458.35"/>
		
			<line style="fill:none;stroke:#4C2E6D;stroke-linecap:round;stroke-linejoin:round;stroke-miterlimit:10;" x1="187.955" y1="447.911" x2="182.477" y2="453.699"/>
		
			<line style="fill:none;stroke:#4C2E6D;stroke-linecap:round;stroke-linejoin:round;stroke-miterlimit:10;" x1="167.801" y1="445.017" x2="175.553" y2="441.607"/>
		
			<line style="fill:none;stroke:#4C2E6D;stroke-linecap:round;stroke-linejoin:round;stroke-miterlimit:10;" x1="168.421" y1="435.613" x2="163.047" y2="438.3"/>
		<path style="fill:#988ADE;" d="M245.438,434.591c-7.184,8.334,39.824,18.678,49.714,7.954
			C305.042,431.822,255.328,423.119,245.438,434.591z"/>
	</g>
	<g id="PLANTS_1_">
		<g>
			<path style="fill:#B31B66;" d="M399.424,332.323c0,0,1.842-40.927,27.337-67.074c25.495-26.148,51.333-8.578,39.758,13.436
				c-11.575,22.014-28.525,20.153-36.379,62.32L399.424,332.323z"/>
			<path style="fill:none;stroke:#4C2E6D;stroke-linecap:round;stroke-linejoin:round;stroke-miterlimit:10;" d="M451.464,267.419
				c-3.342,3.514-28.699,29.145-37.414,69.038"/>
		</g>
		<g>
			<path style="fill:#E95D9D;" d="M380.738,336.044c0,0-13.436-16.743-6.821-35.759c6.614-19.017,13.229-15.089,15.916-41.34
				c2.687-26.251,16.536-28.938,23.771-29.145c7.235-0.207,16.743,1.24,11.782,32.245c-4.961,31.005-14.262,31.625-11.989,57.256
				C415.671,344.932,389.626,348.24,380.738,336.044z"/>
			<path style="fill:none;stroke:#4C2E6D;stroke-linecap:round;stroke-linejoin:round;stroke-miterlimit:10;" d="M408.643,251.917
				c0,0-15.674,52.922-17.035,90.642"/>
		</g>
		<g>
			<path style="fill:#ECB064;" d="M369.163,336.457c0-1.86-0.62-27.129-9.508-49.427c-8.888-22.298-10.128-38.214,0-43.175
				c10.128-4.961,27.733,8.888,31.953,47.955c4.22,39.066,3.186,44.647,3.186,44.647H369.163z"/>
			<path style="fill:none;stroke:#4C2E6D;stroke-linecap:round;stroke-linejoin:round;stroke-miterlimit:10;" d="M366.476,258.531
				c0,0,16.329,42.58,16.95,77.926"/>
		</g>
		<g>
			<path style="fill:#E95D9D;" d="M354.345,332.478c0,0-4.179-13.548-10.416-28.165c-6.237-14.617,5.339-23.385,12.16-16.953
				c6.821,6.431,11.285,23.191,13.721,42.485L354.345,332.478z"/>
			<path style="fill:none;stroke:#4C2E6D;stroke-linecap:round;stroke-linejoin:round;stroke-miterlimit:10;" d="M351.519,297.691
				c0,0,8.182,15.689,9.11,33.57"/>
		</g>
		<g>
			<path style="fill:#ECB064;" d="M427.685,329.146c0,0,5.072-19.697,18.913-28.137c9.487-5.785,14.079-0.89,11.753,5.311
				c-2.325,6.201-12.654,9.13-18.885,25.191L427.685,329.146z"/>
			<path style="fill:none;stroke:#4C2E6D;stroke-linecap:round;stroke-linejoin:round;stroke-miterlimit:10;" d="M448.303,307.364
				c0,0-7.502,7.437-14.448,23.019"/>
		</g>
		<path style="fill:none;stroke:#4C2E6D;stroke-linecap:round;stroke-linejoin:round;stroke-miterlimit:10;" d="M343.385,315.449
			c2.729,4.311,6.008,10.317,8.976,17.975"/>
		<path style="fill:none;stroke:#4C2E6D;stroke-linecap:round;stroke-linejoin:round;stroke-miterlimit:10;" d="M371.43,305.637
			c0,0-6.183,19.185,1.413,37.6"/>
		<path style="fill:none;stroke:#4C2E6D;stroke-linecap:round;stroke-linejoin:round;stroke-miterlimit:10;" d="M435.669,303.024
			c0,0-9.457,8.212-12.712,27.36"/>
		<path style="fill:none;stroke:#4C2E6D;stroke-linecap:round;stroke-linejoin:round;stroke-miterlimit:10;" d="M405.619,301.542
			c0,0,3.888,16.999-0.322,27.815"/>
		<g>
			<path style="fill:#7B40A9;" d="M441.715,328.81l-8.061,49.401c-52.295,15.503-77.72,0.827-77.72,0.827l-8.061-47.335
				C347.873,331.703,389.419,319.301,441.715,328.81z"/>
			<path style="fill:#683499;" d="M402.576,377.591c-19.597,3.616-38.598-0.54-47.406-3.037l0.764,4.484
				c0,0,25.424,14.676,77.72-0.827l2.158-13.222C431.685,368.102,421.728,374.057,402.576,377.591z"/>
			<path style="fill:none;stroke:#4C2E6D;stroke-linecap:round;stroke-linejoin:round;stroke-miterlimit:10;" d="M352.282,357.593
				c0,0,47.381,10.49,84.736,0"/>
			<path style="fill:#9666CC;" d="M349.397,340.656l0.812,4.767l0,0c0,0,50.635,8.242,88.795,0l0,0l0.943-5.777
				C430.782,340.604,387.6,344.667,349.397,340.656z"/>
		</g>
	</g>
	<g id="DOTS_1_">
		
			<circle style="fill:none;stroke:#4C2E6D;stroke-linecap:round;stroke-linejoin:round;stroke-miterlimit:10;" cx="85.885" cy="342.088" r="4.258"/>
		<path style="fill:none;stroke:#4C2E6D;stroke-linecap:round;stroke-linejoin:round;stroke-miterlimit:10;" d="M162.476,50.816
			c0-2.352-1.906-4.258-4.258-4.258c-2.352,0-4.258,1.906-4.258,4.258s1.906,4.258,4.258,4.258
			C160.569,55.074,162.476,53.167,162.476,50.816z"/>
		
			<circle style="fill:none;stroke:#4C2E6D;stroke-linecap:round;stroke-linejoin:round;stroke-miterlimit:10;" cx="523.897" cy="103.276" r="4.258"/>
		<path style="fill:none;stroke:#4C2E6D;stroke-linecap:round;stroke-linejoin:round;stroke-miterlimit:10;" d="M641.435,107.534
			c0-2.352-1.906-4.258-4.258-4.258c-2.352,0-4.258,1.906-4.258,4.258s1.906,4.258,4.258,4.258
			C639.528,111.793,641.435,109.886,641.435,107.534z"/>
		<path style="fill:none;stroke:#4C2E6D;stroke-linecap:round;stroke-linejoin:round;stroke-miterlimit:10;" d="M378.175,55.074
			c0-2.352-1.906-4.258-4.258-4.258c-2.352,0-4.258,1.906-4.258,4.258s1.906,4.258,4.258,4.258
			C376.268,59.332,378.175,57.425,378.175,55.074z"/>
		<path style="fill:none;stroke:#4C2E6D;stroke-linecap:round;stroke-linejoin:round;stroke-miterlimit:10;" d="M531.342,224.818
			c0-2.352-1.906-4.258-4.258-4.258c-2.352,0-4.258,1.906-4.258,4.258c0,2.352,1.906,4.258,4.258,4.258
			C529.435,229.076,531.342,227.17,531.342,224.818z"/>
		
			<circle style="fill:none;stroke:#4C2E6D;stroke-linecap:round;stroke-linejoin:round;stroke-miterlimit:10;" cx="60.04" cy="184.749" r="4.258"/>
		
			<circle style="fill:none;stroke:#4C2E6D;stroke-linecap:round;stroke-linejoin:round;stroke-miterlimit:10;" cx="655.773" cy="309.039" r="4.258"/>
		
			<circle style="fill:none;stroke:#4C2E6D;stroke-linecap:round;stroke-linejoin:round;stroke-miterlimit:10;" cx="681.313" cy="437.349" r="4.258"/>
		
			<circle style="fill:none;stroke:#4C2E6D;stroke-linecap:round;stroke-linejoin:round;stroke-miterlimit:10;" cx="112.367" cy="435.096" r="4.258"/>
		
			<line style="fill:none;stroke:#4C2E6D;stroke-width:2;stroke-linecap:round;stroke-linejoin:round;stroke-miterlimit:10;" x1="435.279" y1="450.495" x2="435.279" y2="450.495"/>
		
			<line style="fill:none;stroke:#4C2E6D;stroke-width:2;stroke-linecap:round;stroke-linejoin:round;stroke-miterlimit:10;" x1="623.541" y1="278.415" x2="623.541" y2="278.415"/>
		
			<line style="fill:none;stroke:#4C2E6D;stroke-width:2;stroke-linecap:round;stroke-linejoin:round;stroke-miterlimit:10;" x1="114.212" y1="167.409" x2="114.212" y2="167.409"/>
		
			<line style="fill:none;stroke:#4C2E6D;stroke-width:2;stroke-linecap:round;stroke-linejoin:round;stroke-miterlimit:10;" x1="690.506" y1="177.581" x2="690.506" y2="177.581"/>
		
			<line style="fill:none;stroke:#4C2E6D;stroke-width:2;stroke-linecap:round;stroke-linejoin:round;stroke-miterlimit:10;" x1="318.624" y1="65.666" x2="318.624" y2="65.666"/>
		
			<line style="fill:none;stroke:#4C2E6D;stroke-width:2;stroke-linecap:round;stroke-linejoin:round;stroke-miterlimit:10;" x1="93.357" y1="88.741" x2="93.357" y2="88.741"/>
		
			<line style="fill:none;stroke:#4C2E6D;stroke-width:2;stroke-linecap:round;stroke-linejoin:round;stroke-miterlimit:10;" x1="96.376" y1="270.82" x2="96.376" y2="270.82"/>
		
			<line style="fill:none;stroke:#4C2E6D;stroke-width:2;stroke-linecap:round;stroke-linejoin:round;stroke-miterlimit:10;" x1="660.031" y1="388.943" x2="660.031" y2="388.943"/>
		
			<line style="fill:none;stroke:#4C2E6D;stroke-width:2;stroke-linecap:round;stroke-linejoin:round;stroke-miterlimit:10;" x1="625.61" y1="184.749" x2="625.61" y2="184.749"/>
		
			<line style="fill:none;stroke:#4C2E6D;stroke-width:2;stroke-linecap:round;stroke-linejoin:round;stroke-miterlimit:10;" x1="586.537" y1="65.666" x2="586.537" y2="65.666"/>
		
			<line style="fill:none;stroke:#4C2E6D;stroke-width:2;stroke-linecap:round;stroke-linejoin:round;stroke-miterlimit:10;" x1="665.978" y1="258.12" x2="665.978" y2="258.12"/>
		
			<line style="fill:none;stroke:#4C2E6D;stroke-width:2;stroke-linecap:round;stroke-linejoin:round;stroke-miterlimit:10;" x1="548.867" y1="167.409" x2="548.867" y2="167.409"/>
		
			<line style="fill:none;stroke:#4C2E6D;stroke-width:2;stroke-linecap:round;stroke-linejoin:round;stroke-miterlimit:10;" x1="491.81" y1="288.93" x2="491.81" y2="288.93"/>
		
			<line style="fill:none;stroke:#4C2E6D;stroke-width:2;stroke-linecap:round;stroke-linejoin:round;stroke-miterlimit:10;" x1="470.302" y1="467.341" x2="470.302" y2="467.341"/>
		
			<line style="fill:none;stroke:#4C2E6D;stroke-width:2;stroke-linecap:round;stroke-linejoin:round;stroke-miterlimit:10;" x1="60.04" y1="418.772" x2="60.04" y2="418.772"/>
		
			<line style="fill:none;stroke:#4C2E6D;stroke-width:2;stroke-linecap:round;stroke-linejoin:round;stroke-miterlimit:10;" x1="448.945" y1="70.836" x2="448.945" y2="70.836"/>
	</g>
	<g id="YOGA_BOY">
		<g>
			<path style="fill:#4C2E6D;" d="M363.388,164.339c0,0-12.353-7.785-4.511-18.531c0,0-4.731-12.227,7.547-22.299
				c12.278-10.071,22.242-0.25,22.242-0.25s10.413-6.041,17.365,4.504c6.952,10.545,0.397,22.033-8.171,22.587L363.388,164.339z"/>
			<path style="fill:#E485A1;" d="M355.036,172.192l13.291-17.829c0,0-5.264-2.975-2.578-9.443c2.685-6.468,11.396-2.41,10.42,3.493
				c-0.976,5.904,1.169,7.146,2.866,5.068c1.698-2.078,3.202-8.951,7.114-6.405c3.911,2.546,8.163,2.118,10.708-0.999
				c0,0,2.341-0.124,2.823,2.155c0,0-3.192,7.618-0.243,14.419c0,0-1.293,1.243-3.19,0.553c0,0-0.425,9.195-9.229,9.294
				c-6.114,0.069-13.292-3.783-13.292-3.783l-8.579,13.901L355.036,172.192z"/>
			<path style="fill:#E2738E;" d="M367.167,163.93c0,0-0.757,5.739,3.047,10.472l3.51-5.688
				C367.81,165.506,367.167,163.93,367.167,163.93z"/>
			<path style="fill:#E2738E;" d="M384.945,164.6c0.378-2.594-1.419-5.002-4.012-5.38c-2.594-0.378-5.002,1.419-5.379,4.012
				c-0.378,2.594,1.419,5.002,4.012,5.379C382.159,168.989,384.567,167.193,384.945,164.6z"/>
			<g>
				<path style="fill:none;stroke:#4C2E6D;stroke-linecap:round;stroke-linejoin:round;stroke-miterlimit:10;" d="M392.666,164.27
					c0,0-2.858,1.066-5.888-2.078"/>
				<path style="fill:none;stroke:#4C2E6D;stroke-linecap:round;stroke-linejoin:round;stroke-miterlimit:10;" d="M391.205,153.042
					c0,0,3.667-1.297,4.343,2.027"/>
				<g>
					<path style="fill:none;stroke:#4C2E6D;stroke-linecap:round;stroke-linejoin:round;stroke-miterlimit:10;" d="M367.857,147.115
						c0,0,0.699-2.994,4.947-1.329"/>
					<path style="fill:none;stroke:#4C2E6D;stroke-linecap:round;stroke-linejoin:round;stroke-miterlimit:10;" d="M370.987,149.582
						c0,0-1.785-1.699-1.051-4.254"/>
				</g>
			</g>
		</g>
		<g>
			<path style="fill:#ECB064;" d="M303.673,155.42c8.205,9.46,15.756,19.284,21.738,29.011l26.044-7.855l2.274-7.957
				c0,0-13.655-13.497-30.165-28.261C318.789,142.907,311.536,147.564,303.673,155.42z"/>
			<path style="fill:none;stroke:#F4CA9D;stroke-linecap:round;stroke-linejoin:round;stroke-miterlimit:10;" d="M307.983,156.503
				c0,0,9.429-6.923,16.135-12"/>
			<path style="fill:#E6994B;" d="M353.729,168.619c0,0-1.969-1.946-5.311-5.164c-13.91-0.92-24.978,9.145-28.445,12.719
				c1.92,2.753,3.747,5.509,5.438,8.257l26.044-7.855L353.729,168.619z"/>
		</g>
		<g>
			<g>
				<path style="fill:#E485A1;" d="M240.87,78.807L240.87,78.807l3.204-11.498l-8.837,0.543l0,0
					c-0.003,0.002-32.27,20.784-45.242,63.475l0,0l8.087,17.965l18.28-11.456C221.617,105.875,240.87,78.807,240.87,78.807z"/>
				<path style="fill:#E2738E;" d="M225.635,75.5c-1.863,1.679-3.912,3.637-6.073,5.876l1.806,2.075c0,0-4.333,3.818,3.582,4.286
					c0,0,1.441,3.909,8.088,3.953c1.289-2.361,2.495-4.446,3.559-6.215L225.635,75.5z"/>
			</g>
			<path style="fill:#E485A1;" d="M282.623,350.463L282.623,350.463l-14.21-6.976l-11.291,6.976
				c1.62,22.217,3.4,47.543,5.245,75.342l0,0l6.666,7.751l5.581-7.803L282.623,350.463z"/>
			<path style="fill:#4C2E6D;" d="M250.74,72.192c0.465-8.837-3.178-25.192-6.744-25.114c-3.566,0.077-8.759,20.773-8.759,20.773
				s5.529,0.723,5.633,10.955C240.87,78.807,250.275,81.029,250.74,72.192z"/>
			<path style="fill:#4C2E6D;" d="M287.533,436.141c0.258-2.635-12.919-10.387-12.919-10.387
				c-6.149,4.237-12.247,0.052-12.247,0.052s-3.256,6.614-1.912,8.94c1.344,2.325,9.456,2.119,13.849,2.842
				C278.696,438.311,287.275,438.776,287.533,436.141z"/>
			<g>
				<path style="fill:#4C2E6D;" d="M215.446,161.28c-0.797-7.893-0.338-15.808,0.917-23.445l-26.368-6.509
					c-3.111,10.237-5.116,21.728-5.296,34.501c-0.93,66.041,64.646,85.109,64.646,85.109s3.271,37.741,7.777,99.527h25.502
					l9.922-90.173v-34.312l-19.223-18.816C273.322,207.161,219.58,202.207,215.446,161.28z"/>
				<path style="fill:none;stroke:#5B3E7F;stroke-linecap:round;stroke-linejoin:round;stroke-miterlimit:10;" d="M191.121,137.714
					c0,0,13.081,3.838,21.89,4.98"/>
				<path style="fill:none;stroke:#5B3E7F;stroke-linecap:round;stroke-linejoin:round;stroke-miterlimit:10;" d="M260.22,346.132
					c0,0,13.385,0.857,19.978,0"/>
				<path style="fill:none;stroke:#5B3E7F;stroke-linecap:round;stroke-linejoin:round;stroke-miterlimit:10;" d="M265.76,211.941
					c0,0-0.661,26.916,19.514,49.729"/>
				<path style="fill:none;stroke:#5B3E7F;stroke-linecap:round;stroke-linejoin:round;stroke-miterlimit:10;" d="M202.066,146.795
					c-3.099,9.842-6.852,19.303,0,27.607c10.945,13.265,2.179,22.191,14.969,30.697c11.99,7.974,22.552,2.909,42.044,13.002"/>
				<path style="fill:none;stroke:#5B3E7F;stroke-linecap:round;stroke-linejoin:round;stroke-miterlimit:10;" d="M273.322,253.676
					c-6.509,8.888-9.278,18.921-1.168,28.887c8.11,9.965-3.758,18.273-4.995,28.964c-1.027,8.876,12.277,13.237,6.164,29.265"/>
			</g>
		</g>
		<path style="fill:#ECB064;" d="M273.322,207.161c0,0,0,29.771,19.223,53.129c0,0,62.255-26.343,74.325-61.125
			c8.805-25.372-12.108-35.973-22.805-30.237C333.369,174.664,303.035,192.641,273.322,207.161z"/>
		<g>
			<path style="fill:#E2738E;" d="M227.92,87.268c-3.389-2.366-7.179-1.271-7.565-2.984c-0.465-2.067,3.953-2.405,4.108-2.364
				L227.92,87.268z"/>
			<path style="fill:#E485A1;" d="M287.324,110.949c-25.838-17.57-49.955-30.308-49.955-30.308
				c-4.186-8.914-6.938-10.27-8.798-9.689c-1.135,0.354-1.124,1.473-1.124,1.473s-1.511-0.736-2.248,0
				c-0.736,0.736-0.232,1.822-0.232,1.822s-0.891-0.659-1.977,0.271c-1.085,0.93-0.349,2.325-0.349,2.325s-0.93,0.039-1.55,0.891
				c-0.62,0.853,0.426,2.907,3.294,6.937c2.868,4.031,7.402,4.069,7.402,4.069s40.681,30.704,71.885,66.679h0l19.891-15.062l0,0
				C311.616,129.673,298.172,118.325,287.324,110.949z"/>
			<g>
				<path style="fill:none;stroke:#4C2E6D;stroke-linecap:round;stroke-linejoin:round;stroke-miterlimit:10;" d="M284.181,108.829
					c-24.617-16.465-46.811-28.188-46.811-28.188c-4.186-8.914-6.938-10.27-8.798-9.689c-1.135,0.354-1.124,1.473-1.124,1.473
					s-1.511-0.736-2.248,0c-0.736,0.736-0.232,1.822-0.232,1.822s-0.891-0.659-1.977,0.271c-1.085,0.93-0.349,2.325-0.349,2.325
					s-0.93,0.039-1.55,0.891c-0.476,0.655,0.03,2.017,1.588,4.439c0,0,0.811,1.225,1.126,1.675"/>
				<path style="fill:none;stroke:#4C2E6D;stroke-linecap:round;stroke-linejoin:round;stroke-miterlimit:10;" d="M231.788,88.741
					c0,0-3.344-0.028-6.105-2.589l0.001-0.003c-2.645-0.903-5.028-0.526-5.33-1.865c-0.269-1.196,1.096-1.813,2.324-2.113"/>
			</g>
		</g>
		<g>
			<g>
				<path style="fill:#E485A1;" d="M498.411,210.748c-0.775-2.984-5.413-2.674-5.413-2.674c-4.457-4.136-12.092,0.168-12.092,0.168
					s-29.507,1.033-58.961-7.803c-11.731-3.519-22.087-7.707-31.106-12.02l-7.65,7.613l-1.739,15.909
					c15.001,4.725,32.678,8.205,51.658,10.666c37.051,4.806,52.166-4.651,55.577-5.503c3.411-0.853,9.327,0.284,9.728-1.266
					c0.421-1.631-3.139-2.041-3.139-2.041s5.684,0.62,5.88-0.904C501.362,211.252,498.411,210.748,498.411,210.748z"/>
				<g>
					<path style="fill:none;stroke:#4C2E6D;stroke-linecap:round;stroke-linejoin:round;stroke-miterlimit:10;" d="M495.272,213.797
						c-3.566-0.568-6.924-0.439-6.924-0.439"/>
					<path style="fill:none;stroke:#4C2E6D;stroke-linecap:round;stroke-linejoin:round;stroke-miterlimit:10;" d="M498.411,210.748
						c-4.877-1.111-10.581,0-10.581,0"/>
					<path style="fill:none;stroke:#4C2E6D;stroke-linecap:round;stroke-linejoin:round;stroke-miterlimit:10;" d="M492.998,208.074
						c-3.704,0.058-5.788,0.736-5.788,0.736"/>
					<path style="fill:none;stroke:#4C2E6D;stroke-linecap:round;stroke-linejoin:round;stroke-miterlimit:10;" d="M433.107,222.607
						c37.051,4.806,52.166-4.651,55.577-5.503c3.411-0.853,9.327,0.284,9.728-1.266c0.421-1.631-3.139-2.041-3.139-2.041
						s5.684,0.62,5.88-0.904c0.211-1.64-2.741-2.145-2.741-2.145c-0.775-2.984-5.413-2.674-5.413-2.674
						c-4.457-4.136-12.092,0.168-12.092,0.168"/>
				</g>
			</g>
			<path style="fill:#ECB064;" d="M390.838,188.419c-13.628-6.516-24.201-13.321-31.816-18.549
				c-11.025-7.568-28.853,10.725-11.955,24.987c8.242,6.956,20.099,12.584,34.382,17.083
				C386.663,203.167,389.554,193.522,390.838,188.419z"/>
			<path style="fill:none;stroke:#F4CA9D;stroke-linecap:round;stroke-linejoin:round;stroke-miterlimit:10;" d="M386.389,189.202
				c0,0-3.336,10.858-7.556,19.429"/>
		</g>
	</g>
	<g id="COMPUTER">
		<g>
			<g>
				<path style="fill:#A89EE5;" d="M432.018,331.36c-9.136,7.752-9.818,24.804-10.542,47.335c-0.723,22.53,0.31,29.558,7.545,39.066
					c7.235,9.508,35.759,30.592,81.44,39.17c45.681,8.578,88.882-6.098,99.01-10.438c10.128-4.341,19.223-14.469,21.083-42.374
					c1.86-27.905,5.352-49.128-4.561-56.251c-24.69-17.741-55.382-19.451-90.522-27.742
					C504.292,312.767,449.071,316.891,432.018,331.36z"/>
				<path style="fill:#8B86CE;" d="M609.471,446.492c10.128-4.341,19.223-14.469,21.083-42.374
					c1.29-19.352,4.489-41.268-0.308-50.826c0.397,6.788-5.24,10.312-5.24,10.312s2.999,40.668-5.772,56.952
					c-8.771,16.284-56.429,37.573-120.724,20.974c-49.432-12.761-70.186-36.982-77.142-47.5c0.411,11.206,2.391,16.815,7.652,23.729
					c7.235,9.508,35.759,30.592,81.44,39.17C556.142,465.509,599.343,450.833,609.471,446.492z"/>
			</g>
			<g>
				<path style="fill:none;stroke:#4C2E6D;stroke-linecap:round;stroke-linejoin:round;stroke-miterlimit:10;" d="M432.018,331.36
					c0,0-7.958,9.238,6.304,20.949c14.262,11.71,53.122,21.839,101.697,24.526c48.575,2.687,94.937-7.545,89.842-24.339"/>
				<path style="fill:none;stroke:#4C2E6D;stroke-linecap:round;stroke-linejoin:round;stroke-miterlimit:10;" d="M431.191,348.413
					c0,0-0.62-3.617,2.997-4.444"/>
				<path style="fill:none;stroke:#4C2E6D;stroke-linecap:round;stroke-linejoin:round;stroke-miterlimit:10;" d="M446.28,354.51
					c0,0-2.584,1.24-2.894,5.167"/>
				
					<line style="fill:none;stroke:#4C2E6D;stroke-linecap:round;stroke-linejoin:round;stroke-miterlimit:10;" x1="463.437" y1="361.952" x2="461.886" y2="367.739"/>
				<path style="fill:none;stroke:#4C2E6D;stroke-linecap:round;stroke-linejoin:round;stroke-miterlimit:10;" d="M478.009,366.499
					c0,0,0.827,3.307-0.31,5.064"/>
				<path style="fill:none;stroke:#4C2E6D;stroke-linecap:round;stroke-linejoin:round;stroke-miterlimit:10;" d="M507.361,370.633
					c0,0,1.034,3.617-0.207,6.718"/>
				<path style="fill:none;stroke:#4C2E6D;stroke-linecap:round;stroke-linejoin:round;stroke-miterlimit:10;" d="M523.897,372.7
					c0,0-0.724,2.377,0,6.511"/>
				<path style="fill:none;stroke:#4C2E6D;stroke-linecap:round;stroke-linejoin:round;stroke-miterlimit:10;" d="M547.461,373.94
					c0,0,1.24,2.48,0.827,7.028"/>
				<path style="fill:none;stroke:#4C2E6D;stroke-linecap:round;stroke-linejoin:round;stroke-miterlimit:10;" d="M567.201,373.217
					c0,0,2.687,4.651,2.584,7.338"/>
				<path style="fill:none;stroke:#4C2E6D;stroke-linecap:round;stroke-linejoin:round;stroke-miterlimit:10;" d="M583.53,372.183
					c0,0,3.204,3.411,2.997,7.545"/>
				<path style="fill:none;stroke:#4C2E6D;stroke-linecap:round;stroke-linejoin:round;stroke-miterlimit:10;" d="M603.787,369.186
					c0,0,2.79,2.687,2.997,7.131"/>
				<path style="fill:none;stroke:#4C2E6D;stroke-linecap:round;stroke-linejoin:round;stroke-miterlimit:10;" d="M619.083,363.605
					c0,0,4.754,2.687,4.444,7.028"/>
				<path style="fill:none;stroke:#4C2E6D;stroke-linecap:round;stroke-linejoin:round;stroke-miterlimit:10;" d="M530.141,459.301
					c4.117-1.388,6.83-8.209,8.07-31.618c1.24-23.409,3.101-42.529-1.395-50.797"/>
				<path style="fill:none;stroke:#4C2E6D;stroke-linecap:round;stroke-linejoin:round;stroke-miterlimit:10;" d="M435.934,350.175
					c-4.226,2.785-3.945,21.233-4.783,41.232c-0.838,19.998-0.504,30.132,8.559,36.304"/>
				<path style="fill:none;stroke:#4C2E6D;stroke-linecap:round;stroke-linejoin:round;stroke-miterlimit:10;" d="M616.365,368.332
					c2.459,2.094,3.234,5.918,2.717,25.968c-0.517,20.05-1.757,47.541-9.612,52.192"/>
			</g>
		</g>
		<g>
			<path style="fill:#8B86CE;" d="M463.594,335.907c-7.376,3.907-1.564,9.32,14.105,14.546
				c15.669,5.227,49.458,17.225,65.398,16.665c15.941-0.56,52.491-17.717,53.128-20.928c0.636-3.211-44.376-18.859-58.979-20.905
				C522.643,323.241,480.012,327.211,463.594,335.907z"/>
			<g>
				<polygon style="fill:#D1327E;" points="542.395,359.745 597.429,338.967 513.078,313.855 458.044,334.634 				"/>
				<g>
					<polygon style="fill:#B31B66;" points="476.433,331.879 470.302,334.194 542.247,355.613 548.378,353.298 					"/>
					<path style="fill:#B31B66;" d="M558.87,349.336l24.167-9.125c0.689-0.26,0.653-1.246-0.052-1.456l-64.158-19.1
						c-3.633-1.082-7.521-0.942-11.068,0.397l-24.168,9.125c-0.689,0.26-0.653,1.246,0.052,1.456l64.159,19.1
						C551.436,350.815,555.324,350.675,558.87,349.336z"/>
				</g>
				<path style="fill:#BD2470;" d="M542.395,359.745l-84.351-25.112v1.874c0,1.459,0.958,2.744,2.357,3.16l79.786,23.753
					c1.433,0.426,2.966,0.372,4.364-0.156l50.946-19.235c1.163-0.439,1.933-1.552,1.933-2.796v-2.267L542.395,359.745z"/>
			</g>
			<g>
				<path style="fill:#E95D9D;" d="M517.163,250.325l-4.085,63.53l84.351,25.112l4.209-65.459l-82.498-24.56
					C518.191,248.665,517.226,249.337,517.163,250.325z"/>
				<polygon style="fill:#FBE3F0;" points="517.189,310.99 520.882,253.555 597.527,276.372 593.834,333.808 				"/>
				<path style="fill:#D1327E;" d="M598.173,338.967h-0.744l4.209-65.459l1.217,0.467c0.943,0.362,1.543,1.293,1.483,2.302
					l-3.63,60.304C600.627,337.921,599.516,338.967,598.173,338.967z"/>
			</g>
			<g>
				<path style="fill:#4C2E6D;" d="M534.096,287.638l0.185-7.226l-3.106-10.775l4.241,1.272l1.334,4.986l1.323-4.188l4.063,1.218
					l-3.549,8.779l-0.185,7.226L534.096,287.638z M551.322,292.696c-0.748,0.027-1.646-0.117-2.694-0.431
					c-1.049-0.314-1.938-0.707-2.67-1.178c-0.732-0.47-1.309-1.019-1.732-1.645c-0.423-0.625-0.722-1.304-0.897-2.034
					c-0.175-0.731-0.25-1.555-0.227-2.471l0.16-6.273c0.023-0.916,0.14-1.682,0.349-2.298c0.209-0.615,0.538-1.105,0.986-1.469
					c0.448-0.365,1.044-0.561,1.789-0.59c0.745-0.027,1.641,0.115,2.689,0.43c1.048,0.315,1.94,0.708,2.675,1.179
					c0.736,0.473,1.316,1.022,1.743,1.65c0.427,0.627,0.729,1.306,0.908,2.038c0.178,0.732,0.256,1.556,0.232,2.472l-0.16,6.273
					c-0.023,0.916-0.142,1.682-0.354,2.295c-0.214,0.615-0.545,1.104-0.997,1.467C552.67,292.474,552.07,292.67,551.322,292.696z
					 M548.701,289.385c0.244,0.073,0.444,0.084,0.602,0.03c0.158-0.052,0.272-0.164,0.343-0.336
					c0.071-0.171,0.118-0.333,0.141-0.484c0.022-0.152,0.037-0.344,0.042-0.576l0.214-8.396c0.006-0.232,0.001-0.43-0.013-0.592
					c-0.015-0.163-0.053-0.348-0.115-0.556c-0.062-0.208-0.168-0.384-0.321-0.53c-0.152-0.146-0.35-0.255-0.594-0.328
					c-0.199-0.06-0.37-0.074-0.512-0.04c-0.142,0.033-0.249,0.089-0.322,0.167c-0.073,0.078-0.13,0.199-0.171,0.362
					c-0.041,0.163-0.066,0.3-0.071,0.412c-0.007,0.111-0.013,0.266-0.018,0.465l-0.214,8.396c-0.005,0.191-0.007,0.346-0.006,0.463
					c0,0.117,0.017,0.268,0.049,0.454c0.032,0.185,0.082,0.338,0.15,0.458c0.068,0.121,0.171,0.241,0.309,0.362
					C548.333,289.235,548.502,289.326,548.701,289.385z M561.681,296.181c-0.952-0.286-1.764-0.674-2.436-1.165
					c-0.672-0.49-1.193-1.063-1.563-1.718c-0.37-0.655-0.633-1.354-0.789-2.096c-0.156-0.741-0.223-1.564-0.2-2.466l0.146-5.72
					c0.023-0.923,0.142-1.705,0.356-2.347c0.214-0.641,0.543-1.162,0.988-1.562c0.445-0.4,1.044-0.627,1.797-0.68
					c0.753-0.053,1.653,0.077,2.701,0.391c0.834,0.251,1.568,0.556,2.202,0.914c0.634,0.359,1.154,0.743,1.56,1.155
					c0.406,0.411,0.737,0.87,0.992,1.376c0.255,0.507,0.431,1.019,0.529,1.537c0.099,0.518,0.14,1.072,0.125,1.66l-0.031,1.219
					l-4.418-1.325l0.042-1.63c0.005-0.191,0.005-0.348,0.001-0.469c-0.005-0.122-0.023-0.276-0.056-0.461
					c-0.033-0.186-0.083-0.338-0.15-0.458c-0.068-0.12-0.171-0.24-0.309-0.357c-0.138-0.117-0.306-0.205-0.506-0.266
					c-0.243-0.073-0.448-0.083-0.613-0.028c-0.164,0.053-0.285,0.165-0.359,0.331c-0.076,0.167-0.126,0.331-0.152,0.491
					c-0.027,0.161-0.042,0.354-0.048,0.58l-0.213,8.333c-0.005,0.212,0.008,0.414,0.04,0.606c0.033,0.193,0.089,0.39,0.169,0.593
					c0.08,0.203,0.206,0.384,0.377,0.541c0.17,0.159,0.378,0.274,0.622,0.347c0.317,0.095,0.584,0.078,0.799-0.049
					c0.215-0.128,0.361-0.303,0.437-0.525c0.076-0.222,0.118-0.473,0.126-0.753l0.057-2.214l-1.473-0.441l0.061-2.389l5.514,1.654
					l-0.228,8.948l-3-0.899l-0.19-1.307C564.023,296.377,563.054,296.593,561.681,296.181z M569.45,298.242l3.767-15.996
					l5.226,1.568l2.866,17.985l-4.108-1.232l-0.489-3.565l-2.381-0.714l-0.64,3.227L569.45,298.242z M574.746,293.995l1.65,0.494
					l-0.668-6.593L574.746,293.995z"/>
				<path style="fill:#4C2E6D;" d="M540.258,306.863c-0.483-0.144-0.905-0.334-1.269-0.567c-0.364-0.233-0.657-0.486-0.881-0.76
					c-0.224-0.273-0.403-0.586-0.537-0.939c-0.135-0.353-0.225-0.705-0.27-1.059c-0.046-0.354-0.063-0.739-0.052-1.159l0.115-4.503
					c0.011-0.437,0.049-0.819,0.115-1.147c0.065-0.327,0.174-0.62,0.328-0.879c0.153-0.26,0.347-0.455,0.584-0.586
					c0.236-0.132,0.536-0.2,0.901-0.205c0.365-0.006,0.785,0.063,1.263,0.206c0.536,0.161,0.992,0.372,1.367,0.634
					c0.375,0.262,0.67,0.569,0.884,0.923c0.214,0.353,0.366,0.736,0.454,1.148c0.089,0.413,0.126,0.874,0.113,1.384l-0.018,0.697
					l-1.092-0.328l0.017-0.663c0.01-0.4-0.003-0.743-0.041-1.025c-0.037-0.282-0.116-0.554-0.236-0.818
					c-0.119-0.263-0.3-0.484-0.541-0.664c-0.241-0.18-0.548-0.327-0.922-0.439c-0.404-0.121-0.739-0.161-1.005-0.122
					c-0.266,0.04-0.469,0.16-0.609,0.362c-0.139,0.202-0.237,0.437-0.293,0.708c-0.056,0.27-0.09,0.612-0.1,1.027l-0.123,4.811
					c-0.022,0.879,0.103,1.562,0.376,2.047c0.272,0.486,0.773,0.837,1.502,1.056c0.299,0.09,0.559,0.128,0.778,0.113
					c0.219-0.014,0.395-0.068,0.528-0.161c0.134-0.093,0.242-0.236,0.324-0.43c0.082-0.193,0.139-0.401,0.172-0.623
					c0.032-0.222,0.054-0.493,0.062-0.811l0.019-0.738l1.092,0.328l-0.017,0.663c-0.011,0.414-0.047,0.778-0.109,1.093
					c-0.063,0.314-0.165,0.596-0.308,0.847c-0.143,0.251-0.325,0.44-0.546,0.566c-0.221,0.126-0.502,0.193-0.842,0.202
					C541.1,307.06,540.706,306.997,540.258,306.863z M544.942,308.124l0.289-11.33l1.159,0.347l-0.269,10.531l3.484,1.045
					l-0.021,0.8L544.942,308.124z M550.072,309.662l2.873-10.556l1.21,0.363l2.309,12.11l-1.129-0.339l-0.528-3.209l-2.923-0.877
					l-0.698,2.841L550.072,309.662z M552.066,306.425l2.605,0.781l-1.15-6.501L552.066,306.425z M560.551,312.943
					c-0.97-0.29-1.698-0.781-2.183-1.47c-0.486-0.69-0.755-1.531-0.809-2.526l1.033,0.035c0.027,0.31,0.064,0.59,0.109,0.834
					c0.046,0.245,0.116,0.494,0.211,0.746c0.096,0.252,0.214,0.469,0.356,0.654c0.142,0.184,0.323,0.354,0.545,0.507
					c0.222,0.154,0.478,0.274,0.768,0.361c1.152,0.346,1.742-0.029,1.769-1.122c0.006-0.241-0.021-0.478-0.082-0.709
					c-0.061-0.232-0.162-0.471-0.302-0.717c-0.14-0.247-0.288-0.476-0.444-0.688c-0.156-0.211-0.358-0.472-0.608-0.781l-2.121-2.577
					c-0.721-0.878-1.071-1.75-1.049-2.615c0.02-0.77,0.283-1.293,0.788-1.568c0.505-0.275,1.181-0.288,2.028-0.039
					c0.02,0.006,0.037,0.012,0.052,0.016c0.891,0.267,1.566,0.694,2.028,1.283c0.471,0.6,0.732,1.421,0.785,2.459l-0.981-0.059
					c-0.049-0.787-0.212-1.414-0.487-1.882c-0.266-0.446-0.704-0.761-1.315-0.945c-0.03-0.009-0.059-0.017-0.089-0.027
					c-0.536-0.147-0.962-0.144-1.276,0.01c-0.314,0.153-0.477,0.479-0.489,0.975c-0.008,0.31,0.05,0.611,0.174,0.902
					c0.124,0.292,0.34,0.627,0.647,1.004l2.107,2.539c0.543,0.659,0.969,1.288,1.276,1.888c0.307,0.599,0.453,1.193,0.438,1.78
					c-0.021,0.825-0.294,1.383-0.82,1.675C562.083,313.177,561.396,313.197,560.551,312.943z M567.504,315.028
					c-0.969-0.29-1.697-0.781-2.183-1.47c-0.486-0.689-0.756-1.531-0.809-2.525l1.033,0.034c0.026,0.31,0.063,0.59,0.109,0.835
					c0.045,0.245,0.117,0.493,0.211,0.745c0.095,0.252,0.214,0.47,0.355,0.654c0.142,0.185,0.324,0.354,0.545,0.508
					c0.222,0.153,0.478,0.274,0.768,0.361c1.152,0.346,1.742-0.028,1.769-1.121c0.006-0.242-0.021-0.478-0.083-0.71
					c-0.061-0.232-0.162-0.471-0.302-0.717c-0.14-0.246-0.288-0.475-0.444-0.687c-0.156-0.212-0.359-0.472-0.608-0.781l-2.121-2.578
					c-0.722-0.877-1.071-1.749-1.049-2.615c0.02-0.77,0.282-1.293,0.787-1.568c0.506-0.275,1.182-0.288,2.028-0.039
					c0.019,0.006,0.037,0.012,0.052,0.016c0.89,0.267,1.566,0.694,2.027,1.283c0.471,0.6,0.732,1.421,0.785,2.46l-0.981-0.06
					c-0.049-0.786-0.211-1.413-0.487-1.881c-0.266-0.447-0.704-0.762-1.315-0.946c-0.03-0.009-0.059-0.017-0.088-0.026
					c-0.537-0.148-0.962-0.145-1.276,0.009c-0.314,0.153-0.477,0.479-0.489,0.975c-0.008,0.311,0.05,0.611,0.174,0.903
					c0.123,0.291,0.34,0.626,0.647,1.003l2.107,2.539c0.543,0.66,0.968,1.289,1.276,1.888c0.307,0.599,0.453,1.193,0.438,1.78
					c-0.021,0.825-0.295,1.384-0.82,1.676C569.037,315.263,568.35,315.282,567.504,315.028z"/>
			</g>
		</g>
	</g>
</g>
</svg>
