<svg width="24" height="24" viewBox="0 0 24 24" fill="none" xmlns="http://www.w3.org/2000/svg">
<path d="M17 10.9643C17 15.6032 11.5 19.5794 11.5 19.5794C11.5 19.5794 6 15.6032 6 10.9643C6 9.38246 6.57946 7.86542 7.61091 6.7469C8.64236 5.62838 10.0413 5 11.5 5C12.9587 5 14.3576 5.62838 15.3891 6.7469C16.4205 7.86542 17 9.38246 17 10.9643Z" stroke="#333333" stroke-width="1.5" stroke-linecap="round" stroke-linejoin="round"/>
<path d="M11.4997 13.5761C12.3675 13.5761 13.0711 12.6162 13.0711 11.4321C13.0711 10.248 12.3675 9.28809 11.4997 9.28809C10.6318 9.28809 9.92822 10.248 9.92822 11.4321C9.92822 12.6162 10.6318 13.5761 11.4997 13.5761Z" stroke="#333333" stroke-width="1.5" stroke-linecap="round" stroke-linejoin="round"/>
</svg>
